<?xml version="1.0" encoding="UTF-8" standalone="no"?>
<!-- Created with Inkscape (http://www.inkscape.org/) -->

<svg
   xmlns:dc="http://purl.org/dc/elements/1.1/"
   xmlns:cc="http://creativecommons.org/ns#"
   xmlns:rdf="http://www.w3.org/1999/02/22-rdf-syntax-ns#"
   xmlns:svg="http://www.w3.org/2000/svg"
   xmlns="http://www.w3.org/2000/svg"
   xmlns:sodipodi="http://sodipodi.sourceforge.net/DTD/sodipodi-0.dtd"
   xmlns:inkscape="http://www.inkscape.org/namespaces/inkscape"
   id="svg3004"
   version="1.1"
   inkscape:version="0.48.4 r9939"
   width="844.604"
   height="290.63437"
   xml:space="preserve"
   sodipodi:docname="connectors.svg"><metadata
     id="metadata3010"><rdf:RDF><cc:Work
         rdf:about=""><dc:format>image/svg+xml</dc:format><dc:type
           rdf:resource="http://purl.org/dc/dcmitype/StillImage" /><dc:title /></cc:Work></rdf:RDF></metadata><defs
     id="defs3008" /><sodipodi:namedview
     pagecolor="#ffffff"
     bordercolor="#666666"
     borderopacity="1"
     objecttolerance="10"
     gridtolerance="10"
     guidetolerance="10"
     inkscape:pageopacity="0"
     inkscape:pageshadow="2"
     inkscape:window-width="1920"
     inkscape:window-height="1153"
     id="namedview3006"
     showgrid="false"
     showguides="true"
     inkscape:guide-bbox="true"
     inkscape:zoom="1"
     inkscape:cx="375.24723"
     inkscape:cy="37.166991"
     inkscape:window-x="0"
     inkscape:window-y="0"
     inkscape:window-maximized="1"
     inkscape:current-layer="g3012"
     fit-margin-top="30"
     fit-margin-left="30"
     fit-margin-right="30"
     fit-margin-bottom="30"><sodipodi:guide
       orientation="0,1"
       position="390.96778,67.499995"
       id="guide3202" /></sodipodi:namedview><g
     id="g3012"
     inkscape:groupmode="layer"
     inkscape:label="assembly"
     transform="matrix(1.25,0,0,-1.25,-249.7346,693.44602)"
     style="display:inline"><g
       id="g3130"
       transform="translate(335.94218,408)"><path
         d="m 0,0 1.6,-1.6 m 18.5,0 0,0.5 m 4.4,3.6 0,0.1 -0.1,0.2 0,0.1 -0.1,0.1 -0.1,0.1 -0.1,0.2 -0.1,0.1 -0.1,0 m 116.6,6 -1.7,0 m -10.8,0 -1.7,0 m 7.9,0 -1.7,0 m -17,0 -1.7,0 m -4.5,0 -1.7,0 m 14.2,0 -1.7,0 m -17,0 -1.7,0 m -4.6,0 -1.7,0 M 143,10 143,5.4 M 36.2,14.1 35.7,13.8 35.3,13.4 35.1,13 35,12.4 l 0.1,-0.5 0.2,-0.5 0.4,-0.4 0.5,-0.3 m 0,40.3 -0.5,-0.3 -0.4,-0.4 -0.2,-0.5 -0.1,-0.5 0.1,-0.6 0.2,-0.4 0.4,-0.4 0.5,-0.3 m 69.7,-34.9 -0.1,0.3 -0.2,0.4 -0.2,0.3 M -34.5,0.9 l -0.1,-0.8 -0.5,-0.7 -0.7,-0.5 -0.8,-0.2 -0.8,0.2 -0.7,0.5 -0.5,0.7 -0.2,0.8 0.2,0.8 0.5,0.7 0.7,0.5 0.8,0.1 0.8,-0.1 0.7,-0.5 0.5,-0.7 0.1,-0.8 m 0.4,0 -0.2,-1 -0.5,-0.8 -0.8,-0.6 -1,-0.2 -1,0.2 -0.8,0.6 -0.6,0.8 -0.2,1 0.2,1 0.6,0.8 0.8,0.5 1,0.2 1,-0.2 0.8,-0.5 0.5,-0.8 0.2,-1 m 1.1,0 -0.3,-1.4 -0.8,-1.2 -1.1,-0.7 -1.4,-0.3 -1.4,0.3 -1.2,0.7 -0.7,1.2 -0.3,1.4 0.3,1.4 0.7,1.1 1.2,0.8 1.4,0.3 1.4,-0.3 1.1,-0.8 0.8,-1.1 0.3,-1.4 m -7.2,0 0.3,1.4 0.7,1.1 1.2,0.8 1.4,0.3 1.4,-0.3 1.1,-0.8 0.8,-1.1 0.3,-1.4 -0.3,-1.4 -0.8,-1.2 -1.1,-0.7 -1.4,-0.3 -1.4,0.3 -1.2,0.7 -0.7,1.2 -0.3,1.4 m -9.4,0 0.3,2.9 0.9,2.7 1.6,2.5 2.1,2.1 2.4,1.5 2.8,1 2.9,0.3 2.9,-0.3 2.7,-1 2.5,-1.5 2.1,-2.1 1.5,-2.5 1,-2.7 0.3,-2.9 -0.3,-2.9 -1,-2.8 -1.5,-2.4 -2.1,-2.1 -2.5,-1.6 -2.7,-0.9 -2.9,-0.3 -2.9,0.3 -2.8,0.9 -2.4,1.6 -2.1,2.1 -1.6,2.4 -0.9,2.8 -0.3,2.9 m -2.3,0 0.4,-3.1 0.9,-2.9 1.5,-2.7 2,-2.4 2.4,-1.9 2.8,-1.3 3,-0.8 3.1,-0.1 3,0.4 2.9,1.1 2.6,1.6 2.3,2.2 1.7,2.5 1.2,2.8 0.7,3 0,3.1 -0.7,3.1 -1.2,2.8 -1.7,2.5 -2.3,2.1 -2.6,1.7 -2.9,1.1 -3,0.4 -3.1,-0.1 -3,-0.8 -2.8,-1.4 -2.4,-1.9 -2,-2.3 -1.5,-2.7 -0.9,-2.9 -0.4,-3.1 m -0.2,0 0.4,-3.1 0.9,-3 1.5,-2.7 2,-2.4 2.5,-1.9 2.8,-1.4 3.1,-0.8 3.1,-0.1 3.1,0.4 2.9,1.1 2.6,1.7 2.3,2.1 1.8,2.6 1.2,2.9 0.7,3 0,3.2 -0.7,3 -1.2,2.9 -1.8,2.6 -2.3,2.1 -2.6,1.7 -2.9,1 -3.1,0.5 -3.1,-0.1 -3.1,-0.8 -2.8,-1.4 -2.5,-1.9 -2,-2.4 -1.5,-2.7 -0.9,-3 -0.4,-3.1 m 33.5,0 -0.3,-3.4 -1,-3.3 -1.6,-3 -2.1,-2.7 -2.6,-2.3 -2.9,-1.7 -3.3,-1.1 -3.4,-0.5 -3.4,0.2 -3.3,0.8 -3.1,1.4 -2.8,2 -2.4,2.5 -1.8,2.8 -1.3,3.2 -0.6,3.4 0,3.4 0.6,3.4 1.3,3.1 1.8,2.9 2.4,2.5 2.8,2 3.1,1.4 3.3,0.8 3.4,0.2 3.4,-0.5 3.3,-1.1 2.9,-1.7 2.6,-2.3 2.1,-2.7 1.6,-3 1,-3.3 0.3,-3.4 m 40,32.2 0,-1.4 m 0,0 1.4,0 m 0,0 0,-12.2 m 0,0 -0.9,0 m 0,0 0,-0.6 m 0,0 0.6,0 m 0,0 0,-6.8 m 0,0 -0.6,0 m 0,0 0,-0.6 m 0,0 0.9,0 m 0,0 0,-9 m 0,0 -27.4,0 m -30,0 -0.6,0 m -2.9,0 -0.5,0 m 60,30.6 0.2,0 0.3,0 0.2,0 0.3,0 0.1,0 0.2,0 0.1,0 m 1.1,-21 0,6.8 m 0,0 0,0 -0.1,0 -0.1,0 -0.2,0 -0.2,0 -0.3,0 -0.2,0 -0.3,0 m 0,-6.8 0.3,0 0.2,0 0.3,0 0.2,0 0.2,0 0.1,0 0.1,0 M 0.7,-1.6 l 0,0.9 m 16.5,3.2 0,-2.5 m 0,0 -20.4,0 m -31,0 -0.4,0 m -4,0 -0.4,0 m 37.3,-1 0,1 m 7.2,-1.6 0,1.6 m -2.8,0 0,-1.6 m -40.4,0.2 0,0.4 m 54.9,1 3.6,0 m -3.6,0 0,2.5 m 3.9,-2.5 0,2.5 M 20.8,0 20.9,0 21,0 21.1,0 M 14.3,0 14.1,-1 13.8,-1.6 M 9.2,-1.6 8.9,-1 8.7,0 m 15.2,20.3 -1.1,0 m 0,34.2 0,-22.8 m 1.1,-11.4 0,34.2 m -2.5,-54.2 1.1,0 m 0,0 0,2.2 m -1.1,-2.2 0,2.2 m 2.5,8.2 -1.1,0 m 0,-10.4 1.1,0 m -1.1,2.2 0,-2.2 m 1.1,10.4 0,-10.4 m -1.4,19.2 0,-0.6 m 0,-6.8 0,-0.6 m 0.3,-0.7 0,0 0.1,0 0.1,0 0.2,0 m -0.4,9.4 0,0 0.1,0 0.1,0 0.2,0 m 0,-9.4 0.2,0 0.1,0 0.1,0 0.1,0 0.1,0 0.1,0 m 0,9.4 0,0 -0.1,0 -0.1,0 -0.1,0 -0.1,0 -0.1,0 -0.2,0 m 0.7,0 0,-1.3 m 0,-6.8 0,-1.3 m 0,9.5 0,-0.1 m 0,-9.4 0,-0.1 m -1.1,-10.4 -0.1,0 -0.1,0 -0.1,0 m 0.3,0 0,-1.9 m 1.1,1.9 0,-1.9 m 0.6,3.3 0,0 -0.1,0 -0.1,0 -0.1,0 -0.1,0 -0.1,0 -0.1,0 m 0.6,-3.3 0,3.3 m 0,0 0,0 0,0.1 0,0.1 0,0.1 0,0.1 0,0.1 0,0.1 0,0.1 0,0.1 m -1.7,-2.2 0,0 0,-0.1 -0.1,0 0,-0.1 -0.1,0 L 22.5,0 m 0,-1.1 0.3,0 M 16,0 16,-1.1 m 0,0 6.5,0 M 21.1,0 22.5,0 m 7.3,52.4 0,-0.6 -0.1,-0.3 0,-0.2 -0.1,-0.2 -0.1,-0.2 -0.3,-0.2 -0.1,0 m 0.7,1.7 0,2.1 M 29.1,25 l 0.3,-0.1 0.1,-0.1 0.1,-0.2 0.1,-0.2 0,-0.2 0.1,-0.3 0,-0.6 m 0,-3.5 0,3.5 m 0,-3.5 0,-0.6 -0.1,-0.3 0,-0.2 -0.1,-0.2 -0.1,-0.2 -0.3,-0.2 -0.1,0 m 0,0 0,6.9 m 1.7,-1.7 0,0.6 0,0.3 -0.1,0.2 -0.1,0.2 -0.1,0.2 -0.1,0.1 -0.3,0.1 m -0.3,-1.7 1,0 m -1.7,1.7 0,0 m 1,0 -1,0 m 1,-6.9 0.3,0.1 0.1,0.1 0.1,0.2 0.1,0.2 0.1,0.3 0,0.2 0,0.6 m -1.7,-1.7 1,0 m -1,0 0,0 m 1.7,1.7 -1,0 m 0.3,30.9 0.3,0.1 0.1,0.1 0.1,0.2 0.1,0.2 0.1,0.2 0,0.3 0,0.6 m -1.7,-1.7 1,0 m -1,0 0,0 m 1.7,1.7 -1,0 m 1,-32.6 0,3.5 m 0,29.1 0,2.1 m -2.1,-3.9 0.1,0 0.3,0.1 m -0.4,-0.1 0,3.9 m 0,-36.5 0,7.1 m 0.4,-0.1 -0.3,0.1 -0.1,0 m 0,-7.1 0.1,0 0.3,0.1 m 0.8,7 -1.2,0 m 1.4,-0.1 -0.2,0.1 m 0,-7.1 0,0 0.1,0 0.1,0.1 m -1.4,-0.1 1.2,0 m 0,32.6 0,0 0.1,0 0.1,0.1 m -1.4,-0.1 1.2,0 m 0,-1.1 0,1.1 m 0,-1.1 -1.2,0 m 0,0 0,1.1 m 1.2,-33.7 -1.2,0 m 0,0 0,1.1 m 1.2,-1.1 0,1.1 m -1.2,7.1 0,1.1 m 0,0 1.2,0 m 0,-1.1 0,1.1 M 0.7,-1.1 l -2.3,0 m -33.4,0 -0.8,0 m -1.6,0 -0.3,0 m 66.4,50.6 -1,-0.4 -3.1,-0.4 M 29.9,49.5 28.8,49.1 28.1,49 M 26.7,48.8 25.5,48.7 M 24.6,27 l 3.1,-0.4 1,-0.4 m -4.1,0.8 0.9,0 m 0,0 1.2,-0.1 m 1.4,-0.2 0.7,-0.1 1.1,-0.4 m -4.4,22.5 -0.9,0 m 4.1,-31.8 -1,-0.4 -3.1,-0.4 m 0,10.9 0,-10.9 m 5.3,0.8 -1.1,-0.4 -0.7,-0.1 m -1.4,-0.2 -1.2,-0.1 m 0,0 -0.9,0 m -0.7,11 0.4,0 0.3,-0.1 m 0,-10.9 -0.7,-0.1 m 0,0 0.1,0 1.1,0 0.4,0.1 m -0.9,32.6 -0.7,-0.1 m 1.6,-21.6 -0.8,0.1 -0.8,0 m 0,21.5 0.1,0 1.1,0 0.4,0.1 m -3,-16.7 0.1,0.1 0.1,0 0.1,0 m -0.3,-0.1 -0.1,0 -0.1,-0.1 0,-0.1 -0.1,-0.1 m 93.9,-18 0,-1 m 14.4,1 0,-2.3 m 0,-4 0,-1.7 m -11.5,7 0,1 m 14.4,-2.3 0,2.3 m 11.5,0 0,-2.3 m 0,-0.9 0,-0.5 m 0,-4.6 0,-0.8 m 6.9,9.1 0,-6.1 m -4,3.8 0,2.3 m -58.1,-3.3 0,-5.8 m 0,0 0.9,0 m -3,-5.1 0,3.1 m 0,0 0.7,0 m 0.2,0.6 -1.2,0 m 0,0 0,4.4 m 0,0 0.3,0 m 0,0 0,2.6 m 0,0 0,0.3 0.1,0.2 0.1,0.2 0.1,0.1 0.2,0.2 0.2,0.1 0.2,0.1 0.2,0 m 0,0 61.8,0 m 0,0 0.2,0 0.2,-0.1 0.2,-0.1 0.2,-0.2 0.1,-0.1 0.2,-0.2 0,-0.2 0,-0.3 m 0,0 0,-2.6 m 0,0 0.3,0 m 0,0 0,-3 m -4.5,0 0,4.3 m 0,0 -1.7,0 m 0,0 0,1.5 m 0,0 4.1,0 m 0,0 0.8,-0.9 m 0,0 0,-1.9 m 0,0 0.2,0 m 0,0 0,2.4 m -0.6,0.5 0.1,0 0.1,0 0.1,-0.1 0.1,0 0.1,-0.1 0,-0.1 0.1,-0.1 0,-0.1 m -0.6,0.5 -61.2,0 m -0.6,-0.5 0,0.1 0.1,0.1 0,0.1 0.1,0.1 0.1,0 0.1,0.1 0.1,0 0.1,0 m -0.6,-0.5 0,-2.4 m 0,0 0.2,0 m 0,0 0,1.9 m 0,0 0.8,0.9 m 0,0 0.3,0 M 147,8.9 147,5.3 M 89.7,4.6 90.3,5.1 m -0.6,5.3 0.6,0 m 0,0 0,-5.3 M 147,6 146.1,6 m 0.9,-0.9 -0.9,0 m 0.9,0.2 0,-0.1 0,-0.1 m -0.9,0 0,0.1 0,0.1 0,0.1 0,0.1 0,0.2 0,0.1 0,0.2 m -3.6,-0.9 -52.2,0 m 52.2,0 0,-0.5 m 4.5,0.5 0,-0.5 m -0.9,0 0,0.5 m 0.9,3.7 -0.9,0 m 0,-2.8 0,2.8 m -3.6,-3.1 -52.2,0 m 52.2,0 0,-0.6 M 88.4,3.2 88.4,3 m -0.8,-0.4 0,0 0,0.1 0,0.1 0,0.1 0,0.1 0,0.2 m 52.9,5.5 -1.7,0 m 1.7,0 0,-3 m -1.7,3 0,-3 m -4.6,3 -1.7,0 m 0,0 0,-3 m 1.7,3 0,-3 m -12.4,3 -1.7,0 m 1.7,0 0,-3 m -1.7,3 0,-3 m 7.9,3 -1.7,0 m 1.7,0 0,-3 m -1.7,3 0,-3 m -23.2,3 -1.7,0 m 0,0 0,-3 m 1.7,3 0,-3 m 6.2,3 -1.7,0 m 0,0 0,-3 m 1.7,3 0,-3 m 6.2,3 -1.7,0 m 1.7,0 0,-3 m -1.7,3 0,-3 m -17,3 -1.7,0 m 0,0 0,-3 m 1.7,3 0,-3 m 51.7,4.8 -2.2,0 m 2.2,0 0,0 m -2.2,0 0,0 m 2.2,0 0,-0.1 m -2.2,0.1 0,-0.1 m -5.8,-1 0,0 0,-0.1 0,-0.1 0,-0.2 0,-0.3 m -1.7,0.7 0,0 0,-0.1 0,-0.1 0,-0.2 0,-0.3 m -10.8,0.7 0,0 0,-0.1 0,-0.1 0,-0.2 0,-0.3 m -1.7,0.7 0,0 0,-0.1 0,-0.1 0,-0.2 0,-0.3 m 6.2,0.7 0,0 0,-0.1 0,-0.1 0,-0.2 0,-0.3 m 1.7,0.7 0,0 0,-0.1 0,-0.1 0,-0.2 0,-0.3 m -18.7,0.7 0,0 0,-0.1 0,-0.1 0,-0.2 0,-0.3 m -1.7,0.7 0,0 0,-0.1 0,-0.1 0,-0.2 0,-0.3 m -6.2,0.7 0,0 0,-0.1 0,-0.1 0,-0.2 0,-0.3 m 1.7,0.7 0,0 0,-0.1 0,-0.1 0,-0.2 0,-0.3 m 12.5,0.7 0,0 0,-0.1 0,-0.1 0,-0.2 0,-0.3 m -1.7,0.7 0,0 0,-0.1 0,-0.1 0,-0.2 0,-0.3 m -18.7,0.7 0,0 0,-0.1 0,-0.1 0,-0.2 0,-0.3 m 1.7,0.7 0,0 0,-0.1 0,-0.1 0,-0.2 0,-0.3 m -8,0.7 0,0 0,-0.1 0,-0.1 0,-0.2 0,-0.3 m 1.7,0.7 0,0 0,-0.1 0,-0.1 0,-0.2 0,-0.3 m 49.3,0.1 0,0.1 m -2.4,1.1 2,0 m -2,0 0,-4.6 m 0,0 2.4,0 m -3.1,4.6 0,0 0.3,0 0.4,0 m -0.7,-4.6 0,0 0.3,0 0.4,0 M 140,10 99.2,10 m 0,0 0,0.1 0,0.1 0,0.1 0,0.1 0,0.1 m 40.8,0 0,0 0,-0.1 0,-0.1 0,-0.1 0,-0.1 0,-0.1 m -40.2,-2.6 1.6,0 m 1.7,0 4.5,0 m 1.7,0 4.5,0 m 1.7,0 4.6,0 m 1.7,0 4.5,0 m 1.7,0 4.5,0 m 1.7,0 4.6,0 M 99.2,8 l 0,-0.1 0,-0.1 0.1,-0.1 0.1,-0.1 0.1,-0.1 0.2,-0.1 0.1,0 m -0.6,2.6 0,-2 M 140,9.4 140,10 M 37.9,-0.6 l 0,0.8 m -1.7,-0.8 0,0.8 m 1.7,-0.8 -1.7,0 m 1.7,0.8 0,-0.8 m -1.7,-0.3 0,0.3 m 0,-0.3 -0.1,-0.7 m 1.7,0 0.1,0.7 m 0,0 -0.1,-0.6 0,-0.1 m 0.6,1 -0.5,0.1 m 5.2,-0.1 -4.7,0 m 27.8,0 -0.1,0 -0.4,0 -0.5,0 -0.1,0 m -20.3,0 -0.1,0 -0.4,0 -0.5,0 -0.7,0 m 2.1,0 -0.1,0 -0.3,0 m 9.1,0 -0.7,0 -0.5,0 -0.4,0 -0.1,0 m 9.4,0 -7.7,0 m 21.9,0 0,0 -0.6,0 -0.4,0 -0.1,0 m 12.3,0 -7.7,0 m 8.1,0 -0.4,0 m -42.2,0 0,0.8 m 29.9,0 0,-0.8 m -22.5,0.8 0,-0.8 M 52,0.2 52,-1.6 m -6.8,0 0,1.8 m 21.9,-1.8 0,1.8 m 6.8,0 0,-1.8 m -8.8,1.8 0,-1.8 m -3.5,1.8 0,-1.8 m 17.7,1.8 0,-1.8 m -3.5,1.8 0,-1.8 m -22.1,50 33.5,0 m 0,-3.9 -33.5,0 m 0,3.9 -0.7,-0.1 -0.7,-0.5 -0.4,-0.6 -0.2,-0.8 0.2,-0.7 0.4,-0.7 0.7,-0.4 0.7,-0.1 m 33.5,-0.9 0,0 0,0.1 0,0.1 0,0.1 0,0.1 0,0.1 0,0.2 0,0.2 m -33.5,-0.9 33.5,0 m -33.5,0.9 0,-0.2 0,-0.2 0,-0.1 0,-0.1 0,-0.1 0,-0.1 0,-0.1 m 33.5,4.8 0,0.2 0,0.2 0,0.1 0,0.1 0,0.1 0,0.1 0,0.1 m 0,0 0.9,-0.2 m 0,-5.3 -0.9,-0.2 m 0,-22.7 0,0 0,0.1 0,0.1 0,0.1 0,0.1 0,0.2 0,0.1 0,0.2 m -33.5,-0.9 33.5,0 m -33.5,0.9 0,-0.2 0,-0.1 0,-0.2 0,-0.1 0,-0.1 0,-0.1 0,-0.1 m 33.5,0.9 -33.5,0 m 0,3.9 33.5,0 m -33.5,0 -0.7,-0.1 -0.7,-0.4 -0.4,-0.7 -0.2,-0.7 0.2,-0.8 0.4,-0.6 0.7,-0.5 0.7,-0.1 m 33.5,3.9 0,0.2 0,0.2 0,0.1 0,0.2 0,0.1 0,0.1 m 0,0 0.9,-0.2 m 0,-5.3 -0.9,-0.2 m -33.5,28.4 0,0 0,-0.1 0,-0.1 0,-0.1 0,-0.1 0,-0.1 0,-0.2 0,-0.2 m 33.5,0.9 -33.5,0 m 0,-22.7 0,0 0,-0.1 0,-0.1 0,-0.2 0,-0.1 0,-0.2 0,-0.2 m 33.5,0.9 -33.5,0 m 0,17 -1.1,0.2 -0.9,0.6 -0.6,1 -0.2,1 0.2,1.1 0.6,0.9 0.9,0.7 1.1,0.2 m 0,-28.4 -1.1,0.2 -0.9,0.7 -0.6,0.9 -0.2,1.1 0.2,1 0.6,1 0.9,0.6 1.1,0.2 m 33.5,23.5 0,-0.1 0,-0.2 0,-0.1 0,-0.2 0,-0.1 0,-0.1 m 0,-5.7 0,0 0,-0.1 0,-0.1 0,-0.2 0,-0.1 0,-0.2 0,-0.1 m -33.5,0 33.5,0 m -33.5,0 0,0.1 0,0.2 0,0.1 0,0.2 0,0.1 0,0.1 m 33.5,-16.1 0,-0.2 0,-0.2 0,-0.1 0,-0.2 0,-0.1 0,-0.1 m 0,-5.7 0,0 0,-0.1 0,-0.1 0,-0.1 0,-0.2 0,-0.2 0,-0.1 m -33.5,0 33.5,0 m -33.5,0 0,0.1 0,0.2 0,0.2 0,0.1 0,0.1 0,0.1 m 0,6.6 -1.4,-0.3 -1.2,-0.8 -0.8,-1.2 -0.3,-1.4 0.3,-1.4 0.8,-1.2 1.2,-0.8 1.4,-0.3 m 0,6.5 0,0 0,0.1 0,0.1 0,0.2 0,0.1 0,0.2 0,0.2 m 33.5,0 -33.5,0 m 0,22.6 L 52.3,49.8 51.1,49 50.3,47.9 50,46.4 50.3,45 51.1,43.8 52.3,43 53.7,42.8 m 0,6.5 0,0 0,0.1 0,0.1 0,0.2 0,0.1 0,0.2 0,0.1 m 33.5,0 -33.5,0 M 87.6,0.2 38.4,0.2 m -2.2,0 0.1,0 0.5,0 0.8,0 0.8,0 m -2.2,0 0,54.3 m 68.6,-40.8 0,-1 m 14.2,-7 0,1.7 m -12.7,5.3 1.3,-1.3 m -1.3,1.3 0,-1.3 m 0,-4 0,-1.7 m 14.4,7 -1.2,-1.3 m 1.2,1.3 -14.4,0 m 14.4,-1.3 0,1.3 m -14.4,0 -1.2,-1.3 m -13.2,1.3 1.3,-1.3 m 13.1,1.3 -14.4,0 m 1.7,-7 0,4.8 m -1.7,2.2 0,-1.3 m 0,-0.9 0,-4.8 m 12.7,0 0,1.7 m 1.7,-1.7 0,1.7 m 0,4 0,1.3 m 9.1,0 0,1 m -3.7,0 0,-1 m -14.4,1 0,-1 m 3.7,0 0,1 M 34.1,4 l 0,50.5 m -118.7,-16.8 0,0 0.3,-2.7 -0.3,-2.6 -0.1,-0.4 m 48.5,-33.6 -0.8,0 M 26.7,54.5 26.7,4 m -138.5,-2 0,4.4 m 0,13 0,4.4 m 0,22 0,4.5 m 0,12.9 0,4.5 M 39.7,-1.6 38.6,-1.5 37.8,-1.3 M 36,-0.2 35.7,0 35,0.9 l -0.5,1 -0.3,1 -0.1,1.1 m 73.1,9.7 0,-1 M 26.7,4 26.6,2.9 26.3,1.9 25.7,0.9 25,0 24.5,-0.5 M 22.8,-1.4 22.1,-1.5 21,-1.6 m -129.1,-18.5 -0.8,1.2 -1.6,3.5 -1,3.7 -0.3,3.8 m 0,85.8 0.3,3.8 1,3.8 1.6,3.5 2.3,3.1 2.7,2.7 3.1,2.3 3.5,1.6 3.8,1 3.8,0.3 m 177.8,-83.5 0,32.3 m 106.2,29.1 -0.3,3.8 -1,3.8 -1.6,3.5 -2.2,3.1 -2.8,2.7 -3.1,2.3 -3.5,1.6 -3.7,1 -3.9,0.3 m -20,-86.3 -61.2,0 m -202.4,-21.6 0.3,-3.8 1,-3.7 1.6,-3.5 2.3,-3.2 2.7,-2.7 3.1,-2.2 3.5,-1.6 3.8,-1 3.8,-0.4 M 155,7.4 l 0,3.4 m -2.8,-6.2 0.6,0.1 0.5,0.1 0.5,0.3 0.4,0.3 0.4,0.5 0.2,0.5 0.2,0.5 0,0.5 m 17.2,92.6 -261.5,0 M 88.1,1.8 l 0.1,0.5 0.2,0.6 0.2,0.4 0.4,0.5 0.4,0.3 0.5,0.3 0.5,0.1 0.6,0.1 m 64,6.2 0,0.6 -0.2,0.5 -0.2,0.5 -0.4,0.4 -0.4,0.4 -0.5,0.3 -0.5,0.1 -0.6,0.1 m -66.9,-15.3 0.6,0 0.5,0.2 0.5,0.2 0.4,0.4 0.4,0.4 0.2,0.5 0.2,0.5 0,0.6 m -87.3,-2.8 84.5,0 m 5.7,15.3 -0.6,0 -0.5,0.2 -0.5,0.3 -0.4,0.3 -0.4,0.4 -0.2,0.5 -0.2,0.6 -0.1,0.5 M -4.8,48.8 -4.8,4 m 5.6,50.5 -1.1,-0.1 -1,-0.3 -1,-0.6 -0.9,-0.7 -0.7,-0.8 -0.5,-1 -0.3,-1.1 -0.1,-1.1 m -11.9,-47 -0.4,3.5 -0.9,3.4 -1.5,3.2 -2.1,2.9 -2.6,2.5 -3,1.9 -3.2,1.4 -3.5,0.8 -3.6,0.2 -3.5,-0.5 -3.4,-1.1 -3.1,-1.7 -2.8,-2.2 -2.3,-2.7 -1.9,-3 -1.2,-3.4 -0.6,-3.5 0,-3.5 0.6,-3.5 1.2,-3.3 1.9,-3.1 2.3,-2.7 2.8,-2.2 3.1,-1.7 3.4,-1.1 3.5,-0.5 3.6,0.2 3.5,0.8 3.2,1.4 3,2 2.6,2.4 2.1,2.9 1.5,3.2 0.9,3.4 0.4,3.6 m 205.6,33.2 -0.3,2.7 -0.9,2.5 -1.5,2.2 -2,1.7 -2.4,1.3 -2.6,0.6 -2.6,0 -2.6,-0.6 -2.4,-1.3 -2,-1.7 -1.5,-2.2 -0.9,-2.5 -0.4,-2.7 0.4,-2.6 0.9,-2.5 1.5,-2.2 2,-1.8 2.4,-1.2 2.6,-0.7 2.6,0 2.6,0.7 2.4,1.2 2,1.8 1.5,2.2 0.9,2.5 0.3,2.6 M 91,4.6 l 61.2,0 m 42.1,-12.5 0,85.8 M 88.1,1.2 l 0,0.6 M -89.3,-30 172.2,-30 M 88.1,48.8 88,49.9 87.7,51 l -0.5,1 -0.7,0.8 -0.9,0.7 -1,0.6 -1,0.3 -1.1,0.1 m -193.9,23.4 0,-85.8 m 22.1,107.9 -3.8,-0.3 -3.8,-1 -3.5,-1.6 -3.1,-2.3 -2.7,-2.7 -2.3,-3.1 -1.6,-3.5 -1,-3.8 -0.3,-3.8 M 82.5,54.5 0.8,54.5 m 171.4,-84.5 3.9,0.4 3.7,1 3.5,1.6 3.1,2.2 2.8,2.7 2.2,3.2 1.6,3.5 1,3.7 0.3,3.8 M -83.9,35 l -0.3,2.7 -1,2.5 -1.5,2.2 -2,1.7 -2.4,1.3 -2.5,0.6 -2.7,0 -2.6,-0.6 -2.4,-1.3 -2,-1.7 -1.5,-2.2 -0.9,-2.5 -0.3,-2.7 0.3,-2.6 0.9,-2.5 1.5,-2.2 2,-1.8 2.4,-1.2 2.6,-0.7 2.7,0 2.5,0.7 2.4,1.2 2,1.8 1.5,2.2 1,2.5 0.3,2.6 m 79.1,-31 0.1,-1.1 0.3,-1 0.5,-1 0.7,-0.9 0.9,-0.7 1,-0.5 1,-0.3 1.1,-0.1 m 170.9,-28.8 3.9,0.4 3.8,1 3.6,1.7 3.2,2.2 2.8,2.8 1.6,2.2 m -279.7,-10.3 260.8,0 m -283.5,22.7 0.3,-3.9 1.1,-3.9 1.6,-3.5 2.3,-3.3 2.8,-2.8 3.2,-2.2 3.6,-1.7 3.8,-1 4,-0.4 m -22.7,22.7 0,9.7 m 0.4,3.9 -0.4,0.5 m 0,13 0.4,0.5 m -0.4,25.9 0,-22 m 0,22 0.4,0.6 m -0.4,16.8 0,-12.9 m 0,12.9 0.4,0.6 m 0,3.3 -0.4,0.6 m 0,0 0,9.6 m 10.3,19 -2.2,-1.6 -2.8,-2.8 -2.3,-3.2 -1.6,-3.6 -1.1,-3.8 -0.3,-4 m 23.6,-46.7 0.2,0.3 0.3,0.3 0.2,0.2 0.3,0.2 0.4,0.2 0.3,0.1 0.4,0.1 0.3,0 m 0.8,0 -0.8,0 m 0.8,0 0.6,-0.1 m 251.7,0.1 0.2,0 m 0.8,0 -0.8,0 m 0.8,0 0.3,0 0.4,-0.1 0.3,-0.1 0.4,-0.2 0.3,-0.2 0.2,-0.2 0.3,-0.3 0.2,-0.3 m 0,8.4 1.5,1.8 1.9,1.3 2.2,0.7 2.3,0 2.3,-0.6 1.9,-1.2 1.6,-1.8 0.9,-2.1 0.4,-2.3 -0.4,-2.3 -0.9,-2.1 -1.6,-1.7 -1.9,-1.3 -2.3,-0.6 -2.3,0 -2.2,0.7 -1.9,1.3 -1.5,1.8 m 0,8.4 -0.2,-0.3 -0.3,-0.2 -0.2,-0.3 -0.3,-0.2 -0.4,-0.1 -0.3,-0.2 -0.4,0 -0.3,0 m -0.8,0 0.8,0 m -0.8,0 -0.3,0 m -251.5,0 -0.7,0 m -0.8,0 0.8,0 m -0.8,0 -0.3,0 -0.4,0 -0.3,0.2 -0.4,0.1 -0.3,0.2 -0.2,0.3 -0.3,0.2 -0.2,0.3 m 0,-8.4 -1.5,-1.8 -1.9,-1.3 -2.2,-0.7 -2.3,0 -2.3,0.6 -1.9,1.3 -1.6,1.7 -0.9,2.1 -0.4,2.3 0.4,2.3 0.9,2.1 1.6,1.8 1.9,1.2 2.3,0.6 2.3,0 2.2,-0.7 1.9,-1.3 1.5,-1.8 m -23.2,-15.7 -0.4,0.5 m 0.4,25.9 -0.4,0.6 m 0,-30.9 0,-13 m 0,-4.4 0.4,0.5 m 132.8,52 0,-21.4 M 20.8,2.5 20.8,0 m 2.4,20.2 0,-1.3 m 0,-6.8 0,-1.3 m 5.9,39.9 0,3.8 m -4.5,0 0,-5.8 m -2.1,-15.6 0,-1.1 m 20.6,-31.8 0,-0.8 M 87,0.2 87,-0.6 m -33.1,0 0,0.8 m 33.3,44.3 0.7,0.1 0.2,0.1 m 0,3.4 -0.2,0.2 -0.7,0.1 m 0,-26.6 0.7,0.1 0.2,0.2 m 0,3.4 -0.2,0.1 -0.7,0.1 m 0,17.1 0.9,0.1 m -0.2,7.1 -0.7,0.1 m 0,-30 0.9,0.2 m 0,7 -0.9,0.2 m 15.3,-13.8 0,-1 M 38.4,0.2 l 0,54.3"
         style="fill:none;stroke:#000000;stroke-width:0.70899999;stroke-linecap:round;stroke-linejoin:round;stroke-miterlimit:10;stroke-opacity:1;stroke-dasharray:none"
         id="path3132"
         inkscape:connector-curvature="0" /></g><g
       id="g3134"
       transform="translate(801.5164,406.37891)"><path
         d="m 0,0 0,0.6 m -82.3,0 0,-0.6 m 71.7,49.6 0,-11.4 m -61.1,0 0,11.4 M 4.4,4.1 l 0,0.2 0,0.1 -0.1,0.2 0,0.1 L 4.2,4.8 4.1,4.9 4,5 3.9,5.1 m -90.1,0 -0.1,-0.1 -0.1,-0.1 -0.1,-0.1 -0.1,-0.1 0,-0.1 -0.1,-0.2 0,-0.1 0,-0.2 m -80.3,0.6 0,0 m 68.6,7.7 0.5,0.3 0.3,0.4 0.2,0.5 0.1,0.5 -0.1,0.5 -0.2,0.5 -0.3,0.4 -0.5,0.3 m 0,33.4 0.5,0.3 0.3,0.4 0.2,0.5 0.1,0.5 -0.1,0.6 -0.2,0.5 -0.3,0.4 -0.5,0.2 m -68.6,-36.8 -0.2,-0.1 -0.3,-0.2 -0.2,-0.2 -0.1,-0.2 -0.2,-0.2 -0.1,-0.3 0,-0.2 0,-0.3 m 0,0 0,-0.3 0,-0.2 0.1,-0.3 0.2,-0.2 0.1,-0.2 0.2,-0.2 0.3,-0.2 0.2,-0.1 m 0,40.2 -0.2,-0.1 -0.3,-0.1 -0.2,-0.2 -0.1,-0.2 -0.2,-0.3 -0.1,-0.2 0,-0.3 0,-0.3 m 0,0 0,-0.2 0,-0.3 0.1,-0.2 0.2,-0.3 0.1,-0.2 0.2,-0.2 0.3,-0.1 0.2,-0.2 m 142.2,-48.6 0,0 -0.8,-0.2 -0.9,0.2 m -0.7,0 0.6,-0.4 L -26,0 m 0.7,0 0.6,0.2 0.1,0 m -4,0.4 0.4,-0.6 m 28.3,0.4 1.3,0 m 0,0 0,0.2 m -51.9,-0.2 3.6,0 m 0,0 0,0.2 m 14.6,-0.6 -0.1,0.5 0,0.1 M 1.4,0 1.4,0.4 M 0.1,0.6 0.1,0 m -85.1,33.4 0.5,0 m 86.7,0 0.5,0 m -21.7,28 -2.6,0 m 2.6,2 0,-0.3 0,-0.3 0,-0.3 0,-0.3 0,-0.2 0,-0.2 0,-0.2 0,-0.2 m -2.6,2 0,-0.3 0,-0.3 0,-0.3 0,-0.3 0,-0.2 0,-0.2 0,-0.2 0,-0.2 m -11.9,0 2.6,0 m 0,0 0,0.2 0,0.2 0,0.2 0,0.2 0,0.3 0,0.3 0,0.3 0,0.3 m -2.6,0 0,-0.3 0,-0.3 0,-0.3 0,-0.3 0,-0.2 0,-0.2 0,-0.2 0,-0.2 m 6,0 2.5,0 m -2.5,2 0,-0.3 0,-0.3 0,-0.3 0,-0.3 0,-0.2 0,-0.2 0,-0.2 0,-0.2 m 2.5,0 0,0.2 0,0.2 0,0.2 0,0.2 0,0.3 0,0.3 0,0.3 0,0.3 m -17.8,-2 -2.6,0 m 0,2 0,-0.3 0,-0.3 0,-0.3 0,-0.3 0,-0.2 0,-0.2 0,-0.2 0,-0.2 m 2.6,2 0,-0.3 0,-0.3 0,-0.3 0,-0.3 0,-0.2 0,-0.2 0,-0.2 0,-0.2 m 3.4,0 2.5,0 m 0,0 0,0.2 0,0.2 0,0.2 0,0.2 0,0.3 0,0.3 0,0.3 0,0.3 m -2.5,0 0,-0.3 0,-0.3 0,-0.3 0,-0.3 0,-0.2 0,-0.2 0,-0.2 0,-0.2 m -9.4,0 -2.6,0 m 0,2 0,-0.3 0,-0.3 0,-0.3 0,-0.3 0,-0.2 0,-0.2 0,-0.2 0,-0.2 m 2.6,2 0,-0.3 0,-0.3 0,-0.3 0,-0.3 0,-0.2 0,-0.2 0,-0.2 0,-0.2 m -6,0 -2.5,0 m 2.5,2 0,-0.3 0,-0.3 0,-0.3 0,-0.3 0,-0.2 0,-0.2 0,-0.2 0,-0.2 m -2.5,2 0,-0.3 0,-0.3 0,-0.3 0,-0.3 0,-0.2 0,-0.2 0,-0.2 0,-0.2 m -6,0 2.6,0 m -2.6,2 0,-0.3 0,-0.3 0,-0.3 0,-0.3 0,-0.2 0,-0.2 0,-0.2 0,-0.2 m 2.6,0 0,0.2 0,0.2 0,0.2 0,0.2 0,0.3 0,0.3 0,0.3 0,0.3 m 35.7,-18.2 -2.5,0 m 0,16.2 0,-16.2 m 2.5,16.2 0,-16.2 m -5.9,0 -2.6,0 m 2.6,16.2 0,-16.2 m -2.6,16.2 0,-16.2 m -3.4,0 -2.5,0 m 2.5,16.2 0,-16.2 m -2.5,16.2 0,-16.2 m -23.9,0 2.6,0 m -2.6,16.2 0,-16.2 m 2.6,16.2 0,-16.2 m 39.1,0 2.6,0 m 0,0 0,16.2 m -2.6,-16.2 0,16.2 m -23.8,-16.2 2.6,0 m -2.6,0 0,16.2 m 2.6,-16.2 0,16.2 m -8.6,-16.2 2.6,0 m -2.6,0 0,16.2 m 2.6,-16.2 0,16.2 m -8.5,-16.2 2.5,0 m 0,0 0,16.2 m -2.5,-16.2 0,16.2 m 55.5,-54.1 0,0 -0.1,0 -0.1,0 -0.1,0 -0.1,0 -0.1,0 -0.1,0 m 0,0 0,12.2 m 0.6,0 0,0 -0.1,0 -0.1,0 -0.1,0 -0.1,0 -0.1,0 -0.1,0 m 0,-12.2 -16.7,0 m 0,12.2 0,-12.2 m 16.7,12.2 -16.7,0 m 0,0.6 0,0 0,-0.1 0,-0.1 0,-0.1 0,-0.1 0,-0.1 0,-0.1 m 16.7,0 0,0.1 0,0.1 0,0.1 0,0.1 0,0.1 0,0.1 m -16.7,-12.8 -0.1,0 -0.1,0 -0.1,0 -0.1,0 -0.1,0 -0.1,0 m 0.6,12.2 -0.1,0 -0.1,0 -0.1,0 -0.1,0 -0.1,0 -0.1,0 m 0.6,-12.2 0,-0.1 0,-0.2 0,-0.1 0,-0.1 0,-0.1 m 16.7,0 0,0 0,0.1 0,0.1 0,0.1 0,0.2 0,0.1 m 0,12.8 0.1,0 0.1,-0.1 0.1,0 0.1,-0.1 0.1,-0.1 0,-0.1 0.1,-0.1 0,-0.1 m -17.9,0 0,0.1 0.1,0.1 0,0.1 0.1,0.1 0.1,0.1 0.1,0 0.1,0.1 0.1,0 M -1.8,7.3 -1.8,7.2 -1.9,7 l 0,-0.1 -0.1,0 -0.1,-0.1 -0.1,-0.1 -0.1,0 -0.1,0 m -16.7,0 -0.1,0 -0.1,0 -0.1,0.1 -0.1,0.1 -0.1,0 0,0.1 -0.1,0.2 0,0.1 m 17.6,-0.5 0,-0.1 m 0,-6.1 0,-0.6 M -5,0 -5,0.6 m -14.4,6.2 0,-0.1 m 0,-6.1 0,-0.6 m 2.9,0.6 0,-0.6 m -46.1,7.3 0,0 -0.1,0 -0.1,0 -0.1,0 -0.1,0 -0.1,0 -0.1,0 m 0,0 0,12.2 m 0.6,0 0,0 -0.1,0 -0.1,0 -0.1,0 -0.1,0 -0.1,0 -0.1,0 m 0,-12.2 -16.7,0 m 0,12.2 0,-12.2 m 16.7,12.2 -16.7,0 m 0,0.6 0,0 0,-0.1 0,-0.1 0,-0.1 0,-0.1 0,-0.1 0,-0.1 m 16.7,0 0,0.1 0,0.1 0,0.1 0,0.1 0,0.1 0,0.1 m -16.7,-12.8 -0.1,0 -0.1,0 -0.1,0 -0.1,0 -0.1,0 -0.1,0 m 0.6,12.2 -0.1,0 -0.1,0 -0.1,0 -0.1,0 -0.1,0 -0.1,0 m 0.6,-12.2 0,-0.1 0,-0.2 0,-0.1 0,-0.1 0,-0.1 m 16.7,0 0,0 0,0.1 0,0.1 0,0.1 0,0.2 0,0.1 m 0,12.8 0.1,0 0.1,-0.1 0.1,0 0.1,-0.1 0.1,-0.1 0.1,-0.1 0,-0.1 0,-0.1 m -17.9,0 0,0.1 0.1,0.1 0,0.1 0.1,0.1 0.1,0.1 0.1,0 0.1,0.1 0.1,0 m 17.3,-12.8 0,-0.1 0,-0.2 -0.1,-0.1 -0.1,0 -0.1,-0.1 -0.1,-0.1 -0.1,0 -0.1,0 m -16.7,0 -0.1,0 -0.1,0 -0.1,0.1 -0.1,0.1 -0.1,0 0,0.1 -0.1,0.2 0,0.1 m 14.7,-7.3 0,0.6 m 2.9,6.2 0,-0.1 m 0,-6.1 0,-0.6 m -17.3,6.8 0,-0.1 m 0,-6.1 0,-0.6 m 2.9,0.6 0,-0.6 m 55.6,0.6 0,-0.6 m -2.9,0.6 0,-0.6 m -11.5,0.6 0,-0.6 M -39,0.6 -39,0 m -11.5,0.6 0,-0.6 m -2.9,0 0,0.6 m 24.5,0 0,-0.6 m -2.9,0.6 0,-0.6 m -11.5,0.6 0,-0.6 m -2.9,0.6 0,-0.6 m -14.4,0.6 0,-0.6 m 2.9,0.6 0,-0.6 M -25,18.9 -25,6.7 m 2.3,12.2 -2.3,0 m 2.3,3.4 0,-3.4 m 18.7,3.4 -18.7,0 m -36.9,0 -18.7,0 m 18.7,-3.4 0,3.4 m 2.3,-3.4 -2.3,0 m 2.3,-12.2 0,12.2 m -5.3,1.2 0,-13.4 m -15.7,13.4 15.7,0 m 58.6,0 -15.7,0 m 0,0 0,-13.4 m 22.4,6 0,4.9 m 0,11.3 0,0 -0.1,0 -0.1,0 m -27.5,-10 -3.4,0 M -25,2 -25.3,1.7 m -0.5,0 0.5,0 m -3.1,17.2 0,-17.2 M -57.3,2 -57,1.7 m 3.1,17.2 -3.4,0 m 3.4,-17.2 0,17.2 M -57,1.7 l 0.5,0 m -3.1,24 -15.3,0 m -3.4,-3.4 3.4,3.4 m 15.3,-3.4 0,3.4 m -25.4,-8.1 0,-4.9 m 0.3,16.2 -0.1,0 -0.1,0 -0.1,0 m 0,-26.9 0,0 0.1,0 0.1,0 0.1,0 m 87.4,0 0,-0.1 0,-0.1 -0.1,0 0,-0.1 -0.1,0 m -87.2,0 -0.1,0 -0.1,0 0,0.1 -0.1,0 0,0.1 0,0.1 m 77.6,23.7 -15.3,0 M -4,22.3 -7.4,25.7 m -15.3,0 0,-3.4 M -7.4,36 -7.4,25.7 M -4,36 -7.4,36 m -17.9,-34.3 0.3,0 m 13.5,75.6 -4.9,0 m -11.3,0 -4.8,0 m -17.3,0 -4.8,0 m -11.3,0 -4.9,0 m 63.4,-13.9 0,-11.6 m 3.4,15 -3.4,-3.4 m 0,-11.6 3.4,0 m -70.9,11.6 67.5,0 m -67.5,0 -3.4,3.4 m 21,-65.1 0.3,0 m -21.3,34.3 3.4,0 m 0,-10.3 0,10.3 m 0,15.8 0,11.6 m -3.4,-11.6 3.4,0 m 46.5,-47.3 -25.5,0 M -6,0.6 -6.3,0 m -4.5,0 -0.3,0.6 m -60,0 -0.4,-0.6 m -4.5,0 -0.3,0.6 m 1.4,51.2 0,-2.2 m 0,-11.4 0,-2.2 m 67.5,22.9 -11.6,0 m -2.6,0 -3.4,0 m -2.5,0 -3.4,0 m -2.6,0 -3.4,0 m -2.5,0 -3.4,0 m -2.6,0 -3.4,0 m -2.6,0 -3.4,0 m -2.5,0 -3.4,0 m -2.6,0 -11.6,0 M -7.4,36 l 0,2.2 m 0,11.4 0,2.2 M -4,20.1 -4,37.7 m -0.6,0.5 0.1,0 0.1,0 0.1,-0.1 0.1,0 0.1,-0.1 0,-0.1 0.1,-0.1 0,-0.1 m -0.6,0.5 -1.2,0 m 0,11.4 0,-11.4 m 0,11.4 1.2,0 m 0.6,0.5 0,-0.1 -0.1,-0.1 0,-0.1 -0.1,-0.1 -0.1,0 -0.1,-0.1 -0.1,0 -0.1,0 m 0.6,0.5 0,16.7 m 0,0 -74.3,0 m 0,0 0,-16.7 m 0.6,-0.5 -0.1,0 -0.1,0 -0.1,0.1 -0.1,0 -0.1,0.1 0,0.1 -0.1,0.1 0,0.1 m 0.6,-0.5 1.2,0 m 0,-11.4 0,11.4 m 0,-11.4 -1.2,0 m -0.6,-0.5 0,0.1 0.1,0.1 0,0.1 0.1,0.1 0.1,0 0.1,0.1 0.1,0 0.1,0 m -0.6,-0.5 0,-17.6 m 0,0 -2.2,0 m 0,0 0,-13.4 m 0,0 23.2,0 m 0,0 0,-4.7 m -27.4,0 27.4,0 m -27.4,10.7 0,-10.7 m 0.2,11.2 0,-0.1 0,-0.1 0,-0.1 -0.1,-0.1 -0.1,-0.1 m 0.2,0.5 0,3.8 m 0,12.4 0,-12.4 m 0,12.4 0,3.9 m -0.2,0.5 0,-0.1 0.1,-0.1 0.1,0 0,-0.1 0,-0.1 0,-0.1 m -0.2,12 0,-11.5 m 0.2,12 0,-0.1 0,-0.1 0,-0.1 -0.1,-0.1 -0.1,-0.1 m 0.2,0.5 0,3.8 m 0,12.4 0,-12.4 m 0,12.4 0,3.9 m -0.2,0.5 0,-0.1 0.1,-0.1 0.1,0 0,-0.1 0,-0.1 0,-0.1 m -0.2,11.2 0,-10.7 m 0,10.7 13.9,0 m 0.5,-0.3 -0.1,0 -0.1,0 -0.1,0 -0.1,0.1 -0.1,0.1 0,0.1 m 0.5,-0.3 3.8,0 m 12.4,0 -12.4,0 m 12.4,0 3.9,0 m 0.5,0.3 -0.1,-0.1 -0.1,-0.1 0,-0.1 -0.1,0 -0.1,0 -0.1,0 m 0.5,0.3 17.1,0 m 0.5,-0.3 -0.1,0 -0.1,0 -0.1,0.1 -0.1,0.1 -0.1,0.1 m 0.5,-0.3 3.9,0 m 12.4,0 -12.4,0 m 12.4,0 3.8,0 m 0.5,0.3 0,-0.1 -0.1,-0.1 -0.1,-0.1 -0.1,0 -0.1,0 -0.1,0 m 0.5,0.3 14,0 m 0,-10.7 0,10.7 m -0.3,-11.2 0,0.1 0,0.1 0,0.1 0.1,0 0.1,0.1 0.1,0.1 M 2.2,65.9 2.2,62 m 0,-12.4 0,12.4 m 0,-12.4 0,-3.8 m 0.3,-0.5 -0.1,0 -0.1,0.1 -0.1,0.1 0,0.1 0,0.1 0,0.1 m 0.3,-12 0,11.5 m -0.3,-12 0,0.1 0,0.1 0,0.1 0.1,0 0.1,0.1 0.1,0.1 m -0.3,-0.5 0,-3.9 m 0,-12.4 0,12.4 m 0,-12.4 0,-3.8 m 0.3,-0.5 -0.1,0 -0.1,0.1 -0.1,0.1 0,0.1 0,0.1 0,0.1 M 2.5,2 2.5,12.7 M -25,2 2.5,2 m -27.5,0 0,4.7 m 23.2,0 -23.2,0 m 23.2,13.4 0,-13.4 m -2.2,13.4 2.2,0 m 4,-3.1 0,0.2 0.1,0.1 0.1,0.1 0.2,0.1 0.2,0.1 m 0,11.3 -0.2,0 -0.2,0.1 -0.2,0.2 0,0.2 m 0.6,-0.5 1.2,-0.1 1,0 0.5,-0.1 m 0,-11 0,11 m 0,-11 -0.8,0 -1.1,-0.1 -0.8,0 m 0,43.9 -0.2,0 -0.2,0.1 -0.2,0.2 0,0.2 m 0.6,-0.5 1.2,-0.1 1,-0.1 0.5,0 m 0,-11 0,11 m 0,-11 -0.8,0 -1.1,-0.1 -0.8,0 m -0.6,-0.6 0,0.2 0.1,0.1 0.1,0.1 0.2,0.1 0.2,0.1 m -18.6,26.6 -0.2,0 -0.1,0.1 -0.1,0.1 -0.1,0.2 -0.1,0.2 m -11.3,0 0,-0.2 -0.1,-0.2 -0.2,-0.2 -0.2,0 m 0.7,3.3 -0.1,-0.8 0,-1.1 -0.1,-0.8 m 11.2,2.7 -11,0 m 11.1,-2.7 0,1.2 -0.1,1 0,0.5 M 3.9,2 3.9,12.7 M 2.5,2 2.7,2 3,2 3.2,2 3.5,2 3.6,2 3.8,2 3.9,2 m -1.2,10.6 -0.1,0 -0.1,0.1 m 1.4,0 -0.1,0 -0.2,0 -0.1,-0.1 -0.3,0 -0.2,0 -0.3,0 m 0,0 0,0.1 m -0.2,0.1 -0.1,0 -0.1,0.1 -0.1,0.1 0,0.1 0,0.1 0,0.1 m 0.3,-0.5 0,-0.1 0.1,0 0.1,0 m -68.5,67.4 0,-0.8 -0.1,-1.1 0,-0.8 m 11.1,2.7 -11,0 m 11.2,-2.7 -0.1,1.2 -0.1,1 0,0.5 m 0.7,-3.3 -0.1,0 -0.2,0.1 -0.1,0.1 -0.1,0.2 0,0.2 m -11.3,0 -0.1,-0.2 -0.1,-0.2 -0.1,-0.2 -0.2,0 -0.1,0 m 69.2,-31.6 0,0.1 m 0,-0.1 -0.1,0 -0.1,0.1 m 0,0.1 -0.1,0 -0.1,0.1 -0.1,0.1 0,0.1 0,0.1 0,0.1 m 0.3,-0.5 0,-0.1 0.1,0 0.1,0 m 1.2,0 -0.1,0 -0.2,0 -0.1,-0.1 -0.3,0 -0.2,0 -0.3,0 m 1.2,-11.5 0,11.6 m -1.2,-11.5 0.3,0 0.2,0 0.3,0 0.1,0 0.2,0 0.1,-0.1 m -1.4,0.1 0.1,0 0.1,0 m -87.8,-16.2 0.3,-0.1 0.1,-0.1 0.2,-0.1 0,-0.2 0,-0.1 m -0.6,0.6 -1.2,0 -1,0.1 -0.5,0 m 0,11 0,-11 m 0,11 0.8,0.1 1.1,0 0.8,0.1 m 0.6,0.5 0,-0.1 -0.1,-0.2 -0.1,-0.1 -0.2,-0.1 -0.2,0 m 0,21.3 0.3,-0.1 0.1,-0.1 0.2,-0.1 0,-0.2 0,-0.1 m -0.6,0.6 -1.2,0 -1,0.1 -0.5,0 m 0,11 0,-11 m 0,11 0.8,0.1 1.1,0 0.8,0.1 m 0.6,0.5 0,-0.1 -0.1,-0.2 -0.1,-0.1 -0.2,-0.1 -0.2,0 m 0.1,-27.7 0,-0.1 m 0,0.1 0.1,0 0.2,0 m 0,-0.1 0,-0.1 0.1,0 0.1,-0.1 0,-0.1 0,-0.1 0,-0.1 m -0.2,0.5 -0.1,0 -0.1,0 -0.1,0 m -1.2,0 0.1,0.1 0.2,0 0.2,0 0.2,0 0.2,0 0.3,0 m -1.2,11.5 0,-11.6 m 1.2,11.5 -0.3,0 -0.2,0 -0.2,0 -0.2,0.1 -0.2,0 -0.1,0 m 1.5,0 -0.2,-0.1 -0.1,0 m 0,21.2 0,-0.1 m 0,0.1 0.1,0 0.2,0 m 0,-0.1 0,-0.1 0.1,0 0.1,-0.1 0,-0.1 0,-0.1 0,-0.1 m -0.2,0.5 -0.1,0 -0.1,0 -0.1,0 m -1.2,10.8 0,-10.8 m 1.5,10.8 -0.3,0 -0.3,0 -0.2,0 -0.2,0 -0.2,0 -0.2,0 -0.1,0 m 0,-10.8 0.1,0.1 0.2,0 0.2,0 0.2,0 0.2,0 0.3,0 m 60,-65.8 27.5,0 m 0,0 0,0 0,0.1 0,0.1 0,0.2 0,0.2 0,0.2 0,0.3 0,0.3 m -27.5,0 0,-0.3 0,-0.3 0,-0.2 0,-0.2 0,-0.2 0,-0.1 0,-0.1 m 27.5,33.1 0,0 0.1,0 0.1,0 m -0.5,-0.5 0,0.1 0,0.1 0,0.1 0.1,0.1 0.1,0 0.1,0.1 m 0.2,0 0,0.1 m 1.2,43.3 -0.1,0 -0.2,0 -0.1,0 -0.3,0 -0.2,0 -0.3,0 -0.2,0 m 1.4,-10.8 0,10.8 m -1.2,-10.7 0.3,0 0.2,0 0.3,0 0.1,0 0.2,0 0.1,-0.1 m -1.4,0.1 0.1,0 0.1,0 m -0.2,-0.1 0,0 0.1,0 0.1,0 m -0.5,-0.5 0,0.1 0,0.1 0,0.1 0.1,0.1 0.1,0 0.1,0.1 m 0.2,0 0,0.1 m -9.9,-16.8 0,-11.4 m 1.4,11.4 -0.2,0 -0.3,0 -0.2,0 -0.2,0 -0.2,0 -0.1,0 -0.1,0 -0.1,0 m 0,-11.4 0.1,0 0.1,0 0.1,0 0.2,0 0.2,0 0.2,0 0.3,0 0.2,0 m -5.6,39.1 -0.1,0 m 0.1,0 0,-0.1 -0.1,-0.1 m -0.1,0 0,-0.1 -0.1,-0.1 -0.1,-0.1 -0.1,0 -0.1,0 m 0.5,0.5 0,0 0,-0.1 0,-0.1 -0.1,0 m 0.1,1.4 0,-0.1 0.1,-0.2 0,-0.1 0,-0.3 0,-0.2 0,-0.3 m -0.1,1.2 14,0 m 0,-1.4 0,0.2 0,0.3 0,0.2 0,0.3 0,0.1 0,0.2 0,0.1 m -87.2,-77.9 27.4,0 m -27.4,1.4 0,-0.3 0,-0.3 0,-0.2 0,-0.2 0,-0.2 0,-0.1 0,-0.1 m 27.4,0 0,0 0,0.1 0,0.1 0,0.2 0,0.2 0,0.2 0,0.3 0,0.3 m 24.8,75.1 0,0 0,0.1 0,0.1 m 0,-0.2 0.1,-0.1 0.1,-0.1 0,-0.1 0.1,0 0.1,0 0.1,0 m -0.6,0.3 0,0.1 0,0.1 m 0.1,0 -0.1,0 m -17.2,1.2 0.1,-0.1 0,-0.2 0,-0.1 0,-0.3 0,-0.2 0,-0.3 m -0.1,1.2 17.3,0 m -0.1,-1.2 0,0.3 0,0.2 0,0.3 0,0.1 0,0.2 0.1,0 0,0.1 m -17.2,-1.2 0,-0.1 0,-0.1 M -86.2,12.7 -86.2,2 m 1.2,10.6 -0.3,0 -0.2,0 -0.2,0 -0.2,0.1 -0.2,0 -0.1,0 m 1.5,0 -0.2,-0.1 -0.1,0 M -86.2,2 l 0.1,0 0.2,0 0.2,0 0.2,0 0.2,0 0.3,0 0.3,0 m 35,75.3 -0.1,0 m -0.5,-0.5 0.1,0 0.1,0 0.1,0.1 0.1,0.1 0.1,0.1 m 0,0.2 0,0 0,-0.1 0,-0.1 m -25.3,-38.9 0,11.4 m -1.4,-11.4 0.2,0 0.3,0 0.2,0 0.2,0 0.2,0 0.1,0 0.1,0 0.1,0 m 0,11.4 -0.1,0 -0.1,0 -0.1,0 -0.2,0 -0.2,0 -0.2,0 -0.3,0 -0.2,0 m -8.2,-36.8 -0.1,-0.1 -0.1,0 -0.1,0 m 0.5,0.6 0,-0.1 0,-0.1 0,-0.1 -0.1,-0.1 -0.1,-0.1 m -0.3,-0.1 0,-0.1 m 0.3,32.8 -0.1,-0.1 -0.1,0 -0.1,0 m 0.5,0.6 0,-0.1 0,-0.1 0,-0.1 -0.1,-0.1 -0.1,-0.1 m -0.3,-0.1 0,-0.1 m 14.3,31.9 -0.1,0 0,0.1 0,0.1 m 0.6,-0.5 -0.1,0 -0.1,0 -0.1,0 -0.1,0.1 -0.1,0.1 0,0.1 m -0.1,0 -0.1,0.1 0,0.1 m 0.1,0 -0.1,0 m -13.8,1.2 13.9,0 m -0.1,-1.2 0,0.3 0,0.2 0,0.3 0,0.1 0.1,0.2 0,0.1 m -13.9,0 0,-0.1 0,-0.2 0,-0.1 0,-0.3 0,-0.2 0,-0.3 0,-0.2 m 88.6,-10.8 0,-3 m -1.2,0 1.2,0 m -1.2,3 0,-3 m 1.2,-29.6 0,-3 m -1.2,0 1.2,0 m -1.2,3 0,-3 m -88.9,-18 0,3 m 1.2,0 -1.2,0 m 0,29.6 0,3 m 1.2,0 -1.2,0 m 1.2,-3 0,3 m 87.7,-32.6 1.2,0 m 0,0 0,-3 m -1.2,35.6 0,-3 m 0,3 1.2,0 m 0,0 0,-3 m -18.4,32 0,1.2 m 0,0 3,0 m -21,0 3,0 m 0,-1.2 0,1.2 m -23.3,-1.2 0,1.2 m 0,0 3,0 m -21,0 3,0 m 0,-1.2 0,1.2 M -85,63.3 l 0,3 m 0,-3 -1.2,0 m 0,0 0,3 m 1.2,-35.6 0,3 m 0,-3 -1.2,0 m 0,0 0,3 m 75.7,15.9 0,-11.4 m 0,11.4 3.3,0 m 0,-11.4 -3.3,0 m -61.3,0 0,11.4 m 0,-11.4 -3.3,0 m 0,11.4 3.3,0 m 55.1,32.1 0.2,-1.6 m -11,0 0.2,1.6 m -27.7,0 0.2,-1.6 m -11,0 0.2,1.6 M 5.5,17.7 7.4,18 m 0,10.5 -1.9,0.2 m 1.9,32.4 -1.9,0.2 m 0,-11 1.9,0.3 m -95.2,-21.9 -1.1,-0.1 m 0,-10.7 1.1,-0.2 m 0,43.6 -1.1,-0.1 m 0,-10.7 1.1,-0.2 m 30.5,-49.7 32.3,0 m -0.8,1.1 -30.7,0 m 46,47.9 -0.1,0 m 0,-11.4 0,0 0.1,0 m -61.3,0 0.1,0 m 0,11.4 0,0 -0.1,0 m 74.5,-33.3 1.2,0 m 0,0 0,-0.1 0,-0.1 0,-0.1 0,-0.1 0,-0.1 0,-0.1 m -1.2,14.4 1.2,0 m -1.2,0.6 0,0 0,-0.1 0,-0.1 0,-0.1 0,-0.1 0,-0.1 0,-0.1 m 1.2,0.6 0,0 0,-0.1 0,-0.1 0,-0.1 0,-0.1 0,-0.1 0,-0.1 m -1.2,32.6 1.2,0 m -1.2,0.6 0,0 0,-0.1 0,-0.1 0,-0.1 0,-0.1 0,-0.1 0,-0.1 m 1.2,0.6 0,0 0,-0.1 0,-0.1 0,-0.1 0,-0.1 0,-0.1 0,-0.1 m 0,-13.8 -1.2,0 m 0,0 0,-0.1 0,-0.1 0,-0.1 0,-0.1 0,-0.1 0,-0.1 m 1.2,0.6 0,-0.1 0,-0.1 0,-0.1 0,-0.1 0,-0.1 0,-0.1 m -32.8,29 0,1.2 m -0.6,0 0,0 0.1,0 0.1,0 0.1,0 0.1,0 0.1,0 0.1,0 m 13.8,0 0,-1.2 m 0,1.2 0.1,0 0.1,0 0.1,0 0.1,0 0.1,0 0.1,0 m -52.7,-1.2 0,1.2 m -0.6,0 0.1,0 0.1,0 0.1,0 0.1,0 0.1,0 0.1,0 M -85,16.3 l -1.2,0 m 0,-0.6 0,0.1 0,0.1 0,0.1 0,0.1 0,0.1 0,0.1 m 32.8,61 0,1.2 m 0,0 0.1,0 0.1,0 0.1,0 0.1,0 0.1,0 0.1,0 M -85,48.9 l -1.2,0 m 1.2,-0.6 0,0.1 0,0.1 0,0.1 0,0.1 0,0.1 0,0.1 m -1.2,-0.6 0,0.1 0,0.1 0,0.1 0,0.1 0,0.1 0,0.1 m 0,13.8 1.2,0 m 0,0 0,0.1 0,0.1 0,0.1 0,0.1 0,0.1 0,0.1 m -1.2,-0.6 0,0.1 0,0.1 0,0.1 0,0.1 0,0.1 0,0.1 m 1.2,-33.2 -1.2,0 m 1.2,0 0,0.1 0,0.1 0,0.1 0,0.1 0,0.1 0,0.1 m -1.2,-0.6 0,0.1 0,0.1 0,0.1 0,0.1 0,0.1 0,0.1 m 88.9,-0.6 0,-1.2 m 1.2,1.2 0,-1.3 m 0,-11.2 0,-1.3 m -1.2,46.4 0,-1.2 m 0,-11.3 0,-1.3 m 1.2,13.8 0,-1.3 m 0,-11.2 0,-1.3 m -32.8,29.6 1.3,0 m 11.2,0 1.3,0 M -85,28.9 l 0,1.2 m -1.2,-13.8 0,1.3 m 0,11.2 0,1.3 m 19,48.4 1.3,0 m 11.2,0 1.3,0 M -85,48.9 l 0,1.3 m 0,11.3 0,1.2 m -1.2,-13.8 0,1.3 m 0,11.2 0,1.3 M 2.5,0.6 2.7,0.6 3,0.7 3.2,0.8 3.5,1 3.6,1.2 3.8,1.4 3.8,1.7 3.9,2 m -90.1,0 0.1,-0.3 0,-0.3 0.2,-0.2 0.2,-0.2 0.2,-0.2 0.2,-0.1 0.3,-0.1 0.3,0 m 87.2,76.7 0.1,0 0.1,-0.2 m 1.2,0 -0.1,0.4 -0.3,0.5 -0.4,0.3 -0.4,0.2 -0.2,0 m -87.5,-1.4 0,0.1 0.2,0.1 0.1,0 m -1.5,-0.2 0.1,0.4 0.3,0.5 0.4,0.3 0.4,0.2 0.3,0 M 2.7,0.6 2.7,0.1 M 3.9,2 3.9,0.4 M -85,0.3 l 0,0.3 m -1.2,0.2 0,1.2 m 90.1,1.4 0.1,0 0.1,0 0.1,0 0.1,0 0.1,0 m 0,-2.7 0,2.7 m -91.1,0 0,-2.2 m 0.5,2.2 -0.1,0 -0.1,0 -0.1,0 -0.1,0 -0.1,0 m 91.1,0 0,0 0,0.1 0,0.1 0,0.1 0,0.1 0,0.1 0,0.1 0,0.1 m -91.1,0 0,0 0,-0.2 0,-0.2 0,-0.1 0,-0.2 m 89.4,25.5 0,0.6 m -87.7,0 0,-0.5 m -109.2,-6.7 2.3,-0.3 2.1,-1 1.8,-1.5 1.3,-2 0.6,-2.3 0,-2.3 -0.6,-2.2 -1.3,-2 -1.8,-1.5 -2.1,-1 -2.3,-0.4 m 0,0 -2.3,0.4 -2.2,1 -1.7,1.5 -1.3,2 -0.7,2.2 0,2.3 0.7,2.3 1.3,2 1.7,1.5 2.2,1 2.3,0.3 m 0,28.8 2.3,-0.3 2.1,-1 1.8,-1.5 1.3,-2 0.6,-2.3 0,-2.3 -0.6,-2.2 -1.3,-2 -1.8,-1.5 -2.1,-1 -2.3,-0.4 m 0,0 -2.3,0.4 -2.2,1 -1.7,1.5 -1.3,2 -0.7,2.2 0,2.3 0.7,2.3 1.3,2 1.7,1.5 2.2,1 2.3,0.3 m -7.7,-34.2 -1.6,0 m 1.6,-5.7 -1.6,0 m 19.1,5.7 -2.1,0 m -15.4,28.8 -1.6,0 m 1.6,-5.7 -1.6,0 m 19,0 -2,0 m 2.1,5.7 -2.1,0 m 2,-34.5 -2,0 m -15.8,1.8 0,0 0,-0.1 m 0,0 0.1,-0.2 0.1,-0.1 m 51.4,-11.7 -0.4,0 m 0.4,0.2 0,-0.2 m 0.9,0.2 0,-1.1 m 21.9,1.1 -2.5,0 m 3.7,0 -0.1,0 -0.3,0 -0.4,0 -0.4,0 m 10.8,0 -9.6,0 m 10.7,0 -0.4,0 -0.4,0 -0.2,0 -0.1,0 m 15.3,0 -14.2,0 m 15.3,0 -1.1,0 m -26.1,1.7 0,-1.7 m -2.5,1.7 2.5,0 m -7.1,-1.7 -2.5,0 m 0,0 0,1.7 m 0,0 2.5,0 m -28.6,-1.7 -1.1,0 m 15.3,0 -14.2,0 m 15.3,0 -0.1,0 -0.2,0 -0.4,0 -0.4,0 m 10.7,0 -9.6,0 m 10.8,0 -0.5,0 -0.3,0 -0.3,0 -0.1,0 m 30,17.5 -7.4,4.3 m 0,9.6 7.4,4.3 m 0,0 0,-18.2 m -48,0 7.4,4.3 m -7.4,-4.3 0,18.2 m 7.4,-4.3 -7.4,4.3 m 56.6,-35.6 0,-0.4 m 1.7,2.5 -0.2,-0.8 -0.5,-0.8 -0.7,-0.5 -0.9,-0.1 m -1.1,1.7 1.1,0 m 0,0 0.2,0 0.2,0.1 0.1,0.1 0.1,0.1 0,0.2 m -66.9,0 0.2,0 0.5,0 0.7,0 0.9,0 m 0,0 64,0 m 0,0 0.9,0 0.7,0 0.5,0 0.2,0 m -8.5,35.2 0.8,0 m -0.8,5.6 0,-5.6 m -11.1,17 11.1,-11.4 m -40.5,11.4 29.4,0 m -40.5,-11.4 11.1,11.4 m -11.1,-17 0,5.6 m -0.9,-5.6 0.9,0 m -0.9,-1.7 -0.3,0 -0.3,0.2 -0.1,0.3 -0.1,0.3 0.1,0.3 0.1,0.3 0.3,0.2 0.3,0.1 m 0,-19.9 0,18.2 m 0,-19.9 -0.3,0.1 -0.3,0.2 -0.1,0.3 -0.1,0.3 0.1,0.3 0.1,0.3 0.3,0.2 0.3,0 m 0.9,-1.7 -0.9,0 m 0.9,-6.2 0,6.2 m 2.8,-9 -0.5,0 -0.5,0.2 -0.5,0.2 -0.5,0.4 -0.3,0.4 -0.3,0.5 -0.1,0.5 -0.1,0.6 m 48.8,-2.8 -46,0 m 48.8,2.8 -0.1,-0.6 -0.1,-0.5 -0.3,-0.5 -0.3,-0.4 -0.5,-0.4 -0.5,-0.2 -0.5,-0.2 -0.5,0 m 2.8,9 0,-6.2 m 0.8,6.2 -0.8,0 m 0.8,1.7 0.4,0 0.2,-0.2 0.2,-0.3 0.1,-0.3 -0.1,-0.3 -0.2,-0.3 -0.2,-0.2 -0.4,-0.1 m 0,19.9 0,-18.2 m 0,19.9 0.4,-0.1 0.2,-0.2 0.2,-0.3 0.1,-0.3 -0.1,-0.3 -0.2,-0.3 -0.2,-0.2 -0.4,0 m -58.6,23.2 64,0 m 0,-56.7 0,56.7 m -64,0 0,-56.7 m 0,59 0,-0.1 0,-0.1 0,-0.2 0,-0.3 0,-0.3 0,-0.4 0,-0.4 0,-0.5 m 0,2.3 64,0 m 0,-2.3 0,0.5 0,0.4 0,0.4 0,0.3 0,0.3 0,0.2 0,0.1 0,0.1 m 2.3,-2.3 0,-56.7 m 0,56.7 -0.2,0 -0.5,0 -0.7,0 -0.9,0 m -66.3,0 0,-56.7 m 2.3,56.7 -0.9,0 -0.7,0 -0.5,0 -0.2,0 m 58.3,-41.4 0.4,0 0.7,0 0.7,0 0.8,0 m 0,18.2 -0.8,0 -0.7,0 -0.7,0 -0.4,0 m -50.7,-18.2 0.9,0 0.7,0 0.7,0 0.4,0 m 0,18.2 -0.4,0 -0.7,0 -0.7,0 -0.9,0 m -5.9,-36 0,0.4 m 64.6,61.1 0.5,-0.1 0.4,-0.1 0.4,-0.2 0.3,-0.3 0.3,-0.3 0.2,-0.4 0.2,-0.4 0,-0.5 m -68.6,0 0,0.5 0.2,0.4 0.2,0.4 0.3,0.3 0.3,0.3 0.4,0.2 0.4,0.1 0.5,0.1 m 64,-1.7 0.2,-0.1 0.2,-0.1 0.1,-0.1 0.1,-0.1 0,-0.2 m -64.6,0.6 -0.3,-0.1 -0.1,-0.1 -0.1,-0.1 -0.1,-0.1 0,-0.2 m 38.6,-58.9 0,1.7 m -22.7,0 0,-1.7 m 1.1,0 0,1.7 m 0,0 0,0 -0.1,0 -0.1,0 -0.1,0 -0.2,0 -0.2,0 -0.2,0 -0.2,0 m -14.2,-1.7 0,1.7 m 0,0 14.2,0 m 10.7,0 0,-1.7 m 36.9,0 0,1.7 m -14.2,-1.7 0,1.7 m 0,0 14.2,0 m -15.3,0 0,-1.7 m 1.1,1.7 -0.2,0 -0.2,0 -0.2,0 -0.2,0 -0.1,0 -0.1,0 -0.1,0 m -47.6,-1.7 -0.9,0.1 -0.7,0.5 -0.5,0.8 -0.2,0.8 m 2.3,-0.5 1.1,0 m 63.5,-2.4 0,0.4 m 0,0 0,0.4 m -65.2,-0.4 -0.1,-0.5 m 65.3,0.1 0,0.4 m -24.7,1.1 5.7,0 m 0,1.4 0,-1.4 m -5.7,1.4 0,-1.4 m -15.8,0 -5.7,0 m 0,0 0,1.4 m 5.7,0 0,-1.4 m 33.1,1.4 0,-0.5 m 0,-1.7 0,-1.1 m -6.8,3.3 0,-0.5 m 0,-1.7 0,-1.1 m -36.8,3.3 0,-0.5 m 0,-1.7 0,-1.1 m -6.8,3.3 0,-0.5 m 0,-1.7 0,-1.1 m 35.5,18.6 0,-9.6 m -6.4,0 0,9.6 m -7.8,0 0,-9.6 m 7.8,9.6 0.3,0 m 5.7,0 0.4,0 M -143,9 l 0,9.6 m 0,0 0.4,0 m 5.6,0 0.4,0 m -6.4,0 -11.5,0 m 0,16.9 0,12.7 m 43.6,-29.6 -11.5,0 m 11.5,29.6 0,-12.7 m -17.9,-16.9 -7.8,0 m 17.5,6.6 0,13.6 m -27.2,-13.6 27.2,0 m -27.2,13.6 0,-13.6 m 27.2,13.6 -27.2,0 m -1.1,-15.9 -0.3,0 -0.2,0.1 -0.2,0.1 -0.1,0.1 m 1.9,2 -1.9,-2 m 31,0 -1.9,2 m 1.9,-2 -0.1,-0.1 -0.2,-0.1 -0.2,-0.1 -0.3,0 m 0,0 -29.4,0 m 29.4,18.1 0.3,0 0.2,-0.1 0.2,-0.1 0.1,-0.1 m -1.9,-1.9 1.9,1.9 m -31,0 1.9,-1.9 m -1.9,1.9 0.1,0.1 0.2,0.1 0.2,0.1 0.3,0 m 0,0 29.4,0 m 1.2,-17 -0.1,-0.2 0,-0.2 -0.1,-0.2 -0.2,-0.2 m 0,17.5 0.2,-0.2 0.1,-0.2 0,-0.2 0.1,-0.2 m 0,0 0,-15.9 m -31.8,15.9 0,0.2 0.1,0.2 0.1,0.2 0.2,0.2 m 0,-17.5 -0.2,0.2 -0.1,0.2 -0.1,0.2 0,0.2 m 0,0 0,15.9 m 19.8,-17 0,-4.3 m -7.8,4.3 0,-4.3 m -6.4,26.7 0,-4.3 m 14.5,0.8 1.7,0 m 0,0 2.3,0 m 0,0 1.7,0 m -1.7,0 0,-0.8 m -2.3,0 0,0.8 m -1.7,0 0,-0.8 m 5.7,0 0,0.8 m -5.7,0.4 0,-0.1 0,-0.1 0,-0.1 0,-0.1 m 0,5 0,-0.1 0,-0.4 m 0,0 0,-4.1 m 5.7,0 0,-0.1 0,-0.1 0,-0.1 0,-0.1 m -5.7,0.4 5.7,0 m -15.9,-19.9 1.7,0 m -3.9,0 2.2,0 m -3.9,0 1.7,0 m 0,0 0,0.6 m 2.2,0 0,-0.6 m 1.7,0 0,0.6 m -5.6,-0.6 0,0.6 m 0,-4.8 0,3.9 m 0,0 0,0.1 0,0.1 0,0.1 m 0,-4.3 0,0 m 0,-0.7 0,0 0,0.2 0,0.4 m 0,0.1 0,0.1 m 5.6,0 0,3.9 m 0,0 0,0.1 0,0.1 0,0.1 m 0,-4.3 0,0 m 0,-0.7 0,0 0,0.2 0,0.4 m 0,0.1 0,0.1 m 0,3.9 -5.6,0 m 5.6,-3.9 -5.6,0 m 5.6,22.9 0,0.8 m -1.7,0 1.7,0 m -1.7,0 0,-0.8 m -2.2,0.8 2.2,0 m -2.2,-0.8 0,0.8 m -1.7,0 1.7,0 m -1.7,0 0,-0.8 m 5.6,0.8 0,0 0,0.1 0,0.1 0,0.1 0,0.1 m 0,0 0,4.1 m 0,0 0,0.4 0,0.1 m -5.6,-5 0,0 0,0.1 0,0.1 0,0.1 0,0.1 m 0,0 5.6,0 m 28.4,3.7 0,-7.7 m 0,0 1.7,1.7 m 0,-24.4 -1.7,0 m 1.7,-1.7 -1.7,1.7 m -39.4,39.4 30.6,0 m 8.8,-39.4 0,-6.5 m 0.6,-0.6 -0.6,0.6 m 0,0 -48.2,0 m 0,0 -0.6,-0.6 m 48.8,29.8 3.2,0 m -51.4,0 -1.7,1.7 m 1.7,-1.7 0,7.7 m 0,-36.9 0,6.5 m 0,0 -1.7,-1.7 m 1.7,1.7 -1.7,0 m -1.5,22.7 3.2,0 m 18.8,-34.9 0,-0.5 m 0,-1.7 0,-1.1 m -3.5,0 0,1.1 m 17.6,0 0,-1.1 m -3.5,0 0,1.1 m 0,1.7 0,0.5 m -22,25.8 0.8,0 m 31.8,0 0.8,0 m 0,-7.4 -6.8,0 m -5.7,0 -8.5,0 m -5.6,0 -6.8,0 m 0,22.7 -1.4,0.3 -1.2,0.8 -0.8,1.2 -0.3,1.4 0.3,1.4 0.8,1.2 1.2,0.8 1.4,0.3 m 0,0 33.4,0 m 0,0 1.4,-0.3 1.2,-0.8 0.8,-1.2 0.3,-1.4 -0.3,-1.4 -0.8,-1.2 -1.2,-0.8 -1.4,-0.3 m 0,0 -33.4,0 m 33.4,-21.8 -6.8,0 m -5.7,0 -8.5,0 m -5.6,0 -6.8,0 m 0,5.7 0.8,0 m 31.8,0 0.8,0 m 0,22.6 0,0.1 0,0.1 0,0.1 0,0.1 0,0.2 0,0.1 0,0.2 m -33.4,0 0,-0.2 0,-0.1 0,-0.2 0,-0.1 0,-0.1 0,-0.1 0,-0.1 m 0,0 33.4,0 m -33.4,-5.6 0,0 0,-0.1 0,-0.1 0,-0.1 0,-0.1 0,-0.1 0,-0.2 0,-0.2 m 33.4,0 0,0.2 0,0.2 0,0.1 0,0.1 0,0.1 0,0.1 0,0.1 m 0,0 -33.4,0 m 0,5.6 -1.1,-0.2 -0.9,-0.6 -0.6,-0.9 -0.3,-1.1 0.3,-1.1 0.6,-0.9 0.9,-0.6 1.1,-0.2 m 33.4,0 1.1,0.2 0.9,0.6 0.6,0.9 0.3,1.1 -0.3,1.1 -0.6,0.9 -0.9,0.6 -1.1,0.2 m -33.4,-5.6 0,0 0,0.1 0,0.1 0,0.2 0,0.1 0,0.2 0,0.1 m 33.4,0 0,-0.1 0,-0.2 0,-0.1 0,-0.2 0,-0.1 0,-0.1 m -33.4,0.8 33.4,0 m -33.4,-22.6 -0.8,0.1 -0.6,0.4 -0.5,0.7 -0.1,0.7 0.1,0.8 0.5,0.6 0.6,0.5 0.8,0.1 m 0,22.7 0,0.2 0,0.1 0,0.2 0,0.1 0,0.1 0,0.1 m 0,-4.8 -0.8,0.2 -0.6,0.4 -0.5,0.7 -0.1,0.7 0.1,0.8 0.5,0.6 0.6,0.4 0.8,0.2 m 33.4,-22.7 0.8,-0.1 0.6,-0.5 0.5,-0.6 0.1,-0.8 -0.1,-0.7 -0.5,-0.7 -0.6,-0.4 -0.8,-0.1 m 0,27.4 0,0 0,-0.1 0,-0.1 0,-0.1 0,-0.2 0,-0.1 0,-0.2 m 0,0 0.8,-0.2 0.6,-0.4 0.5,-0.6 0.1,-0.8 -0.1,-0.7 -0.5,-0.7 -0.6,-0.4 -0.8,-0.2 m 0,4 -33.4,0 m 24.9,-27.2 0,-0.6 m 0,0 1.7,0 m 0,0 0,0.6 m -4,-0.6 2.3,0 m -4,0 1.7,0 m 0,0 0,0.6 m -1.7,-0.6 0,0.6 m 0,-4.8 0,3.9 m 0,0 0,0.1 0,0.1 0,0.1 m 0,-4.3 0,0 m 0,-0.7 0,0 0,0.2 0,0.4 m 0,0.1 0,0.1 m 5.7,0 0,3.9 m 0,0 0,0.1 0,0.1 0,0.1 m 0,-4.3 0,0 m 0,-0.7 0,0 0,0.2 0,0.4 m 0,0.1 0,0.1 m 0,3.9 -5.7,0 m 5.7,-3.9 -5.7,0 m -40.9,-4.6 0.8,0.8 m 0,-11.6 0,11.6 m 0.5,0 -0.5,0 -0.8,0 m 1.7,-12.7 0.7,0 m 0,1.6 -1.1,-1.1 m 0,11.8 -0.5,0.4 m 0,0 0,-11.6 m -0.8,57.4 0,-54.4 m 0,0 0.1,-1.1 0.3,-1.1 0.5,-0.9 0.7,-0.9 0.9,-0.7 1,-0.5 1,-0.4 1.1,-0.1 m 0,0 61.8,0 m 0,0 1.1,0.1 1.1,0.4 1,0.5 0.8,0.7 0.7,0.9 0.6,0.9 0.3,1.1 0.1,1.1 m 0,0 0,54.4 m 0,0 -0.1,1.1 -0.3,1.1 -0.6,1 -0.7,0.8 -0.8,0.7 -1,0.6 -1.1,0.3 -1.1,0.1 m 0,0 -61.8,0 m 0,0 -1.1,-0.1 -1,-0.3 -1,-0.6 -0.9,-0.7 -0.7,-0.8 -0.5,-1 -0.3,-1.1 -0.1,-1.1 m -14.7,-45.9 -0.3,2.5 -0.9,2.3 -1.5,2 -1.9,1.6 -2.2,1 -2.5,0.5 -2.4,-0.1 -2.4,-0.8 -2.1,-1.3 -1.7,-1.9 -1.2,-2.1 -0.6,-2.4 0,-2.5 0.6,-2.4 1.2,-2.2 1.7,-1.8 2.1,-1.4 2.4,-0.7 2.4,-0.2 2.5,0.5 2.2,1 1.9,1.6 1.5,2 0.9,2.3 0.3,2.5 m 228.3,22.5 -0.3,2.6 -1,2.5 -1.5,2.2 -2,1.8 -2.4,1.2 -2.5,0.7 -2.7,0 -2.6,-0.7 -2.4,-1.2 -2,-1.8 -1.5,-2.2 -0.9,-2.5 -0.3,-2.6 0.3,-2.7 0.9,-2.4 1.5,-2.2 2,-1.8 2.4,-1.2 2.6,-0.7 2.7,0 2.5,0.7 2.4,1.2 2,1.8 1.5,2.2 1,2.4 0.3,2.7 m 5.4,-42.9 0,85.8 m -283.7,-107.9 261.6,0 m -283.7,22.1 0.4,-3.8 1,-3.8 1.6,-3.5 2.2,-3.1 2.7,-2.7 3.2,-2.2 3.5,-1.7 3.7,-1 3.8,-0.3 m -22.1,107.9 0,-85.8 m 22.1,107.9 -3.8,-0.3 -3.7,-1 -3.5,-1.7 -3.2,-2.2 -2.7,-2.7 -2.2,-3.2 -1.6,-3.5 -1,-3.7 -0.4,-3.8 m 283.7,22.1 -261.6,0 m 283.7,-22.1 -0.4,3.8 -1,3.7 -1.6,3.5 -2.2,3.2 -2.7,2.7 -3.2,2.2 -3.5,1.7 -3.7,1 -3.8,0.3 m -256.2,-65 -0.3,2.6 -1,2.5 -1.5,2.2 -2,1.8 -2.3,1.2 -2.6,0.7 -2.7,0 -2.6,-0.7 -2.3,-1.2 -2,-1.8 -1.5,-2.2 -1,-2.5 -0.3,-2.6 0.3,-2.7 1,-2.4 1.5,-2.2 2,-1.8 2.3,-1.2 2.6,-0.7 2.7,0 2.6,0.7 2.3,1.2 2,1.8 1.5,2.2 1,2.4 0.3,2.7 M -83.3,0 1.8,0 m 0,0 1.1,0.1 1,0.4 1,0.5 0.9,0.7 0.7,0.9 0.5,0.9 0.3,1.1 0.1,1.1 m 0,0 0,70.3 m 0,0 -0.1,1.1 -0.3,1.1 -0.5,1 -0.7,0.8 -0.9,0.7 -1,0.5 -1,0.4 -1.1,0.1 m 0,0 -85.1,0 m 0,0 -1.1,-0.1 -1,-0.4 -1,-0.5 -0.9,-0.7 -0.7,-0.8 -0.5,-1 -0.3,-1.1 -0.1,-1.1 m 0,0 0,-70.3 m 0,0 0.1,-1.1 0.3,-1.1 0.5,-0.9 0.7,-0.9 0.9,-0.7 1,-0.5 1,-0.4 1.1,-0.1 m -100.8,43 -0.3,2.5 -0.9,2.3 -1.5,2 -1.9,1.6 -2.2,1 -2.5,0.5 -2.4,-0.1 -2.4,-0.8 -2.1,-1.3 -1.7,-1.9 -1.2,-2.1 -0.6,-2.4 0,-2.5 0.6,-2.4 1.2,-2.2 1.7,-1.8 2.1,-1.4 2.4,-0.7 2.4,-0.2 2.5,0.5 2.2,1 1.9,1.6 1.5,2 0.9,2.3 0.3,2.5 m 211.6,-71.3 3.8,0.3 3.7,1 3.5,1.7 3.2,2.2 2.7,2.7 2.2,3.1 1.6,3.5 1,3.8 0.4,3.8 m -219,21.5 1.7,0 m 20.1,-15.3 -0.5,0.1 -0.5,0.2 -0.5,0.2 -0.5,0.4 -0.1,0.2 M -60.7,0.6 -60.9,0.5 -62,0.1 -62.9,0 m -35.5,56.2 2.1,0 m -133.1,-16.9 0,0 0.3,-2.6 -0.3,-2.7 -0.1,-0.4 m -23.4,-52 -0.7,1.1 -1.6,3.5 -1,3.8 -0.4,3.8 m 0,9.8 0,4.5 m 0,12.9 0,4.5 m 0,22 0,4.4 m 0,13 0,4.5 m 0,10.2 0.4,3.8 1,3.7 1.6,3.5 2.2,3.2 2.7,2.7 3.2,2.2 3.5,1.7 3.7,1 3.8,0.3 m 280.4,-120.1 -1.6,-2.2 -2.8,-2.8 -3.3,-2.3 -3.6,-1.6 -3.8,-1.1 -3.9,-0.3 m 0,0 -260.8,0 m 0,0 -3.9,0.3 -3.9,1.1 -3.5,1.6 -3.3,2.3 -2.8,2.8 -2.2,3.2 -1.7,3.6 -1,3.8 -0.4,4 m 0,0 0,9.6 m 0,0 0.4,0.6 m 0,3.3 -0.4,0.6 m 0,0 0,12.9 m 0,0 0.4,0.6 m 0,3.4 -0.4,0.5 m 0,0 0,22 m 0,0 0.4,0.5 m 0,3.4 -0.4,0.5 m 0,0 0,13 m 0,0 0.4,0.6 m 0,3.3 -0.4,0.6 m 0,0 0,9.6 m 0,0 0.4,3.9 1,3.9 1.7,3.5 2.2,3.3 2.8,2.8 2.2,1.6 m 269,-58.7 0.8,0 m -0.8,0 -0.3,0 m -251.4,0.1 -0.8,-0.1 m -0.7,0 0.7,0 m -0.7,0 -0.4,0 -0.3,0.1 -0.4,0.1 -0.3,0.2 -0.3,0.2 -0.3,0.2 -0.2,0.3 -0.3,0.3 m 0,0 -1.4,1.8 -2,1.3 -2.2,0.7 -2.3,0 -2.2,-0.6 -2,-1.3 -1.5,-1.7 -1,-2.1 -0.3,-2.3 0.3,-2.3 1,-2.1 1.5,-1.8 2,-1.2 2.2,-0.6 2.3,0 2.2,0.7 2,1.3 1.4,1.8 m 0,0 0.3,0.3 0.2,0.3 0.3,0.2 0.3,0.2 0.3,0.1 0.4,0.2 0.3,0 0.4,0.1 m 0.7,0 -0.7,0 m 0.7,0 0.7,-0.1 m 251.6,0 0.2,0.1 m 0.8,0 -0.8,0 m 0.8,0 0.4,-0.1 0.3,0 0.4,-0.2 0.3,-0.1 0.3,-0.2 0.3,-0.2 0.2,-0.3 0.2,-0.3 m 0,0 1.5,-1.8 1.9,-1.3 2.3,-0.7 2.3,0 2.2,0.6 2,1.2 1.5,1.8 1,2.1 0.3,2.3 -0.3,2.3 -1,2.1 -1.5,1.7 -2,1.3 -2.2,0.6 -2.3,0 -2.3,-0.7 -1.9,-1.3 -1.5,-1.8 m 0,0 -0.2,-0.3 -0.2,-0.3 -0.3,-0.2 -0.3,-0.2 -0.3,-0.2 -0.4,-0.1 -0.3,-0.1 -0.4,0 m -108.2,-21.8 0,-4.7 m 73.1,64.3 -4.7,0 m -11.4,0 -4.8,0 m -17.3,0 -4.8,0 m -11.4,0 -4.7,0 m 73.2,-64.3 0,4.7 m -151.9,6 1,0 m 31.4,0 1,0 m 0,3.9 -0.8,0 m -31.8,0 -0.8,0"
         style="fill:none;stroke:#000000;stroke-width:0.70899999;stroke-linecap:round;stroke-linejoin:round;stroke-miterlimit:10;stroke-opacity:1;stroke-dasharray:none"
         id="path3136"
         inkscape:connector-curvature="0" /></g><rect
       style="color:#000000;fill:#ffffff;fill-opacity:1;fill-rule:evenodd;stroke:none;stroke-width:3;marker:none;visibility:visible;display:inline;overflow:visible;enable-background:accumulate"
       id="rect4071"
       width="108.61369"
       height="45.005669"
       x="417.65262"
       y="487.69141"
       transform="matrix(0.8,0,0,-0.8,0,841.89)" /><text
       xml:space="preserve"
       style="font-size:10px;font-style:normal;font-variant:normal;font-weight:bold;font-stretch:condensed;text-align:start;line-height:125%;letter-spacing:0px;word-spacing:0px;writing-mode:lr-tb;text-anchor:start;fill:#000000;fill-opacity:1;stroke:none;font-family:Liberation Sans Narrow;-inkscape-font-specification:Liberation Sans Narrow Bold Condensed"
       x="431.45435"
       y="513.49463"
       id="text4067"
       sodipodi:linespacing="125%"
       transform="matrix(3.2211948,0,0,-3.2211948,-1053.6401,2077.1441)"><tspan
         sodipodi:role="line"
         id="tspan4069"
         x="431.45435"
         y="513.49463">FIXME</tspan></text>
</g><g
     inkscape:groupmode="layer"
     id="layer1"
     inkscape:label="anno"
     style="display:inline"
     transform="translate(-249.7346,-358.91648)"><g
       id="g3138"
       transform="matrix(1.25,0,0,-1.25,825.85548,541.7375)"><path
         d="m 0,0 0,0 m 21.6,0 0,0 m -12,0 0,0 m 21.6,0 0,0 m -11.7,15.8 0,0 m -7.8,0 0,0 m -6.4,26.7 0,0"
         style="fill:none;stroke:#000000;stroke-width:0.70899999;stroke-linecap:round;stroke-linejoin:round;stroke-miterlimit:10;stroke-opacity:1;stroke-dasharray:none"
         id="path3140"
         inkscape:connector-curvature="0" /></g><text
       xml:space="preserve"
       style="font-size:18px;font-style:normal;font-variant:normal;font-weight:bold;font-stretch:normal;text-align:start;line-height:125%;letter-spacing:0px;word-spacing:0px;writing-mode:lr-tb;text-anchor:start;fill:#000000;fill-opacity:1;stroke:none;font-family:Liberation Sans;-inkscape-font-specification:Liberation Sans Bold"
       x="846.10663"
       y="389.87909"
       id="text3142"
       sodipodi:linespacing="125%"
       transform="translate(-146.94927,12.08037)"><tspan
         sodipodi:role="line"
         id="tspan3144"
         x="846.10663"
         y="389.87909">Health</tspan></text>
<text
       xml:space="preserve"
       style="font-size:18px;font-style:normal;font-variant:normal;font-weight:bold;font-stretch:normal;text-align:start;line-height:125%;letter-spacing:0px;word-spacing:0px;writing-mode:lr-tb;text-anchor:start;fill:#000000;fill-opacity:1;stroke:none;font-family:Liberation Sans;-inkscape-font-specification:Liberation Sans Bold"
       x="823.30371"
       y="625.1087"
       id="text3146"
       sodipodi:linespacing="125%"
       transform="translate(-129.72069,-9.29321)"><tspan
         sodipodi:role="line"
         id="tspan3148"
         x="823.30371"
         y="625.1087"
         style="font-size:18px;font-style:normal;font-variant:normal;font-weight:bold;font-stretch:normal;font-family:Liberation Sans;-inkscape-font-specification:Liberation Sans Bold">Pulse-per-second</tspan></text>
<text
       xml:space="preserve"
       style="font-size:18px;font-style:normal;font-variant:normal;font-weight:bold;font-stretch:normal;text-align:start;line-height:125%;letter-spacing:0px;word-spacing:0px;writing-mode:lr-tb;text-anchor:start;fill:#000000;fill-opacity:1;stroke:none;font-family:Liberation Sans;-inkscape-font-specification:Liberation Sans Bold"
       x="938.59039"
       y="392.12448"
       id="text3150"
       sodipodi:linespacing="125%"
       transform="translate(-147.92584,9.83497)"><tspan
         sodipodi:role="line"
         id="tspan3152"
         x="938.59039"
         y="392.12448">Power and USB</tspan></text>
<text
       xml:space="preserve"
       style="font-size:18px;font-style:normal;font-variant:normal;font-weight:bold;font-stretch:normal;text-align:start;line-height:125%;letter-spacing:0px;word-spacing:0px;writing-mode:lr-tb;text-anchor:start;fill:#000000;fill-opacity:1;stroke:none;font-family:Liberation Sans;-inkscape-font-specification:Liberation Sans Bold"
       x="1025.9998"
       y="615.31549"
       id="text3154"
       sodipodi:linespacing="125%"
       transform="translate(-119.92089,0.5)"><tspan
         sodipodi:role="line"
         id="tspan3156"
         x="1025.9998"
         y="615.31549">Ethernet LAN</tspan></text>
<text
       xml:space="preserve"
       style="font-size:18px;font-style:normal;font-variant:normal;font-weight:bold;font-stretch:normal;text-align:start;line-height:125%;letter-spacing:0px;word-spacing:0px;writing-mode:lr-tb;text-anchor:start;fill:#000000;fill-opacity:1;stroke:none;font-family:Liberation Sans;-inkscape-font-specification:Liberation Sans Bold"
       x="302.96271"
       y="609.37506"
       id="text3164"
       sodipodi:linespacing="125%"
       transform="translate(-17.821336,5.940425)"><tspan
         sodipodi:role="line"
         id="tspan3166"
         x="302.96271"
         y="609.37506">GPS Antenna</tspan></text>
<text
       xml:space="preserve"
       style="font-size:18px;font-style:normal;font-variant:normal;font-weight:bold;font-stretch:normal;text-align:start;line-height:125%;letter-spacing:0px;word-spacing:0px;writing-mode:lr-tb;text-anchor:start;fill:#000000;fill-opacity:1;stroke:none;font-family:Liberation Sans;-inkscape-font-specification:Liberation Sans Bold"
       x="404.79892"
       y="399.76218"
       id="text3168"
       sodipodi:linespacing="125%"
       transform="translate(22.064511,215.55331)"><tspan
         sodipodi:role="line"
         id="tspan3170"
         x="404.79892"
         y="399.76218">Data In/Out</tspan></text>
<text
       xml:space="preserve"
       style="font-size:18px;font-style:normal;font-variant:normal;font-weight:bold;font-stretch:normal;text-align:start;line-height:125%;letter-spacing:0px;word-spacing:0px;writing-mode:lr-tb;text-anchor:start;fill:#000000;fill-opacity:1;stroke:none;font-family:Liberation Sans;-inkscape-font-specification:Liberation Sans Bold"
       x="532.94281"
       y="609.37506"
       id="text3172"
       sodipodi:linespacing="125%"
       transform="translate(22.064511,5.940425)"><tspan
         sodipodi:role="line"
         id="tspan3174"
         x="532.94281"
         y="609.37506">MicroSD</tspan></text>
<text
       xml:space="preserve"
       style="font-size:14px;font-style:normal;font-variant:normal;font-weight:bold;font-stretch:normal;text-align:start;line-height:125%;letter-spacing:0px;word-spacing:0px;writing-mode:lr-tb;text-anchor:start;fill:#000000;fill-opacity:1;stroke:none;font-family:Liberation Sans;-inkscape-font-specification:Liberation Sans Bold"
       x="507.05945"
       y="466.80435"
       id="text3176"
       sodipodi:linespacing="125%"
       transform="translate(-5.5161278,1.2729625)"><tspan
         sodipodi:role="line"
         id="tspan3178"
         x="507.05945"
         y="466.80435">1</tspan></text>
<text
       xml:space="preserve"
       style="font-size:14px;font-style:normal;font-variant:normal;font-weight:bold;font-stretch:normal;text-align:start;line-height:125%;letter-spacing:0px;word-spacing:0px;writing-mode:lr-tb;text-anchor:start;fill:#000000;fill-opacity:1;stroke:none;font-family:Liberation Sans;-inkscape-font-specification:Liberation Sans Bold"
       x="507.05945"
       y="466.80435"
       id="text3176-9"
       sodipodi:linespacing="125%"
       transform="translate(-5.5161282,95.047137)"><tspan
         sodipodi:role="line"
         id="tspan3178-7"
         x="507.05945"
         y="466.80435">2</tspan></text>
<text
       xml:space="preserve"
       style="font-size:14px;font-style:normal;font-variant:normal;font-weight:bold;font-stretch:normal;text-align:start;line-height:125%;letter-spacing:0px;word-spacing:0px;writing-mode:lr-tb;text-anchor:start;fill:#000000;fill-opacity:1;stroke:none;font-family:Liberation Sans;-inkscape-font-specification:Liberation Sans Bold"
       x="507.05945"
       y="466.80435"
       id="text3176-0"
       sodipodi:linespacing="125%"
       transform="translate(-38.480294,1.2729625)"><tspan
         sodipodi:role="line"
         id="tspan3178-2"
         x="507.05945"
         y="466.80435">3</tspan></text>
<text
       xml:space="preserve"
       style="font-size:14px;font-style:normal;font-variant:normal;font-weight:bold;font-stretch:normal;text-align:start;line-height:125%;letter-spacing:0px;word-spacing:0px;writing-mode:lr-tb;text-anchor:start;fill:#000000;fill-opacity:1;stroke:none;font-family:Liberation Sans;-inkscape-font-specification:Liberation Sans Bold"
       x="507.05945"
       y="466.80435"
       id="text3176-7"
       sodipodi:linespacing="125%"
       transform="translate(-38.480294,95.047137)"><tspan
         sodipodi:role="line"
         id="tspan3178-3"
         x="507.05945"
         y="466.80435">4</tspan></text>
<text
       xml:space="preserve"
       style="font-size:14px;font-style:normal;font-variant:normal;font-weight:bold;font-stretch:normal;text-align:start;line-height:125%;letter-spacing:0px;word-spacing:0px;writing-mode:lr-tb;text-anchor:start;fill:#000000;fill-opacity:1;stroke:none;font-family:Liberation Sans;-inkscape-font-specification:Liberation Sans Bold"
       x="507.05945"
       y="466.80435"
       id="text3176-3"
       sodipodi:linespacing="125%"
       transform="translate(-73.831249,1.2729625)"><tspan
         sodipodi:role="line"
         id="tspan3178-5"
         x="507.05945"
         y="466.80435">5</tspan></text>
<text
       xml:space="preserve"
       style="font-size:14px;font-style:normal;font-variant:normal;font-weight:bold;font-stretch:normal;text-align:start;line-height:125%;letter-spacing:0px;word-spacing:0px;writing-mode:lr-tb;text-anchor:start;fill:#000000;fill-opacity:1;stroke:none;font-family:Liberation Sans;-inkscape-font-specification:Liberation Sans Bold"
       x="507.05945"
       y="466.80435"
       id="text3176-90"
       sodipodi:linespacing="125%"
       transform="translate(-73.831249,95.047137)"><tspan
         sodipodi:role="line"
         id="tspan3178-1"
         x="507.05945"
         y="466.80435">6</tspan></text>
<path
       style="fill:none;stroke:#000000;stroke-width:3;stroke-linecap:round;stroke-linejoin:miter;stroke-miterlimit:4;stroke-opacity:1;stroke-dasharray:none"
       d="M 348.78901,595.79689 362.36717,572.0351"
       id="path4017"
       inkscape:connector-curvature="0" /><path
       style="fill:none;stroke:#000000;stroke-width:3;stroke-linecap:round;stroke-linejoin:miter;stroke-miterlimit:4;stroke-opacity:1;stroke-dasharray:none"
       d="m 472.68973,596.64552 0,-27.15632"
       id="path4019"
       inkscape:connector-curvature="0" /><path
       style="fill:none;stroke:#000000;stroke-width:3;stroke-linecap:round;stroke-linejoin:miter;stroke-miterlimit:4;stroke-opacity:1;stroke-dasharray:none"
       d="M 587.25546,599.19143 572.82867,545.72742"
       id="path4021"
       inkscape:connector-curvature="0" /><path
       style="fill:none;stroke:#000000;stroke-width:3;stroke-linecap:round;stroke-linejoin:miter;stroke-miterlimit:4;stroke-opacity:1;stroke-dasharray:none"
       d="m 882.58046,598.34279 0,-51.76674"
       id="path4023"
       inkscape:connector-curvature="0"
       transform="translate(-120.76952,0.5)" /><path
       style="fill:none;stroke:#000000;stroke-width:3;stroke-linecap:round;stroke-linejoin:miter;stroke-miterlimit:4;stroke-opacity:1;stroke-dasharray:none"
       d="m 855.42414,409.09717 16.9727,64.49627"
       id="path4025"
       inkscape:connector-curvature="0"
       transform="translate(-120.76952,0.5)" /><path
       style="fill:none;stroke:#000000;stroke-width:3;stroke-linecap:round;stroke-linejoin:miter;stroke-miterlimit:4;stroke-opacity:1;stroke-dasharray:none"
       d="m 956.41171,456.62074 0,-49.22084"
       id="path4027"
       inkscape:connector-curvature="0"
       transform="translate(-120.76952,0.5)" /><path
       style="fill:none;stroke:#000000;stroke-width:3;stroke-linecap:round;stroke-linejoin:miter;stroke-miterlimit:4;stroke-opacity:1;stroke-dasharray:none"
       d="m 1068.4315,549.12196 0,48.3722"
       id="path4029"
       inkscape:connector-curvature="0"
       transform="translate(-120.76952,0.5)" /></g></svg>