<?xml version="1.0" encoding="UTF-8" standalone="no"?>
<!-- Created with Inkscape (http://www.inkscape.org/) -->

<svg
   xmlns:dc="http://purl.org/dc/elements/1.1/"
   xmlns:cc="http://creativecommons.org/ns#"
   xmlns:rdf="http://www.w3.org/1999/02/22-rdf-syntax-ns#"
   xmlns:svg="http://www.w3.org/2000/svg"
   xmlns="http://www.w3.org/2000/svg"
   xmlns:sodipodi="http://sodipodi.sourceforge.net/DTD/sodipodi-0.dtd"
   xmlns:inkscape="http://www.inkscape.org/namespaces/inkscape"
   id="svg3004"
   version="1.1"
   inkscape:version="0.48.4 r9939"
   width="844.604"
   height="290.63437"
   xml:space="preserve"
   sodipodi:docname="connectors.svg"><metadata
     id="metadata3010"><rdf:RDF><cc:Work
         rdf:about=""><dc:format>image/svg+xml</dc:format><dc:type
           rdf:resource="http://purl.org/dc/dcmitype/StillImage" /><dc:title /></cc:Work></rdf:RDF></metadata><defs
     id="defs3008" /><sodipodi:namedview
     pagecolor="#ffffff"
     bordercolor="#666666"
     borderopacity="1"
     objecttolerance="10"
     gridtolerance="10"
     guidetolerance="10"
     inkscape:pageopacity="0"
     inkscape:pageshadow="2"
     inkscape:window-width="1920"
     inkscape:window-height="1153"
     id="namedview3006"
     showgrid="false"
     showguides="true"
     inkscape:guide-bbox="true"
     inkscape:zoom="2"
     inkscape:cx="362.2938"
     inkscape:cy="169.45175"
     inkscape:window-x="0"
     inkscape:window-y="0"
     inkscape:window-maximized="1"
     inkscape:current-layer="g3012"
     fit-margin-top="30"
     fit-margin-left="30"
     fit-margin-right="30"
     fit-margin-bottom="30"><sodipodi:guide
       orientation="0,1"
       position="390.96778,67.499995"
       id="guide3202" /></sodipodi:namedview><g
     id="g3012"
     inkscape:groupmode="layer"
     inkscape:label="assembly"
     transform="matrix(1.25,0,0,-1.25,-249.7346,693.44602)"
     style="display:inline"><g
       id="g3865"
       transform="translate(464.82397,417.53755)"><path
         inkscape:connector-curvature="0"
         d="M 0,0 -1.7,0 M 12.5,0 10.8,0 M 6.3,0 4.6,0 M -6.2,0 -7.9,0 m -4.5,0 -1.7,0 m -4.6,0 -1.7,0 m -10.7,0 -1.8,0 m 8,0 -1.7,0 m 41.7,0.6 0,-4.6 m -240.1,21.2 4.1,0 m 0,-4.2 -4.1,0 m 21.5,11.5 -0.3,3.5 -0.9,3.3 -1.6,3.2 -2,2.8 -2.5,2.4 -2.9,1.9 -3.2,1.4 -3.4,0.7 -3.5,0.2 -3.5,-0.5 -3.3,-1 -3.1,-1.7 -2.7,-2.2 -2.3,-2.6 -1.8,-3 -1.2,-3.2 -0.6,-3.5 0,-3.5 0.6,-3.4 1.2,-3.2 1.8,-3 2.3,-2.7 2.7,-2.1 3.1,-1.7 3.3,-1.1 3.5,-0.4 3.5,0.1 3.4,0.8 3.2,1.4 2.9,1.9 2.5,2.4 2,2.8 1.6,3.2 0.9,3.3 0.3,3.5 m -6.6,0 -0.3,2.8 -1,2.7 -1.5,2.5 -2.1,2 -2.4,1.5 -2.7,1 -2.8,0.3 -2.9,-0.3 -2.7,-1 -2.4,-1.5 -2.1,-2 -1.5,-2.5 -0.9,-2.7 -0.4,-2.8 0.4,-2.9 0.9,-2.7 1.5,-2.4 2.1,-2 2.4,-1.6 2.7,-0.9 2.9,-0.3 2.8,0.3 2.7,0.9 2.4,1.6 2.1,2 1.5,2.4 1,2.7 0.3,2.9 m -1.3,2 0,-4 m -7.2,4 7.2,0 m -7.2,0 -2.3,2.3 m 0,7.2 0,-7.2 m -4.1,7.2 4.1,0 m -4.1,-7.2 -2.3,-2.3 m -7.2,-4 0,4 m 7.2,-4 -7.2,0 m 7.2,0 2.3,-2.3 m 0,-7.2 0,7.2 m 4.1,0 2.3,2.3 m 7.2,0 -7.2,0 m -6.4,6.3 0,7.2 m 4.1,-15.8 0,-7.2 m -13.6,13.5 7.2,0 m 11.6,-4 0,4 m -5.2,5.3 -4.1,0 m -5.2,-5.3 0,-4 m -12.6,2 0.3,3.5 1,3.3 1.5,3.2 0.2,0.4 m 0,-20.8 -0.2,0.4 -1.5,3.2 -1,3.3 -0.3,3.5 m 304.2,2 0,-4 m -7.2,4 7.2,0 m -7.2,0 -2.3,2.3 m 0,7.2 0,-7.2 m -4,7.2 4,0 m -4,-7.2 0,7.2 m 0,-7.2 -2.3,-2.3 m -7.2,0 7.2,0 m -7.2,-4 0,4 m 7.2,-4 -7.2,0 m 7.2,0 2.3,-2.3 m 0,-7.2 0,7.2 m 4,-7.2 -4,0 m 4,7.2 0,-7.2 m 0,7.2 2.3,2.3 m 7.2,0 -7.2,0 m 8.5,2 -0.3,2.8 -0.9,2.7 -1.6,2.5 -2,2 -2.4,1.5 -2.7,1 -2.9,0.3 -2.8,-0.3 -2.7,-1 -2.5,-1.5 -2,-2 -1.5,-2.5 -1,-2.7 -0.3,-2.8 0.3,-2.9 1,-2.7 1.5,-2.4 2,-2 2.5,-1.6 2.7,-0.9 2.8,-0.3 2.9,0.3 2.7,0.9 2.4,1.6 2,2 1.6,2.4 0.9,2.7 0.3,2.9 m -10.8,7.3 -4,0 m 9.3,-9.3 0,4 m 12.2,-2 -0.4,3.5 -0.9,3.3 -1.5,3.2 -2,2.8 -2.6,2.4 -2.9,1.9 -3.2,1.4 -3.4,0.7 -3.5,0.2 -3.4,-0.5 -3.3,-1 -3.1,-1.7 -2.7,-2.2 -2.3,-2.6 -1.8,-3 -1.2,-3.2 -0.6,-3.5 0,-3.5 0.6,-3.4 1.2,-3.2 1.8,-3 2.3,-2.7 2.7,-2.1 3.1,-1.7 3.3,-1.1 3.4,-0.4 3.5,0.1 3.4,0.8 3.2,1.4 2.9,1.9 2.6,2.4 2,2.8 1.5,3.2 0.9,3.3 0.4,3.5 m -21.5,-7.3 4,0 m -9.3,9.3 0,-4 m -205,-31 -0.2,-0.8 -0.5,-0.7 -0.7,-0.5 -0.8,-0.2 -0.8,0.2 -0.7,0.5 -0.5,0.7 -0.1,0.8 0.1,0.8 0.5,0.7 0.7,0.5 0.8,0.1 0.8,-0.1 0.7,-0.5 0.5,-0.7 0.2,-0.8 m 0.4,0 -0.2,-1 -0.6,-0.8 -0.8,-0.6 -1,-0.2 -1,0.2 -0.8,0.6 -0.5,0.8 -0.2,1 0.2,1 0.5,0.8 0.8,0.5 1,0.2 1,-0.2 0.8,-0.5 0.6,-0.8 0.2,-1 m 1,0 -0.3,-1.4 -0.7,-1.2 -1.2,-0.7 -1.4,-0.3 -1.4,0.3 -1.1,0.7 -0.8,1.2 -0.3,1.4 0.3,1.4 0.8,1.1 1.1,0.8 1.4,0.3 1.4,-0.3 1.2,-0.8 0.7,-1.1 0.3,-1.4 m -7.2,0 0.3,1.4 0.8,1.1 1.1,0.8 1.4,0.3 1.4,-0.3 1.2,-0.8 0.7,-1.1 0.3,-1.4 -0.3,-1.4 -0.7,-1.2 -1.2,-0.7 -1.4,-0.3 -1.4,0.3 -1.1,0.7 -0.8,1.2 -0.3,1.4 m -9.4,0 0.3,2.9 1,2.7 1.5,2.5 2.1,2.1 2.5,1.5 2.7,1 2.9,0.3 2.9,-0.3 2.8,-1 2.5,-1.5 2,-2.1 1.6,-2.5 0.9,-2.7 0.4,-2.9 -0.4,-2.9 -0.9,-2.8 -1.6,-2.4 -2,-2.1 -2.5,-1.6 -2.8,-0.9 -2.9,-0.3 -2.9,0.3 -2.7,0.9 -2.5,1.6 -2.1,2.1 -1.5,2.4 -1,2.8 -0.3,2.9 m -2.2,0 0.3,-3.1 0.9,-2.9 1.5,-2.7 2,-2.4 2.5,-1.9 2.7,-1.3 3,-0.8 3.1,-0.1 3,0.4 2.9,1.1 2.7,1.6 2.2,2.2 1.8,2.5 1.2,2.8 0.6,3 0,3.1 -0.6,3.1 -1.2,2.8 -1.8,2.5 -2.2,2.1 -2.7,1.7 -2.9,1.1 -3,0.4 -3.1,-0.1 -3,-0.8 -2.7,-1.4 -2.5,-1.9 -2,-2.3 -1.5,-2.7 -0.9,-2.9 -0.3,-3.1 m -0.2,0 0.3,-3.1 0.9,-3 1.5,-2.7 2.1,-2.4 2.5,-1.9 2.8,-1.4 3,-0.8 3.1,-0.1 3.1,0.4 2.9,1.1 2.7,1.7 2.2,2.1 1.8,2.6 1.3,2.9 0.6,3 0,3.2 -0.6,3 -1.3,2.9 -1.8,2.6 -2.2,2.1 -2.7,1.7 -2.9,1 -3.1,0.5 -3.1,-0.1 -3,-0.8 -2.8,-1.4 -2.5,-1.9 -2.1,-2.4 -1.5,-2.7 -0.9,-3 -0.3,-3.1 m 33.4,0 -0.3,-3.4 -1,-3.3 -1.5,-3 -2.1,-2.7 -2.6,-2.3 -3,-1.7 -3.2,-1.1 -3.4,-0.5 -3.4,0.2 -3.4,0.8 -3.1,1.4 -2.8,2 -2.3,2.5 -1.9,2.8 -1.2,3.2 -0.7,3.4 0,3.4 0.7,3.4 1.2,3.1 1.9,2.9 2.3,2.5 2.8,2 3.1,1.4 3.4,0.8 3.4,0.2 3.4,-0.5 3.2,-1.1 3,-1.7 2.6,-2.3 2.1,-2.7 1.5,-3 1,-3.3 0.3,-3.4 m 18.4,1.6 -4.6,0 m -29.8,0 -0.5,0 m -2.9,0 -0.6,0 m 38.4,-2.5 -3.8,0 m -30.2,0 -0.4,0 m -4,0 -0.4,0 m 37.3,-1.7 0,1.7 m -36,-1.4 0,0.4 m 60.5,54.4 0,-1 m 1.1,0 0,1 m 6,-1 0,1 m 1,-1 0,1 m -2.1,-1 0,1 m -29,-54.5 -1.5,0 m -33.3,0 -0.7,0 m -1.7,0 -0.3,0 M 2.6,3.1 2.6,2 m 0,-4 0,-1.7 m 21.2,6.8 0,-4.9 m -4,3.8 0,1.1 M 17,3.1 17,2 M 17,1.1 17,0.6 M 17,-4 17,-4.8 M 5.4,2 5.4,3.1 M -38.2,1 l 0,-5.8 m 0,0 52.7,0 m 0,0 3.1,0 m 0,0 0,-1.1 m -58,-5.1 0,4.2 m 0,0 0.9,0 m 0,0 0,-0.7 m 0.1,0.3 0,1 m 0,0 -1.3,0 m 0,0 0,4.4 m 0,0 0.3,0 m 0,0 0,2.6 m 0,0 0,0.3 0.1,0.2 0.1,0.2 0.1,0.1 0.2,0.2 0.2,0.1 0.2,0.1 0.2,0 m 0,0 61.8,0 m 0,0 0.3,0 0.2,-0.1 0.2,-0.1 0.1,-0.2 0.2,-0.1 0.1,-0.2 0.1,-0.2 0,-0.3 m 0,0 0,-2.6 m 0,0 0.3,0 m 0,0 0,-4.1 m -4.5,0 0,5.4 m 0,0 -1.7,0 m 0,0 0,1.5 m 0,0 4,0 m 0,0 0.9,-0.9 m 0,0 0,-1.9 m 0,0 0.1,0 m 0,0 0,2.4 m -0.5,0.5 0.1,0 0.1,0 0.1,-0.1 0.1,0 0,-0.1 0.1,-0.1 0,-0.1 0,-0.1 m -0.5,0.5 -61.3,0 m -0.5,-0.5 0,0.1 0,0.1 0.1,0.1 0,0.1 0.1,0 0.1,0.1 0.1,0 0.1,0 m -0.5,-0.5 0,-2.4 m 0,0 0.1,0 m 0,0 0,1.9 m 0,0 0.9,0.9 m 0,0 0.3,0 m 7.9,-6.7 0,-0.2 m -3.4,0.2 3.4,0 m -3.4,-0.2 0,0.2 m 9.6,0 0,-0.2 m -3.4,0.2 3.4,0 m -3.4,-0.2 0,0.2 m 9.7,0 0,-0.2 m -3.4,0.2 3.4,0 m -3.4,-0.2 0,0.2 m 9.6,0 0,-0.2 m -3.4,0.2 3.4,0 m -3.4,-0.2 0,0.2 m 9.6,0 0,-0.2 m -3.4,0.2 3.4,0 m -3.4,-0.2 0,0.2 m 9.7,0 0,-0.2 m -3.4,0.2 3.4,0 m -3.4,-0.2 0,0.2 m 9.6,0 0,-0.2 m -3.4,0.2 3.4,0 m -3.4,-0.2 0,0.2 m 9.7,0 0,-0.2 m -3.4,0.2 3.4,0 m -3.4,-0.2 0,0.2 m 9,5.2 0,-3.6 m -0.8,-1.3 -0.6,0.6 m -55.8,0 0.5,0.5 m -0.5,5.3 0.5,0 m 0,0 0,-5.3 m 56.7,0.9 -0.8,0 m 0.8,-0.9 -0.8,0 m 0.8,0.2 0,-0.1 0,-0.1 m -0.8,0 0,0.1 0,0.1 0,0.1 0,0.1 0,0.2 0,0.1 0,0.2 m -3.7,-0.9 -52.2,0 m 52.2,0 0,-0.5 m 4.5,0.5 0,-1.6 m -0.8,0 0,1.6 m -5.1,-1.6 0,0.1 0,0.1 m -2.9,0 0,-0.1 0,-0.1 M 4,-5.7 4,-5.8 4,-5.9 m 2.8,0 0,0.1 0,0.1 m -9,0 0,-0.1 0,-0.1 m 2.8,0 0,0.1 0,0.1 m -18.7,-0.2 0,0.1 0,0.1 m -2.8,0 0,-0.1 0,-0.1 m 9,0 0,0.1 0,0.1 m -2.8,0 0,-0.1 0,-0.1 m 9.1,0 0,0.1 0,0.1 m -2.9,0 0,-0.1 0,-0.1 m -22.1,0 0,0.1 0,0.1 m -2.8,0 0,-0.1 0,-0.1 m 9.1,0 0,0.1 0,0.1 m -2.9,0 0,-0.1 0,-0.1 m 46.2,5.3 -0.8,0 m 0,-2.8 0,2.8 m -3.7,-3.1 -52.2,0 m 52.2,0 0,-0.6 m 3.1,-0.5 0.6,0 m -57.7,-1.4 0,-0.2 0,-0.1 0,-0.1 0,-0.1 0,-0.1 m -0.9,0 0,0 0,0.1 0,0.1 0,0.1 0,0.1 0,0.2 m 52.9,5.5 -1.7,0 m 1.7,0 0,-3 m -1.7,3 0,-3 m -4.5,3 -1.7,0 m 0,0 0,-3 m 1.7,3 0,-3 m -6.3,3 -1.7,0 m 1.7,0 0,-3 m -1.7,3 0,-3 m -10.7,3 -1.7,0 m 1.7,0 0,-3 m -1.7,3 0,-3 m 7.9,3 -1.7,0 m 0,0 0,-3 m 1.7,3 0,-3 m -12.5,3 -1.7,0 m 0,0 0,-3 m 1.7,3 0,-3 m -12.4,3 -1.8,0 m 1.8,0 0,-3 m -1.8,3 0,-3 m 8,3 -1.7,0 m 0,0 0,-3 m 1.7,3 0,-3 m 45.5,4.8 -2.3,0 m 2.3,0 0,0 m -2.3,0 0,0 m 2.3,0 0,-0.1 M 18.3,1.1 18.3,1 M 0,0 0,0 0,-0.1 0,-0.2 0,-0.4 0,-0.7 m -1.7,0.7 0,0 0,-0.1 0,-0.1 0,-0.2 0,-0.3 m 14.2,0.7 0,0 0,-0.1 0,-0.1 0,-0.2 0,-0.3 m -1.7,0.7 0,0 0,-0.1 0,-0.1 0,-0.2 0,-0.3 M 4.6,0 l 0,0 0,-0.1 0,-0.1 0,-0.2 0,-0.3 m 1.7,0.7 0,0 0,-0.1 0,-0.1 0,-0.2 0,-0.3 M -7.9,0 l 0,0 0,-0.1 0,-0.1 0,-0.2 0,-0.3 m 1.7,0.7 0,0 0,-0.1 0,-0.1 0,-0.2 0,-0.3 m -6.2,0.7 0,0 0,-0.1 0,-0.1 0,-0.2 0,-0.3 m -1.7,0.7 0,0 0,-0.1 0,-0.1 0,-0.2 0,-0.3 m -6.3,0.7 0,0 0,-0.1 0,-0.1 0,-0.2 0,-0.3 m 1.7,0.7 0,0 0,-0.1 0,-0.1 0,-0.2 0,-0.3 m -12.4,0.7 0,0 0,-0.1 0,-0.1 0,-0.2 0,-0.3 m -1.8,0.7 0,0 0,-0.1 0,-0.1 0,-0.2 0,-0.3 m 6.3,0.7 0,0 0,-0.1 0,-0.1 0,-0.2 0,-0.3 m 1.7,0.7 0,0 0,-0.1 0,-0.1 0,-0.2 0,-0.3 m 43.1,0.1 0,0.1 m -2.5,1.1 2.1,0 m -2.1,0 0,-4.6 m 0,0 2.5,0 m -3.1,4.6 0,0 0.2,0 0.4,0 m -0.6,-4.6 0,0 0.2,0 0.4,0 m -3.6,4.6 -40.9,0 m 0,0 0,0.1 0,0.1 0,0.1 0,0.1 0,0.1 m 40.9,0 0,0 0,-0.1 0,-0.1 0,-0.1 0,-0.1 0,-0.1 m -40.3,-2.6 1.6,0 m 1.7,0 4.5,0 m 1.7,0 4.6,0 m 1.7,0 4.5,0 m 1.7,0 4.5,0 m 1.7,0 4.6,0 m 1.7,0 4.5,0 m -39.6,0.6 0,-0.1 0.1,-0.1 0,-0.1 0.1,-0.1 0.1,-0.1 0.1,0 0.1,-0.1 0.1,0 m -0.6,2.6 0,-2 m 40.9,1.4 0,0.6 M -41,-10 l -3.1,0 m 3.7,0 -0.6,0 m 0.2,49 0,0.2 0,0.2 0,0.1 0,0.1 0,0.1 0,0.1 0,0.1 m 0,0 0.8,-0.1 m 0.2,-5.4 -1,-0.2 m 0,0 0,0 0,0.1 0,0.1 0,0.1 0,0.1 0,0.1 0,0.2 0,0.2 m 0,-18.8 0,0.2 0,0.2 0,0.1 0,0.2 0,0.1 0,0.1 m 0,0 1,-0.2 m 0,-5.3 -1,-0.2 m 0,0 0,0 0,0.1 0,0.1 0,0.1 0,0.1 0,0.2 0,0.1 0,0.2 m -3.3,21.8 3.3,0 m -3.3,-22.7 3.3,0 m 0,28.4 -3.3,0 m 3.3,-22.7 -3.3,0 m 3.3,23.5 0,-0.1 0,-0.2 0,-0.1 0,-0.2 0,-0.1 0,-0.1 m 0,-5.7 0,0 0,-0.1 0,-0.1 0,-0.2 0,-0.1 0,-0.2 0,-0.1 m 0,-15.3 0,-0.2 0,-0.2 0,-0.1 0,-0.2 0,-0.1 0,-0.1 m 0,-5.7 0,0 0,-0.1 0,-0.1 0,-0.1 0,-0.2 0,-0.2 0,-0.1 m -51,32.3 0,1 m 51.4,-53.2 -3.7,0 m 8.2,12.3 1.2,-1.1 m 0.4,-5.7 0,4.8 m -1.7,2 0,-1.1 m 0,-0.9 0,-4.8 m 12.7,0 0,1.7 m 1.6,5.1 -1.2,-1.1 m 1.3,-5.7 0,1.7 m 0,4 0,1.1 M -7.3,3.1 -8.5,2 m -13,1.1 1.2,-1.1 m -1.3,1.1 0,-1.1 m 0,-4 0,-1.7 m 12.7,0 0,1.7 m 1.7,4 0,1.1 m -114.9,-15.3 0,1.1 m 78,0 3.6,0 m -81.8,-1.1 0,1.1 m -0.5,-1.1 0,1.1 m -0.7,0 0,-1.1 m -1.1,1.1 0,-1.1 m -1.3,1.1 0,-1.1 m -1.5,1.1 0,-1.1 m -1.6,1.1 0,-0.8 m 0,0.8 0.8,0 m -2.2,0 1.4,0 m 35.1,54.1 0,1 m -142.2,-74.6 -0.7,1.1 -1.6,3.5 -1,3.8 -0.4,3.8 m 0,9.8 0,4.5 m 0,12.9 0,4.5 m 0,22 0,4.4 m 0,13 0,4.5 m 0,10.2 0.4,3.8 1,3.7 1.6,3.5 2.2,3.2 2.7,2.7 3.2,2.2 3.5,1.7 3.7,0.9 3.8,0.4 m 116.4,-45.5 0,-1 m 64.3,-48.9 61.2,0 m 0,0 0.6,0 0.5,0.2 0.5,0.2 0.4,0.4 0.4,0.4 0.3,0.5 0.1,0.6 0.1,0.5 m 0,0 0,3.4 m 0,0 -0.1,0.6 -0.1,0.5 -0.3,0.5 -0.4,0.4 -0.4,0.4 -0.5,0.2 -0.5,0.2 -0.6,0 m 0,0 -61.2,0 m 0,0 -0.5,0.1 -0.6,0.2 -0.5,0.2 -0.4,0.4 -0.3,0.4 -0.3,0.5 -0.2,0.5 0,0.6 m 0,0 0,32.3 m 0,0 -0.1,1.1 -0.4,1.1 -0.5,0.9 -0.7,0.9 -0.8,0.7 -1,0.5 -1.1,0.4 -1.1,0.1 m 0,0 -81.6,0 m 193.5,-62.4 0,32.5 m 0,20.8 0,32.5 m -22.1,-107.9 3.8,0.3 3.7,1 3.5,1.6 3.2,2.3 2.7,2.7 2.2,3.1 1.6,3.5 1,3.8 0.4,3.8 m -283.7,-22.1 261.6,0 m -283.7,107.9 0,-32.5 m 0,-20.8 0,-32.5 m 22.1,107.9 -3.8,-0.4 -3.7,-0.9 -3.5,-1.7 -3.2,-2.2 -2.7,-2.7 -2.2,-3.2 -1.6,-3.5 -1,-3.7 -0.4,-3.8 m 283.7,22.1 -261.6,0 M 66.4,67.4 66,71.2 l -1,3.7 -1.6,3.5 -2.2,3.2 -2.7,2.7 -3.2,2.2 -3.5,1.7 -3.7,0.9 -3.8,0.4 m -283.7,-107.9 0.4,-3.8 1,-3.8 1.6,-3.5 2.2,-3.1 2.7,-2.7 3.2,-2.3 3.5,-1.6 3.7,-1 3.8,-0.3 m 177.5,31.2 0,0.5 m -87.3,-3.4 84.4,0 m -90.1,50.5 0,-44.8 m 5.7,50.5 -1.1,-0.1 -1.1,-0.4 -1,-0.5 -0.8,-0.7 -0.7,-0.9 -0.6,-0.9 -0.3,-1.1 -0.1,-1.1 m -11.9,-47.1 -0.3,3.6 -1,3.4 -1.5,3.2 -2.1,2.9 -2.6,2.4 -2.9,2 -3.3,1.4 -3.5,0.8 -3.5,0.2 -3.6,-0.5 -3.3,-1.1 -3.2,-1.7 -2.8,-2.2 -2.3,-2.7 -1.8,-3.1 -1.3,-3.3 -0.6,-3.5 0,-3.5 0.6,-3.5 1.3,-3.4 1.8,-3 2.3,-2.7 2.8,-2.2 3.2,-1.7 3.3,-1.1 3.6,-0.5 3.5,0.2 3.5,0.8 3.3,1.4 2.9,1.9 2.6,2.5 2.1,2.9 1.5,3.2 1,3.4 0.3,3.5 m 102,-3.4 0.6,0.1 0.5,0.1 0.5,0.3 0.4,0.4 0.4,0.4 0.3,0.5 0.1,0.5 0.1,0.6 m -93,2.8 0.1,-1.1 0.3,-1.1 0.6,-0.9 0.7,-0.9 0.8,-0.7 1,-0.5 1.1,-0.4 1.1,-0.1 m 87.3,3.4 0,0.6 0.2,0.5 0.3,0.5 0.3,0.4 0.4,0.4 0.5,0.3 0.6,0.1 0.5,0.1 m 80.7,-35 3.9,0.3 3.8,1.1 3.6,1.6 3.3,2.3 2.8,2.8 1.6,2.2 m -279.8,-10.3 260.8,0 m -283.5,22.7 0.4,-4 1,-3.8 1.7,-3.6 2.2,-3.2 2.8,-2.8 3.3,-2.3 3.5,-1.6 3.9,-1.1 3.9,-0.3 m -22.7,22.7 0,9.6 m 0,17.4 0,-12.9 m 0,56.8 0,-13 m 0,13 0.4,0.6 m 0,3.3 -0.4,0.6 m 0,0 0,9.6 m 10.3,19 -2.2,-1.6 -2.8,-2.8 -2.2,-3.3 -1.7,-3.5 -1,-3.9 -0.4,-3.9 m 0,-31.5 0,-1.1 m 0,-19.4 0,-1.5 m 0,22 0.4,0.5 m 0,-40.5 -0.4,0.6 m 0,12.9 0.4,0.6 m 0,29.8 -0.4,0.5 m 0.4,-27 -0.4,0.6 m 0,-21.9 0.4,0.6 m 195.3,51 -27.7,0 m 27.7,-54.1 0,54.1 m -84.1,-54.1 84.1,0 m -84.1,54.1 0,-54.1 m 27.6,54.1 -27.6,0 m 27.6,-12.8 0,12.8 m -22,-12.8 0,-34.9 m 0,0 72.9,0 m 0,0 0,34.9 m -22.1,0 0,12.8 m 22.1,-12.8 -22.1,0 m -28.8,0 -22,0 m 49.9,-25.6 1.8,0 m -1.8,1.8 0,-1.8 m 1.8,1.8 -1.8,0 m 1.8,-1.8 0,1.8 m -31.4,15.3 3.5,0 m 0,0 -0.9,-0.8 m 0,0 -1.8,0 m -0.8,0.8 0.8,-0.8 m 28,0.8 3.5,0 m 0,0 -0.9,-0.8 m 0,0 -1.8,0 m -0.8,0.8 0.8,-0.8 m -27,-1.8 0,1.8 m 0.9,0.8 0,-3.5 m -0.9,0.9 0.9,-0.9 m 10.9,3.5 3.5,0 m 0,0 -0.9,-0.8 m 0,0 -1.8,0 m -0.8,0.8 0.8,-0.8 m -12.6,-14.5 -1.8,0 m -0.8,0.9 0.8,-0.9 m -0.8,0.9 3.5,0 m -0.9,-0.9 0.9,0.9 m -2.7,11.8 1.8,0 m 0.9,-0.9 -3.5,0 m 0.8,0.9 -0.8,-0.9 m 0.8,-13.6 1.8,0 m -1.8,1.8 0,-1.8 m 1.8,0 0,1.8 m 14.4,12.7 0,1.8 m 0.9,0.8 0,-3.5 m -0.9,0.9 0.9,-0.9 m -14.4,-10.9 0,-3.5 m -0.9,0.8 0.9,-0.8 m -3.5,0 0,3.5 m 0,-3.5 0.8,0.8 m 0,16.3 0,-1.8 m -0.8,-0.9 0,3.5 m 28.8,-14.4 0.8,-0.9 m -0.8,0.9 3.5,0 m -0.9,-0.9 0.9,0.9 m -0.9,11.8 0,1.8 m 0.9,0.8 0,-3.5 m -0.9,0.9 0.9,-0.9 m -17.1,-13.6 1.8,0 m -1.8,1.8 0,-1.8 m 1.8,1.8 -1.8,0 m 1.8,-1.8 0,1.8 m -2.6,-2.6 0,3.5 m 0,0 0.8,-0.9 m -0.8,-2.6 0.8,0.8 m 1.8,0 0.9,-0.8 m 0,0 -3.5,0 m 0.8,17.1 0,-1.8 m 0,0 -0.8,-0.9 m 0,0 0,3.5 m 14.4,-17.9 0,3.5 m 0,-3.5 0.8,0.8 m -14.4,14.5 1.8,0 m 0.9,-0.9 -3.5,0 m 17,-13.6 0.9,-0.8 m 0,0 -3.5,0 m 3.5,3.5 0,-3.5 m -15.3,2.6 0.9,0.9 m 0,0 0,-3.5 m -14.4,0 -3.5,0 m 14.4,3.5 3.5,0 m 11.7,11.8 1.8,0 m 0.9,-0.9 -3.5,0 m 0.8,0.9 -0.8,-0.9 m 0.8,2.7 0,-1.8 m -0.8,-0.9 0,3.5 m 1.7,21.3 -28.8,0 m 28.8,-12.8 -28.8,0 m -6,13.8 0,-1 m 7.8,0 0,1 m -4.6,0 0,-1 M -41,-9.2 -41,-10 m 0.2,45.1 0.8,0.1 0.2,0.1 m -0.1,3.5 -0.1,0.1 -0.8,0.1 m -3.3,0 3.3,0 m 0,-3.9 -3.3,0 m 0,-18.8 3.3,0 m 0,-3.9 0.8,0.1 0.2,0.2 m 0,3.4 -0.2,0.1 -0.8,0.1 m 0,-3.9 -3.3,0 m 3.3,21 1,0.1 m -0.6,7.1 -0.4,0.1 m 0,-30 1,0.2 m 0,7 -1,0.2 m -3.3,15.3 3.3,0 m -3.3,-22.7 3.3,0 m 0,30 -3.3,0 m 3.3,-22.6 -3.3,0 m -45.4,24.9 0,1"
         style="fill:none;stroke:#000000;stroke-width:0.70899999;stroke-linecap:round;stroke-linejoin:round;stroke-miterlimit:10;stroke-opacity:1;stroke-dasharray:none"
         id="path3867" /></g><g
       id="g3873"
       transform="translate(720.94315,407.32039)"><path
         inkscape:connector-curvature="0"
         d="m 0,0 0,-0.6 m 82.4,0 0,0.6 m -71.8,37.6 0,11.4 m 61.2,0 0,-11.4 M -3.8,4.5 -3.9,4.5 -4.1,4.4 -4.2,4.2 -4.2,4.1 -4.3,4 -4.4,3.9 l 0,-0.2 0,-0.1 m 91.2,0 0,0.1 -0.1,0.2 0,0.1 -0.1,0.1 -0.1,0.1 -0.1,0.2 -0.1,0.1 -0.1,0 m -170.9,-0.3 0,0 m 68.6,7.6 0.5,0.3 0.4,0.4 0.2,0.5 0.1,0.5 -0.1,0.6 -0.2,0.4 -0.4,0.4 -0.5,0.3 m -68.6,0 -0.4,-0.3 -0.4,-0.4 -0.2,-0.4 -0.1,-0.6 0.1,-0.5 0.2,-0.5 0.4,-0.4 0.4,-0.3 m 68.6,36.9 0.5,0.3 0.4,0.4 0.2,0.4 0.1,0.6 -0.1,0.5 -0.2,0.5 -0.4,0.4 -0.5,0.3 m -68.6,0 -0.4,-0.3 -0.4,-0.4 -0.2,-0.5 -0.1,-0.5 0.1,-0.6 0.2,-0.4 0.4,-0.4 0.4,-0.3 M 108.2,37 l 0,-4 m -4.3,0 0,4 m 13.6,5.3 -4.1,0 m 0,4.2 4.1,0 m 9.5,-9.5 0,-4 m -7.2,4 7.2,0 m -7.2,0 -2.3,2.3 m -4.1,0 0,7.2 m 0,-7.2 -2.3,-2.3 m 0,-4 -7.2,0 m 7.2,0 2.3,-2.3 m 0,-7.2 0,7.2 m 4.1,-7.2 -4.1,0 m 4.1,7.2 0,-7.2 m 10.8,11.5 -0.3,2.8 -1,2.7 -1.5,2.5 -2.1,2 -2.4,1.5 -2.7,1 -2.8,0.3 -2.9,-0.3 -2.7,-1 -2.4,-1.5 -2.1,-2 -1.5,-2.5 -0.9,-2.7 -0.4,-2.8 0.4,-2.9 0.9,-2.7 1.5,-2.4 2.1,-2 2.4,-1.6 2.7,-0.9 2.9,-0.3 2.8,0.3 2.7,0.9 2.4,1.6 2.1,2 1.5,2.4 1,2.7 0.3,2.9 m -24.4,2 7.2,0 m 6.4,-6.3 2.3,2.3 m -2.3,13.5 0,-7.2 m 9.5,-6.3 -7.2,0 m 15.1,2 -0.3,3.5 -0.9,3.3 -1.6,3.2 -2,2.8 -2.5,2.4 -2.9,1.9 -3.2,1.4 -3.4,0.7 -3.5,0.2 -3.5,-0.5 -3.3,-1 -3.1,-1.7 -2.7,-2.2 -2.3,-2.6 -1.8,-3 -1.2,-3.2 -0.6,-3.5 0,-3.5 0.6,-3.4 1.2,-3.2 1.8,-3 2.3,-2.7 2.7,-2.1 3.1,-1.7 3.3,-1.1 3.5,-0.4 3.5,0.1 3.4,0.8 3.2,1.4 2.9,1.9 2.5,2.4 2,2.8 1.6,3.2 0.9,3.3 0.3,3.5 m -21.5,-7.3 4.1,0 m 5.2,5.3 0,4 m -268.6,0 0,-4 m -7.2,4 7.2,0 m -7.2,0 -2.3,2.3 m 0,7.2 0,-7.2 m -4,7.2 4,0 m -4,-7.2 0,7.2 m 0,-7.2 -2.3,-2.3 m -7.2,0 7.2,0 m -7.2,-4 0,4 m 7.2,-4 -7.2,0 m 7.2,0 2.3,-2.3 m 0,-7.2 0,7.2 m 4,-7.2 -4,0 m 4,7.2 0,-7.2 m 10.8,11.5 -0.3,2.8 -1,2.7 -1.5,2.5 -2,2 -2.4,1.5 -2.8,1 -2.8,0.3 -2.9,-0.3 -2.7,-1 -2.4,-1.5 -2,-2 -1.6,-2.5 -0.9,-2.7 -0.3,-2.8 0.3,-2.9 0.9,-2.7 1.6,-2.4 2,-2 2.4,-1.6 2.7,-0.9 2.9,-0.3 2.8,0.3 2.8,0.9 2.4,1.6 2,2 1.5,2.4 1,2.7 0.3,2.9 m -1.3,-2 -7.2,0 m -2.3,-2.3 2.3,2.3 m 15.1,2 -0.3,3.5 -0.9,3.3 -1.5,3.2 -2.1,2.8 -2.5,2.4 -2.9,1.9 -3.2,1.4 -3.4,0.7 -3.5,0.2 -3.4,-0.5 -3.3,-1 -3.1,-1.7 -2.7,-2.2 -2.3,-2.6 -1.8,-3 -1.2,-3.2 -0.7,-3.5 0,-3.5 0.7,-3.4 1.2,-3.2 1.8,-3 2.3,-2.7 2.7,-2.1 3.1,-1.7 3.3,-1.1 3.4,-0.4 3.5,0.1 3.4,0.8 3.2,1.4 2.9,1.9 2.5,2.4 2.1,2.8 1.5,3.2 0.9,3.3 0.3,3.5 m -17.4,7.3 -4,0 m -5.3,-5.3 0,-4 m 5.3,-5.3 4,0 m 5.3,5.3 0,4 m -27.1,-2 0.3,3.5 0.9,3.3 1.5,3.2 0.3,0.4 m 0,-20.8 -0.3,0.4 -1.5,3.2 -0.9,3.3 -0.3,3.5 M 57.5,0 57.5,0 56.7,-0.2 55.9,0 m -0.8,0 0.6,-0.4 1,-0.2 1,0.2 0.1,0.1 M 53.7,0 54.2,-0.6 m 28.2,0.5 1.3,0 m 0,0 0,0.1 m -51.9,-0.1 3.7,0 m 0,0 0,0.1 m 14.6,-0.6 -0.2,0.5 0,0.1 m 33.8,-0.6 0,0.5 m -1.3,0.1 0,-0.6 m -85.1,33.4 0.5,0 m 86.7,0 0.6,0 m -45.6,28.1 -2.6,0 m 0,2 0,-0.3 0,-0.4 0,-0.3 0,-0.2 0,-0.3 0,-0.2 0,-0.2 0,-0.1 m 2.6,2 0,-0.3 0,-0.4 0,-0.3 0,-0.2 0,-0.3 0,-0.2 0,-0.2 0,-0.1 m 3.4,0 2.5,0 m 0,0 0,0.1 0,0.2 0,0.2 0,0.3 0,0.2 0,0.3 0,0.4 0,0.3 m -2.5,0 0,-0.3 0,-0.4 0,-0.3 0,-0.2 0,-0.3 0,-0.2 0,-0.2 0,-0.1 m -23.8,0 2.5,0 m 0,0 0,0.1 0,0.2 0,0.2 0,0.3 0,0.2 0,0.3 0,0.4 0,0.3 m -2.5,0 0,-0.3 0,-0.4 0,-0.3 0,-0.2 0,-0.3 0,-0.2 0,-0.2 0,-0.1 m 35.7,0 2.5,0 m 0,0 0,0.1 0,0.2 0,0.2 0,0.3 0,0.2 0,0.3 0,0.4 0,0.3 m -2.5,0 0,-0.3 0,-0.4 0,-0.3 0,-0.2 0,-0.3 0,-0.2 0,-0.2 0,-0.1 m -21.3,0 -2.5,0 m 0,2 0,-0.3 0,-0.4 0,-0.3 0,-0.2 0,-0.3 0,-0.2 0,-0.2 0,-0.1 m 2.5,2 0,-0.3 0,-0.4 0,-0.3 0,-0.2 0,-0.3 0,-0.2 0,-0.2 0,-0.1 m 29.8,0 -2.6,0 m 2.6,2 0,-0.3 0,-0.4 0,-0.3 0,-0.2 0,-0.3 0,-0.2 0,-0.2 0,-0.1 m -2.6,2 0,-0.3 0,-0.4 0,-0.3 0,-0.2 0,-0.3 0,-0.2 0,-0.2 0,-0.1 m -11.9,0 2.6,0 m 0,0 0,0.1 0,0.2 0,0.2 0,0.3 0,0.2 0,0.3 0,0.4 0,0.3 m -2.6,0 0,-0.3 0,-0.4 0,-0.3 0,-0.2 0,-0.3 0,-0.2 0,-0.2 0,-0.1 m -21.2,0 -2.6,0 m 2.6,2 0,-0.3 0,-0.4 0,-0.3 0,-0.2 0,-0.3 0,-0.2 0,-0.2 0,-0.1 m -2.6,2 0,-0.3 0,-0.4 0,-0.3 0,-0.2 0,-0.3 0,-0.2 0,-0.2 0,-0.1 m 20.4,-16.2 -2.5,0 m 2.5,16.2 0,-16.2 m -2.5,16.2 0,-16.2 m -23.8,0 2.5,0 m 0,16.2 0,-16.2 m -2.5,16.2 0,-16.2 m 38.2,0 -2.5,0 m 2.5,16.2 0,-16.2 m -2.5,16.2 0,-16.2 m -3.4,0 -2.6,0 m 2.6,16.2 0,-16.2 m -2.6,16.2 0,-16.2 m -17.8,0 2.5,0 m -2.5,0 0,16.2 m 2.5,-16.2 0,16.2 m 27.2,-16.2 2.6,0 m 0,0 0,16.2 m -2.6,-16.2 0,16.2 m -23.8,-16.2 2.6,0 m -2.6,0 0,16.2 m 2.6,-16.2 0,16.2 M 25,44.7 l 2.6,0 m 0,0 0,16.2 M 25,44.7 25,60.9 m 38.2,-42 0,-12.2 m 0,0 -0.1,0 -0.1,0 -0.1,0 -0.1,0 -0.1,0 -0.1,0 m 0.6,12.2 -0.1,0 -0.1,0 -0.1,0 -0.1,0 -0.1,0 -0.1,0 m 17.3,-12.2 0,12.2 m 0,-12.2 -16.7,0 m 16.7,12.2 -16.7,0 m 0,-12.2 0,-0.1 0,-0.1 0,-0.1 0,-0.1 0,-0.1 0,-0.1 m 16.7,0 0,0 0,0.1 0,0.1 0,0.1 0,0.1 0,0.1 0,0.1 m 0.6,0 0,0 -0.1,0 -0.1,0 -0.1,0 -0.2,0 -0.1,0 m 0.6,12.2 0,0 -0.1,0 -0.1,0 -0.1,0 -0.2,0 -0.1,0 m -16.7,0.6 0,0 0,-0.1 0,-0.1 0,-0.1 0,-0.1 0,-0.2 m 16.7,0 0,0.2 0,0.1 0,0.1 0,0.1 0,0.1 m 0.6,-12.8 0,-0.1 0,-0.1 -0.1,-0.1 -0.1,-0.1 0,-0.1 -0.1,0 -0.2,-0.1 -0.1,0 m -16.7,0 -0.1,0 -0.1,0.1 -0.1,0 -0.1,0.1 -0.1,0.1 0,0.1 0,0.1 -0.1,0.1 m 0,12.2 0.1,0.2 0,0.1 0,0.1 0.1,0 0.1,0.1 0.1,0.1 0.1,0 0.1,0 m 16.7,0 0.1,0 0.2,0 0.1,-0.1 0,-0.1 0.1,0 0.1,-0.1 0,-0.1 0,-0.2 m -0.3,-12.7 0,-0.1 m 0,-6.1 0,-0.6 m -2.8,0 0,0.6 M 63,6.2 63,6.1 M 63,0 63,-0.6 m 2.8,0.6 0,-0.6 m -46.6,7.3 0,12.2 m 0,-12.2 -16.8,0 m 0,12.2 0,-12.2 m 16.8,12.2 -16.8,0 m 17.3,-12.2 0,0 -0.1,0 -0.1,0 -0.1,0 -0.1,0 -0.1,0 m 0.5,12.2 0,0 -0.1,0 -0.1,0 -0.1,0 -0.1,0 -0.1,0 M 2.4,6.7 l 0,-0.1 0,-0.1 0,-0.1 0,-0.1 0,-0.1 0,-0.1 m 16.8,0 0,0 0,0.1 0,0.1 0,0.1 0,0.1 0,0.1 0,0.1 m -16.8,0 -0.1,0 -0.1,0 -0.1,0 -0.1,0 -0.1,0 m 0.5,12.2 -0.1,0 -0.1,0 -0.1,0 -0.1,0 -0.1,0 m 0.5,0.6 0,0 0,-0.1 0,-0.1 0,-0.1 0,-0.1 0,-0.2 m 16.8,0 0,0.2 0,0.1 0,0.1 0,0.1 0,0.1 M 2.4,6.1 2.3,6.1 2.2,6.2 2.1,6.2 2,6.3 2,6.4 1.9,6.5 l 0,0.1 0,0.1 m 17.8,0 0,-0.1 0,-0.1 -0.1,-0.1 0,-0.1 -0.1,-0.1 -0.1,0 -0.1,-0.1 -0.1,0 m -17.3,12.8 0,0.2 0,0.1 0.1,0.1 0.1,0.1 0.1,0.1 0.1,0 0.1,0 m 16.8,0 0.1,0 0.1,0 0.1,-0.1 0.1,-0.1 0.1,-0.1 0,-0.1 0,-0.2 m -0.3,-12.7 0,-0.1 m 0,-6.1 0,-0.6 m -2.8,0 0,0.6 M 2.2,6.2 2.2,6.1 m 0,-6.1 0,-0.6 M 5,0 5,-0.6 m 24,0 0,0.6 m 2.8,0 0,-0.6 m 28.8,0.6 0,-0.6 m -2.8,0.6 0,-0.6 M 43.4,0 l 0,-0.6 m 2.8,0.6 0,-0.6 M 24.6,0 l 0,-0.6 m -2.8,0.6 0,-0.6 m 31.6,0.6 0,-0.6 m -2.8,0.6 0,-0.6 M 39,0 39,-0.6 m -2.8,0.6 0,-0.6 M 25,1.4 25.3,1.1 m -0.3,5 0,12.3 m 3.4,0 -3.4,0 m 3.4,-17.3 0,17.3 m -3.1,-17.3 0.6,0 m 59.2,11 0,4.9 m 0,11.4 0,0 -0.1,0 -0.1,0 -0.1,0 M -2.7,17 l 0,-4.9 m 0.3,16.3 -0.1,0 -0.1,0 -0.1,0 m 0,-27 0,0 0.1,0 0.1,0 0.1,0 m 59.7,17 -3.4,0 m 3.4,0 0,-12.3 m 0,-4.7 -0.2,-0.3 m -0.6,0 0.6,0 m -3.2,17.3 0,-17.3 m 5.7,17.3 -2.3,0 m 2.3,3.4 0,-3.4 m 18.7,3.4 -18.7,0 m -36.8,0 -18.7,0 m 18.7,-3.4 0,3.4 m 2.2,-3.4 -2.2,0 m -3.1,1.1 0,-13.4 m -15.6,13.4 15.6,0 m 58.6,0 -15.7,0 m 0,0 0,-13.4 m -39.8,19.1 -15.3,0 m 15.3,-3.4 0,3.4 M 4.1,21.8 7.5,25.2 m -9.9,-24.1 -0.1,0 0,0.1 -0.1,0 0,0.1 -0.1,0 0,0.1 m 87.8,0 0,0 -0.1,-0.1 0,-0.1 -0.1,0 -0.1,-0.1 m -59.8,0 0.3,0 m 31.8,0 0.2,0 m -49.8,24.1 0,10.2 m -3.4,0 3.4,0 m 67.4,-10.2 -15.3,0 m 18.7,-3.4 -3.4,3.4 m -15.3,0 0,-3.4 m 15.3,13.6 0,-10.2 m 3.4,10.2 -3.4,0 m 3.4,30.9 -3.4,-3.4 m -67.4,0 67.4,0 m -67.4,0 -3.4,3.4 m 3.4,-15 0,11.6 m -3.4,-11.6 3.4,0 m 67.4,0 3.4,0 m -3.4,11.6 0,-11.6 m -4.1,25.5 -4.8,0 m -11.3,0 -4.9,0 m -17.2,0 -4.9,0 m -11.3,0 -4.9,0 M 53.9,4 28.4,4 M 11.2,0 10.8,-0.6 M 6.4,-0.6 6,0 M 76.4,0 76,-0.6 m -4.4,0 L 71.2,0 M 7.5,51.3 7.5,49 m 0,-11.4 0,-2.2 m 67.4,22.9 -11.6,0 m -2.6,0 -3.4,0 m -2.5,0 -3.4,0 m -2.6,0 -3.4,0 m -2.5,0 -3.4,0 m -2.6,0 -3.4,0 m -2.5,0 -3.4,0 m -2.6,0 -3.4,0 m -2.5,0 -11.6,0 m 67.4,-22.9 0,2.2 m 0,11.4 0,2.3 m 3.4,-31.8 0,17.6 m -0.5,0.5 0.1,0 0.1,0 0.1,0 0.1,-0.1 0,-0.1 0.1,-0.1 0,-0.1 0,-0.1 m -0.5,0.5 -1.2,0 m 0,11.4 0,-11.4 m 0,11.4 1.2,0 m 0.5,0.6 0,-0.2 0,-0.1 -0.1,-0.1 -0.1,-0.1 -0.1,-0.1 -0.1,0 -0.1,0 m 0.5,0.6 0,16.7 m 0,0 -74.2,0 m 0,0 0,-16.7 m 0.5,-0.6 -0.1,0 -0.1,0 -0.1,0.1 -0.1,0.1 -0.1,0.1 0,0.1 0,0.2 M 4.6,49 5.8,49 m 0,-11.4 0,11.4 m 0,-11.4 -1.2,0 m -0.5,-0.5 0,0.1 0,0.1 0.1,0.1 0,0.1 0.1,0.1 0.1,0 0.1,0 0.1,0 m -0.5,-0.5 0,-17.6 m 0,0 -2.2,0 m 0,0 0,-13.4 m 0,0 23.1,0 M -2.4,1.4 25,1.4 m -27.4,10.7 0,-10.7 m 0.3,11.2 0,-0.1 -0.1,-0.1 0,-0.1 -0.1,-0.1 -0.1,-0.1 m 0.3,0.5 0,3.8 m 0,12.5 0,-12.5 m 0,12.5 0,3.8 m -0.3,0.5 0.1,-0.1 0.1,-0.1 0,-0.1 0.1,-0.1 0,-0.1 m -0.3,12 0,-11.5 m 0.3,12 0,-0.1 -0.1,-0.1 0,-0.1 -0.1,-0.1 -0.1,-0.1 m 0.3,0.5 0,3.8 m 0,12.5 0,-12.5 m 0,12.5 0,3.8 m -0.3,0.5 0.1,-0.1 0.1,-0.1 0,-0.1 0.1,-0.1 0,-0.1 m -0.3,11.2 0,-10.7 m 0,10.7 13.9,0 m 0.5,-0.3 -0.1,0 -0.1,0 -0.1,0.1 -0.1,0 0,0.1 -0.1,0.1 m 0.5,-0.3 3.8,0 m 12.5,0 -12.5,0 m 12.5,0 3.8,0 m 0.5,0.3 -0.1,-0.1 0,-0.1 -0.1,0 -0.1,-0.1 -0.1,0 -0.1,0 m 0.5,0.3 17.2,0 m 0.5,-0.3 -0.1,0 -0.1,0 -0.1,0.1 -0.1,0 -0.1,0.1 0,0.1 m 0.5,-0.3 3.8,0 m 12.4,0 -12.4,0 m 12.4,0 3.9,0 m 0.5,0.3 -0.1,-0.1 -0.1,-0.1 -0.1,-0.1 -0.1,0 -0.1,0 m 0.5,0.3 13.9,0 m 0,-10.7 0,10.7 m -0.3,-11.2 0,0.1 0,0.1 0.1,0.1 0,0.1 0.1,0 0.1,0.1 m -0.3,-0.5 0,-3.8 m 0,-12.5 0,12.5 m 0,-12.5 0,-3.8 m 0.3,-0.5 -0.1,0.1 -0.1,0 0,0.1 -0.1,0.1 0,0.1 0,0.1 m 0.3,-12 0,11.5 m -0.3,-12 0,0.1 0,0.1 0.1,0.1 0,0.1 0.1,0 0.1,0.1 m -0.3,-0.5 0,-3.8 m 0,-12.5 0,12.5 m 0,-12.5 0,-3.8 m 0.3,-0.5 -0.1,0.1 -0.1,0 0,0.1 -0.1,0.1 0,0.1 0,0.1 m 0.3,-11.2 0,10.7 M 57.3,1.4 l 27.5,0 m -27.5,0 0,4.7 m 23.2,0 -23.2,0 m 23.2,13.4 0,-13.4 m -2.2,13.4 2.2,0 M 25,6.1 25,1.4 M -2.8,17 l 0.3,0 0.2,-0.2 0.1,-0.1 0.1,-0.2 0,-0.1 m -0.7,0.6 -1.1,0.1 -1.1,0 -0.4,0.1 m 0,10.9 0,-10.9 m 0,10.9 0.7,0.1 1.2,0.1 0.7,0 m 0.7,0.6 -0.1,-0.2 0,-0.1 -0.2,-0.2 -0.2,-0.1 -0.2,0 m 88,0 -0.3,0.1 -0.2,0.1 -0.1,0.1 -0.1,0.2 0,0.1 m 0,-12.5 0,0.2 0.1,0.1 0.1,0.2 0.3,0.1 0.2,0 m 0,11.3 1.1,-0.1 1.1,0 0.4,-0.1 m 0,-10.9 0,10.9 M 87.8,17.2 87,17.1 85.9,17 85.2,17 m -0.7,32 0,0.2 0.1,0.1 0.1,0.2 0.3,0.1 0.2,0 m 0,11.3 -0.3,0.1 -0.2,0.1 -0.1,0.1 -0.1,0.2 0,0.1 m 0.7,-0.6 1.1,-0.1 1.1,0 0.4,-0.1 m 0,-10.9 0,10.9 m 0,-10.9 -0.8,-0.1 -1.1,-0.1 -0.7,0 m -88,0 0.3,0 0.2,-0.2 0.1,-0.1 0.1,-0.2 0,-0.1 m -0.7,0.6 -1.1,0.1 -1.1,0 -0.4,0.1 m 0,10.9 0,-10.9 m 0,10.9 0.7,0.1 1.2,0.1 0.7,0 m 0.7,0.6 -0.1,-0.2 0,-0.1 -0.2,-0.2 -0.2,-0.1 -0.2,0 m 31.1,15.3 -0.2,0 -0.1,0.1 -0.2,0.1 -0.1,0.3 0,0.2 m 38.8,-0.7 -0.1,0 -0.2,0.1 -0.1,0.1 -0.1,0.3 0,0.2 m -49.4,2.6 -0.1,-0.8 0,-1.1 -0.1,-0.7 m 11.1,2.6 -10.9,0 m 11.1,-2.6 -0.1,1.1 0,1.1 -0.1,0.4 m -11.1,-2.6 0,-0.3 -0.2,-0.2 -0.1,-0.1 -0.2,-0.1 -0.1,0 m 38.9,0.7 -0.1,-0.3 -0.1,-0.2 -0.1,-0.1 -0.2,-0.1 -0.1,0 m 0.7,3.3 0,-0.8 -0.1,-1.1 0,-0.7 m 11.1,2.6 -11,0 M 66,76.9 65.9,78 l 0,1.1 -0.1,0.4 m 20.4,-78.1 0,10.7 m -1.4,-10.7 0.3,0 0.2,0 0.3,0 0.2,0 0.2,0 0.1,0 0.1,0 m -1.1,10.6 -0.2,0.1 -0.1,0 m 1.4,0 0,0 -0.1,0 -0.1,0 -0.2,0 -0.2,0 -0.3,-0.1 -0.2,0 m 0,0 0,0.1 m -0.3,0.1 -0.1,0.1 -0.1,0 0,0.1 -0.1,0.1 0,0.1 0,0.1 m 0.3,-0.5 0.1,0 0,-0.1 0.1,0 0.1,0 m 0,32.5 0,0.1 m 0,-0.1 -0.2,0.1 -0.1,0 m 0,0.1 -0.1,0 -0.1,0.1 0,0.1 -0.1,0.1 0,0.1 0,0.1 m 0.3,-0.5 0.1,0 0,-0.1 0.1,0 0.1,0 m -87.8,-11.4 0,-0.1 m 0,0.1 0.2,-0.1 0.1,0 m 0,-0.1 0.1,0 0,-0.1 0.1,-0.1 0,-0.1 0.1,-0.1 0,-0.1 m -0.3,0.5 -0.1,0.1 -0.1,0 -0.1,0 m 88.9,11.5 0,0 -0.1,0 -0.1,0 -0.2,0 -0.2,0 -0.3,-0.1 -0.2,0 m 1.1,-11.4 0,11.5 m -1.1,-11.4 0.2,0 0.3,0 0.2,-0.1 0.2,0 0.1,0 0.1,0 m -1.4,0 0.1,0.1 0.2,0 m -88.9,-0.1 0,0 0.1,0 0.1,0 0.2,0 0.2,0.1 0.2,0 0.3,0 m -1.1,11.4 0,-11.5 m 1.1,11.4 -0.3,0 -0.2,0.1 -0.2,0 -0.2,0 -0.1,0 -0.1,0 m 1.4,0 -0.2,0 -0.1,-0.1 m -1.1,31.9 0,-10.7 m 1.4,10.7 -0.3,0 -0.2,0 -0.3,0 -0.2,0 -0.2,0 -0.1,0 -0.1,0 m 1.1,-10.6 0.2,-0.1 0.1,0 m -1.4,0 0,0 0.1,0 0.1,0 0.2,0 0.2,0.1 0.2,0 0.3,0 m 0,0 0,-0.1 m 0.3,-0.1 0.1,0 0,-0.1 0.1,-0.1 0,-0.1 0.1,-0.1 0,-0.1 m -0.3,0.5 -0.1,0.1 -0.1,0 -0.1,0 m -1.1,-53.7 0,-10.7 m 1.1,10.6 -0.3,0 -0.2,0.1 -0.2,0 -0.2,0 -0.1,0 -0.1,0 m 1.4,0 -0.2,0 -0.1,-0.1 m -1.1,-10.6 0,0 0.1,0 0.1,0 0.2,0 0.2,0 0.3,0 0.2,0 0.3,0 M -2.4,0 25,0 m -27.4,1.4 0,-0.3 0,-0.2 0,-0.3 0,-0.2 0,-0.2 0,-0.1 0,-0.1 m 27.4,0 0,0 0,0.1 0,0.1 0,0.2 0,0.2 0,0.3 0,0.2 0,0.3 M 57.3,0 84.8,0 m 0,0 0,0 0,0.1 0,0.1 0,0.2 0,0.2 0,0.3 0,0.2 0,0.3 m -27.5,0 0,-0.3 0,-0.2 0,-0.3 0,-0.2 0,-0.2 0,-0.1 0,-0.1 m -59.7,12.2 -0.1,0 -0.1,-0.1 -0.1,0 m 0.6,0.6 0,-0.1 -0.1,-0.1 0,-0.1 -0.1,-0.1 -0.1,-0.1 m -0.3,-0.1 0,-0.1 m 87.5,21.1 0.1,0.1 0.1,0 0.1,0 m -0.6,-0.6 0,0.1 0,0.1 0.1,0.1 0,0.1 0.1,0.1 0.1,0 m 0.3,0.1 0,0.1 m -9.9,4.3 0,0 0.1,0 0.2,0 0.2,0 0.2,0 0.2,0 0.2,0 0.3,0 m -1.4,11.4 0,-11.4 m 1.4,11.4 -0.3,0 -0.2,0 -0.2,0 -0.2,0 -0.2,0 -0.2,0 -0.1,0 m 11,27.5 0,0 -0.1,0 -0.1,0 -0.2,0 -0.2,0 -0.3,0 -0.2,0 -0.3,0 m 1.4,-10.7 0,10.7 m -1.1,-10.6 0.2,0 0.3,0 0.2,-0.1 0.2,0 0.1,0 0.1,0 m -1.4,0 0.1,0.1 0.2,0 M 7.2,37.6 7.2,49 m 0,0 -0.1,0 -0.1,0 -0.1,0 -0.2,0 -0.2,0 -0.2,0 -0.2,0 -0.3,0 m 0,-11.4 0.3,0 0.2,0 0.2,0 0.2,0 0.2,0 0.1,0 0.1,0 0.1,0 m 77.6,28.1 0.1,0.1 0.1,0 0.1,0 m -0.6,-0.6 0,0.1 0,0.1 0.1,0.1 0,0.1 0.1,0.1 0.1,0 m 0.3,0.1 0,0.1 m -87.5,-21.1 -0.1,0 -0.1,-0.1 -0.1,0 m 0.6,0.6 0,-0.1 -0.1,-0.1 0,-0.1 -0.1,-0.1 0,-0.1 -0.1,0 m -0.3,-0.1 0,-0.1 m 35.4,32.2 -0.1,0 m 0.1,0 -0.1,-0.2 0,-0.1 m -0.6,-0.3 0.1,0 0.2,0 0.1,0.1 0,0.1 0.1,0.1 m 0.1,0.3 0,0 0,-0.1 0,-0.1 -0.1,-0.1 m -20.9,0 0,0.1 -0.1,0 0,0.1 0,0.1 m 0.6,-0.6 -0.1,0 -0.1,0 -0.1,0.1 -0.1,0 0,0.1 -0.1,0.1 m -0.1,0 0,0.1 -0.1,0.2 m 0.1,0 -0.1,0 m -13.8,1.1 13.9,0 m -0.1,-1.1 0,0.2 0.1,0.3 0,0.2 0,0.2 0,0.1 0,0.1 m -13.9,0 0,0 0,-0.1 0,-0.1 0,-0.2 0,-0.2 0,-0.3 0,-0.2 0,-0.3 m 52.3,0 -0.1,0.1 0,0.1 0,0.1 m 0.1,-0.3 0,-0.1 0.1,-0.1 0.1,0 0.1,-0.1 0.1,0 0.1,0 m -0.6,0.3 -0.1,0.1 0,0.2 m 0.1,0 -0.1,0 m 21.2,0 -0.1,0 m 0.1,0 0,-0.2 0,-0.1 m -0.1,0 -0.1,-0.1 -0.1,-0.1 -0.1,-0.1 -0.1,0 -0.1,0 m 0.5,0.6 0,0 0,-0.1 0,-0.1 0,-0.1 m -38.2,1.4 0,0 0,-0.1 0,-0.1 0,-0.2 0.1,-0.2 0,-0.3 0,-0.2 m -0.1,1.1 17.2,0 m -0.1,-1.1 0,0.2 0,0.3 0,0.2 0.1,0.2 0,0.1 0,0.1 m 21,0 0.1,0 0,-0.1 0,-0.1 0,-0.2 0,-0.2 0,-0.3 0,-0.2 m -0.1,1.1 14,0 m 0,-1.4 0,0.3 0,0.2 0,0.3 0,0.2 0,0.2 0,0.1 0,0.1 m -88.6,-65.8 0,3.1 m 1.1,0 -1.1,0 m 0,29.5 0,3.1 m 1.1,0 -1.1,0 m 1.1,-3.1 0,3.1 m 88.9,-14.6 0,-3.1 m -1.1,0 1.1,0 m -1.1,3.1 0,-3.1 m 1.1,35.7 0,-3.1 m -1.1,0 1.1,0 m -1.1,3.1 0,-3.1 m 0,-47.5 1.1,0 m 0,0 0,-3.1 m -1.1,35.7 0,-3.1 m 0,3.1 1.1,0 m 0,0 0,-3.1 m -36.4,33.2 3,0 m 0,-1.1 0,1.1 m -23.3,-1.1 0,1.1 m 0,0 3.1,0 m -21.1,0 3.1,0 m 0,-1.1 0,1.1 m 53.2,-1.1 0,1.1 m 0,0 3,0 m -73.5,-47.8 0,3.1 m 0,-3.1 -1.1,0 m 0,0 0,3.1 m 1.1,29.5 0,3.1 m 0,-3.1 -1.1,0 m 0,0 0,3.1 m 14.4,-28.2 0,11.4 m -3.4,0 3.4,0 m 0,-11.4 -3.4,0 m 64.6,11.4 0,-11.4 m 3.4,0 -3.4,0 m 0,11.4 3.4,0 m -9.4,31 0,-0.5 m -11,0 0.1,0.5 m -27.4,0 0,-0.5 m -10.9,0 0,0.5 M -5.4,28.1 -6.6,28 m 0,-10.7 1.2,-0.1 m 95.2,10.7 -2,0.2 m 0,-10.9 2,0.2 m -2,32.4 2,0.2 m 0,10.5 -2,0.2 m -93.2,0 -1.2,-0.1 m 0,-10.7 1.2,-0.1 M 56.5,1.1 25.9,1.1 M 25,0 57.3,0 m -46.7,49 0,0 m 0,-11.4 0,0 m 61.2,0 0,0 m 0,11.4 0,0 m 13.3,-19.4 1.1,0 m 0,0.5 0,0 0,-0.1 0,-0.1 0,-0.1 0,-0.1 0,-0.1 m -1.1,0.5 0,0 0,-0.1 0,-0.1 0,-0.1 0,-0.1 0,-0.1 m 0,-13.9 1.1,0 m 0,0 0,-0.1 0,-0.1 0,-0.1 0,-0.1 0,-0.1 m -88.9,0.5 -1.1,0 m 0,-0.5 0,0 0,0.1 0,0.1 0,0.1 0,0.1 0,0.1 m 1.1,32.6 -1.1,0 m 0,-0.5 0,0 0,0.1 0,0.1 0,0.1 0,0.1 0,0.1 m 1.1,-0.5 0,0 0,0.1 0,0.1 0,0.1 0,0.1 0,0.1 m 0,-18.7 -1.1,0 m 0,0 0,0.1 0,0.1 0,0.1 0,0.1 0,0.1 m 1.1,-0.5 0,0.1 0,0.1 0,0.1 0,0.1 0,0.1 m 87.8,32.1 1.1,0 m 0,0.5 0,0 0,-0.1 0,-0.1 0,-0.1 0,-0.1 0,-0.1 m -1.1,0.5 0,0 0,-0.1 0,-0.1 0,-0.1 0,-0.1 0,-0.1 m -88.9,0 1.1,0 m -1.1,0 0,0.1 0,0.1 0,0.1 0,0.1 0,0.1 m 1.1,-0.5 0,0.1 0,0.1 0,0.1 0,0.1 0,0.1 m 17.8,14.1 0,1.1 m -0.5,0 0,0 0.1,0 0.1,0 0.1,0 0.1,0 0.1,0 m 38.3,-1.1 0,1.1 m -0.6,0 0.1,0 0.1,0 0.1,0 0.1,0 0.1,0 0.1,0 m 32.8,-29.6 -1.1,0 m 1.1,0 0,-0.1 0,-0.1 0,-0.1 0,-0.1 0,-0.1 m -1.1,0.5 0,-0.1 0,-0.1 0,-0.1 0,-0.1 0,-0.1 m -56.1,29 0,1.1 m 0,0 0.1,0 0.1,0 0.1,0 0.1,0 0.1,0 m 37.7,0 0,-1.1 m 0,1.1 0.1,0 0.1,0 0.1,0 0.1,0 0.1,0 0.1,0 m -71.6,-62.2 0,1.4 m 0,11.1 0,1.4 m 1.1,-1.2 0,1.2 m 88.9,0 0,-1.4 m 0,-11.1 0,-1.4 m -1.1,13.9 0,-1.2 m 1.1,33.8 0,-1.4 m 0,-11.1 0,-1.4 m -1.1,13.9 0,-1.3 m 0,-11.3 0,-1.3 m -88.9,0 0,1.4 m 0,11.1 0,1.4 m 1.1,-13.9 0,1.3 m 0,11.3 0,1.3 m 17.8,15.7 1.4,0 m 11.1,0 1.4,0 m 24.4,0 1.3,0 m 11.2,0 1.3,0 M 84.8,0 l 0.3,0 0.2,0.1 0.3,0.1 0.2,0.2 0.2,0.2 0.1,0.3 0.1,0.2 0,0.3 m -90,0 0,-0.3 0.1,-0.2 0.1,-0.3 0.2,-0.2 0.2,-0.2 0.3,-0.1 0.2,-0.1 0.3,0 m -0.3,76.5 0.1,0.2 0.1,0.1 0.1,0 m -1.4,-0.3 0.1,0.5 0.2,0.4 0.4,0.3 0.5,0.2 0.2,0 m 87.2,-1.1 0.2,-0.1 0.1,-0.1 0,-0.1 m 1.1,0 -0.1,0.5 -0.2,0.4 -0.4,0.3 -0.5,0.2 -0.2,0 m -88.6,-78.5 0,2 m 1.1,-2 0,0.6 m 88.9,1.4 0,-2 m -1.1,0.6 0,-0.6 m -89.5,3.4 0,-3.3 m 0.6,3.3 -0.1,0 -0.2,0 -0.1,0 -0.1,0 -0.1,0 m 0,0.8 0,-0.1 0,-0.2 0,-0.2 0,-0.1 0,-0.2 m 90.6,0 0.1,0 0.1,0 0.1,0 0.1,0 0.1,0 0.1,0 m 0,-3.4 0,3.4 m 0,0 0,0 0,0.1 0,0.1 0,0.1 0,0.1 0,0.1 0,0.1 0,0.1 0,0.1 m -1.8,24.7 0.1,0.6 m -87.8,0 0.1,-0.6 m -109.3,-6.6 2.3,-0.3 2.2,-1 1.7,-1.5 1.3,-2 0.7,-2.2 0,-2.4 -0.7,-2.2 -1.3,-2 -1.7,-1.5 -2.2,-1 -2.3,-0.3 m 0,0 -2.3,0.3 -2.1,1 -1.8,1.5 -1.3,2 -0.6,2.2 0,2.4 0.6,2.2 1.3,2 1.8,1.5 2.1,1 2.3,0.3 m 0,28.8 2.3,-0.3 2.2,-1 1.7,-1.5 1.3,-2 0.7,-2.2 0,-2.4 -0.7,-2.2 -1.3,-2 -1.7,-1.5 -2.2,-1 -2.3,-0.3 m 0,0 -2.3,0.3 -2.1,1 -1.8,1.5 -1.3,2 -0.6,2.2 0,2.4 0.6,2.2 1.3,2 1.8,1.5 2.1,1 2.3,0.3 m -7.7,-34.2 -1.2,0 m 1.2,-5.6 -1.8,0 m 19.5,0 -2.3,0 m 1.7,5.6 -1.7,0 m -15.4,28.8 -1.2,0 m 1.2,-5.6 -1.8,0 m 19.5,0 -2.3,0 m 1.7,5.6 -1.7,0 m -15.7,-32.8 0,-0.1 0.1,-0.2 m -0.1,0.5 0,0 0,-0.1 0,-0.1 m 52.4,-12.9 -1,0 m 0.2,0.9 -0.5,0 m 0.5,0.2 0,-0.2 m 0.8,0.2 0,-1.1 m 21.9,1.1 -2.5,0 m 3.7,0 -0.1,0 -0.2,0 -0.4,0 -0.5,0 m 10.8,0 -9.6,0 m 10.8,0 -0.5,0 -0.3,0 -0.3,0 -0.1,0 m 15.3,0 -14.1,0 m 15.3,0 -1.2,0 m -61.8,0 -1.1,0 m 15.3,0 -14.2,0 m 15.3,0 0,0 -0.3,0 -0.4,0 -0.4,0 m 10.8,0 -9.7,0 m 10.8,0 -0.4,0 -0.4,0 -0.2,0 -0.1,0 m 3.7,0 -2.6,0 m 0,0 0,1.7 m 0,0 2.6,0 m 7,0 0,-1.7 m -2.5,1.7 2.5,0 m -28.8,15.9 7.4,4.2 m 40.6,-4.2 -7.4,4.2 m 0.5,0.6 8.5,-4.8 m -9,13.9 7.4,4.2 m 0,0 0,-18.1 M -67,32 l -7.4,4.2 m 0,-18.1 0,18.1 m -10.3,-33.4 0.2,0 0.5,0 0.7,0 0.9,0 m 0,0 64.1,0 m 0,0 0.8,0 0.8,0 0.5,0 0.1,0 m 0,0 -0.1,-0.9 -0.5,-0.7 -0.8,-0.5 -0.8,-0.2 m -1.2,1.7 1.2,0 m 0,0 0.2,0 0.2,0.2 0.1,0.1 0,0.3 m 0,-2.2 0,-0.4 m -64.6,59.2 0,-56.6 m -2.3,56.6 0,-56.6 m 2.3,56.6 -0.9,0 -0.7,0 -0.5,0 -0.2,0 m 60.1,-21.5 0.9,0 m -0.9,5.7 0,-5.7 m -11,17 11,-11.3 m -40.5,11.3 29.5,0 m -40.6,-11.3 11.1,11.3 m -11.1,-17 0,5.7 m -0.8,-5.7 0.8,0 m -0.8,-1.7 -0.3,0.1 -0.3,0.2 -0.2,0.2 -0.1,0.4 0.1,0.3 0.2,0.3 0.3,0.1 0.3,0.1 m 0,-19.8 0,18.1 m 0,-19.8 -0.3,0 -0.3,0.2 -0.2,0.3 -0.1,0.3 0.1,0.3 0.2,0.3 0.3,0.2 0.3,0.1 m 0.8,-1.7 -0.8,0 m 0.8,-6.3 0,6.3 m 2.9,-9.1 -0.6,0 -0.5,0.2 -0.5,0.3 -0.4,0.3 -0.4,0.5 -0.2,0.4 -0.2,0.6 -0.1,0.5 m 48.8,-2.8 -45.9,0 m 48.7,2.8 0,-0.5 -0.2,-0.6 -0.3,-0.4 -0.3,-0.5 -0.4,-0.3 -0.5,-0.3 -0.6,-0.2 -0.5,0 m 2.8,9.1 0,-6.3 m 0.9,6.3 -0.9,0 m 0.9,1.7 0.3,-0.1 0.3,-0.2 0.2,-0.3 0,-0.3 0,-0.3 -0.2,-0.3 -0.3,-0.2 -0.3,0 m 0,19.8 0,-18.1 m 0,19.8 0.3,-0.1 0.3,-0.1 0.2,-0.3 0,-0.3 0,-0.4 -0.2,-0.2 -0.3,-0.2 -0.3,-0.1 m -58.7,23.2 64.1,0 m 0,-56.6 0,56.6 m -64.1,2.3 0,0 0,-0.2 0,-0.2 0,-0.2 0,-0.4 0,-0.4 0,-0.4 0,-0.5 m 0,2.3 64.1,0 m 0,-2.3 0,0.5 0,0.4 0,0.4 0,0.4 0,0.2 0,0.2 0,0.2 m 2.2,-2.3 0,-56.6 m 0,56.6 -0.1,0 -0.5,0 -0.8,0 -0.8,0 M -77,18.1 l 0.8,0 0.8,0 0.6,0 0.4,0 m 0,18.1 -0.4,0 -0.6,0 -0.8,0 -0.8,0 m 53.3,0 -0.9,0 -0.7,0 -0.6,0 -0.5,0 m 0,-18.1 0.5,0 0.6,0 0.7,0 0.9,0 m -61,-17.9 0,2.6 m 68.6,0 0,-2.6 m -66.9,0 0,0.4 m 64.7,61.1 0.4,0 0.4,-0.2 0.4,-0.2 0.4,-0.2 0.2,-0.4 0.3,-0.4 0.1,-0.4 0,-0.5 m -68.6,0 0.1,0.5 0.1,0.4 0.2,0.4 0.3,0.4 0.3,0.2 0.4,0.2 0.5,0.2 0.4,0 m 0,-1.7 -0.2,0 -0.2,-0.2 -0.1,0 0,-0.1 -0.1,-0.3 m 64.7,0.6 0.2,0 0.2,-0.2 0.1,-0.1 0,-0.3 m -49.3,-57.2 0,-1.7 m -14.2,0 0,1.7 m 0,0 14.2,0 m 1.1,-1.7 0,1.7 m 0,0 0,0 -0.1,0 -0.2,0 -0.2,0 -0.2,0 -0.2,0 -0.2,0 m 22.7,-1.7 0,1.7 m -11.9,0 0,-1.7 m 36.8,0 0,1.7 m -14.1,-1.7 0,1.7 m 0,0 14.1,0 m -15.3,0 0,-1.7 m 1.2,1.7 -0.3,0 -0.2,0 -0.2,0 -0.1,0 -0.2,0 -0.1,0 -0.1,0 m -47.6,-1.7 -0.9,0.2 -0.7,0.5 -0.5,0.7 -0.2,0.9 m 2.3,-0.6 1.1,0 m 65.3,-2.4 -0.1,0.4 m -1.6,-0.8 -0.1,0.8 m 0,0 0,0.4 m -66.9,-0.4 0,-0.7 m 1.7,0.7 -0.1,-0.8 m 65.4,0 -0.1,0.2 0,0.6 m -40.5,1.1 -5.7,0 m 0,0 0,1.5 m 5.7,0 0,-1.5 m 21.5,1.5 0,-1.5 m -5.6,0 5.6,0 m -5.6,1.5 0,-1.5 m -26.4,1.5 0,-0.6 m 0,-1.7 0,-1.1 m -6.8,3.4 0,-0.6 m 0,-1.7 0,-1.1 m 50.5,3.4 0,-0.6 m 0,-1.7 0,-1.1 m -6.8,3.4 0,-0.6 m 0,-1.7 0,-1.1 m -22.4,18.7 0,-9.7 m 7.8,0 0,9.7 m 6.4,0 0,-9.7 m -20.5,0 0,9.7 m 0,0 0.3,0 m 5.7,0 0.3,0 m 7.8,0 0.4,0 m 5.7,0 0.3,0 m -20.5,0 -11.6,0 m 0,16.9 0,12.6 m 43.7,-29.5 -11.6,0 m 11.6,29.5 0,-12.6 m -18,-16.9 -7.8,0 m 19.8,5.3 0,-0.2 -0.1,-0.2 -0.1,-0.2 -0.1,-0.2 m 0,0 -2,2 m 0,0 0,13.6 m 0,0 2,1.9 m 0,0 0.1,-0.1 0.1,-0.2 0.1,-0.3 0,-0.2 m 0,0 0,-15.9 m -1.1,17.1 0.2,-0.1 0.2,0 0.2,-0.1 0.2,-0.2 m -2,-1.9 -27.2,0 m -1.9,1.9 1.9,-1.9 m -1.9,1.9 0.2,0.2 0.2,0.1 0.2,0 0.2,0.1 m 0,0 29.5,0 m -30.6,-1.2 0,0.2 0,0.3 0.1,0.2 0.2,0.1 m 1.9,-1.9 0,-13.6 m 0,0 -1.9,-2 m 0,0 -0.2,0.2 -0.1,0.2 0,0.2 0,0.2 m 0,0 0,15.9 m 2.2,-14.7 27.2,0 m -28.3,-2.3 -0.2,0 -0.2,0.1 -0.2,0.1 -0.2,0.1 m 31.1,0 -0.2,-0.1 -0.2,-0.1 -0.2,-0.1 -0.2,0 m 0,0 -29.5,0 m 4.5,22.4 0,-4.2 m 6.3,-18.2 0,-4.2 m 7.8,4.2 0,-4.2 m 4.4,23.1 0,-0.7 m -2.3,0.7 2.3,0 m -2.3,-0.7 0,0.7 m -1.7,0 1.7,0 m -1.7,0 0,-0.7 m 4,0.7 1.7,0 m 0,-0.7 0,0.7 m -5.7,0.5 0,-0.1 0,-0.1 0,-0.1 0,-0.1 0,-0.1 m 0,5 0,-0.1 0,-0.3 m 0,0 0,-4.1 m 5.7,0 0,-0.1 0,-0.1 0,-0.1 0,-0.1 0,-0.1 m -5.7,0.5 5.7,0 m -15.9,-19.4 0,-0.6 m 0,0 1.7,0 m 0,0 0,0.6 m -4,-0.6 0,0.6 m 0,-0.6 2.3,0 m -4,0 1.7,0 m -1.7,0 0,0.6 m 0,-4.8 0,4 m 0,0 0,0 0,0.1 0,0.1 m 0,-4.2 0,-0.1 m 0,-0.7 0,0 0,0.2 0,0.5 m 0,0.1 0,0 m 5.7,0 0,4 m 0,0 0,0 0,0.1 0,0.1 m 0,-4.2 0,-0.1 m 0,-0.7 0,0 0,0.2 0,0.5 m 0,0.1 0,0 m 0,4 -5.7,0 m 5.7,-4 -5.7,0 m 0,23.7 1.7,0 m 0,0 2.3,0 m 0,0 1.7,0 m 0,-0.7 0,0.7 m -1.7,0 0,-0.7 m -2.3,0 0,0.7 m -1.7,0 0,-0.7 m 5.7,0.7 0,0 0,0.1 0,0.1 0,0.1 0,0.1 0,0.1 m 0,0 0,4.1 m 0,0 0,0.3 0,0.1 m -5.7,-5 0,0 0,0.1 0,0.1 0,0.1 0,0.1 0,0.1 m 0,0 5.7,0 m -19.9,-4.1 -1.7,1.7 m 1.7,-1.7 0,7.7 m 8.8,9 30.6,0 m 8.8,-9 0,-7.7 m 0,0 1.7,1.7 M -74.5,8.4 -75,7.9 m 0.5,0.5 0,6.5 m 0,0 -1.7,-1.7 m 50.5,-5.3 -0.6,0.5 m 0,0 -48.2,0 m 49.9,4.8 -1.7,1.7 m 0,0 0,-6.5 m 1.7,6.5 -1.7,0 m -51.3,22.7 3.1,0 m 0,-22.7 -1.7,0 m 49.9,22.7 3.2,0 m -32.6,-34.8 0,-0.6 m 0,-1.7 0,-1.1 m -3.5,0 0,1.1 m 17.7,0 0,-1.1 m -3.5,0 0,1.1 m 0,1.7 0,0.6 m -22.1,25.8 0.9,0 m 31.7,0 0.9,0 m 0,0 1.4,-0.3 1.2,-0.8 0.8,-1.2 0.2,-1.4 -0.2,-1.4 -0.8,-1.2 -1.2,-0.8 -1.4,-0.3 m 0,0 -6.8,0 m -5.7,0 -8.5,0 m -5.7,0 -6.8,0 m 0,22.7 -1.4,0.2 -1.2,0.8 -0.8,1.2 -0.3,1.4 0.3,1.5 0.8,1.1 1.2,0.8 1.4,0.3 m 0,0 33.5,0 m 0,0 1.4,-0.3 1.2,-0.8 0.8,-1.1 0.2,-1.5 -0.2,-1.4 -0.8,-1.2 -1.2,-0.8 -1.4,-0.2 m 0,0 -33.5,0 m 33.5,-21.9 -6.8,0 m -5.7,0 -8.5,0 m -5.7,0 -6.8,0 m 0,5.7 0.9,0 m 31.7,0 0.9,0 m 0,22.7 0,0 0,0.1 0,0.1 0,0.2 0,0.1 0,0.2 0,0.1 m -33.5,0 0,-0.1 0,-0.2 0,-0.1 0,-0.2 0,-0.1 0,-0.1 m 0,0 33.5,0 m -33.5,-5.7 0,0 0,-0.1 0,-0.1 0,-0.2 0,-0.1 0,-0.2 0,-0.1 m 0,6.5 -1.1,-0.2 -0.9,-0.7 -0.6,-0.9 -0.2,-1.1 0.2,-1 0.6,-1 0.9,-0.6 1.1,-0.2 m 33.5,-0.8 0,0.1 0,0.2 0,0.1 0,0.2 0,0.1 0,0.1 m 0,0 -33.5,0 m 33.5,0 1,0.2 1,0.6 0.6,1 0.2,1 -0.2,1.1 -0.6,0.9 -1,0.7 -1,0.2 m -33.5,-27.5 -0.8,0.1 -0.6,0.5 -0.4,0.6 -0.2,0.8 0.2,0.7 0.4,0.7 0.6,0.4 0.8,0.1 m 0,17.9 0,0 0,0.1 0,0.1 0,0.1 0,0.1 0,0.1 0,0.2 0,0.2 m 33.5,0 0,-0.2 0,-0.2 0,-0.1 0,-0.1 0,-0.1 0,-0.1 0,-0.1 m -33.5,0.9 33.5,0 m -33.5,3.9 0,0.2 0,0.2 0,0.1 0,0.1 0,0.1 0,0.1 0,0.1 m 0,-4.8 -0.8,0.1 -0.6,0.4 -0.4,0.7 -0.2,0.7 0.2,0.8 0.4,0.6 0.6,0.5 0.8,0.1 m 33.5,-22.7 0.7,-0.1 0.7,-0.4 0.4,-0.7 0.1,-0.7 -0.1,-0.8 -0.4,-0.6 -0.7,-0.5 -0.7,-0.1 m 0,27.5 0,0 0,-0.1 0,-0.1 0,-0.1 0,-0.1 0,-0.1 0,-0.2 0,-0.2 m 0,0 0.7,-0.1 0.7,-0.5 0.4,-0.6 0.1,-0.8 -0.1,-0.7 -0.4,-0.7 -0.7,-0.4 -0.7,-0.1 m 0,3.9 -33.5,0 m 22.7,-27.8 0,0.6 m 0,-0.6 2.3,0 m 0,0.6 0,-0.6 m 0,0 1.7,0 m 0,0 0,0.6 m -5.7,-0.6 1.7,0 m -1.7,0 0,0.6 m 0,-4.8 0,4 m 0,0 0,0 0,0.1 0,0.1 m 0,-4.2 0,-0.1 m 0,-0.7 0,0 0,0.2 0,0.5 m 0,0.1 0,0 m 5.7,0 0,4 m 0,0 0,0 0,0.1 0,0.1 m 0,-4.2 0,-0.1 m 0,-0.7 0,0 0,0.2 0,0.5 m 0,0.1 0,0 m 0,4 -5.7,0 m 5.7,-4 -5.7,0 m -40.2,-16.4 0,0 m -0.8,11.8 0.8,0.9 m 0,-12.7 0,12.7 m 0,-12.7 0,0 1.6,0 m -1.1,12.7 -0.5,0 -0.8,0 m 0.8,-12.7 0,-0.1 m 0.5,12.3 -0.5,0.5 m 1.6,-11.2 -1.6,-1.5 m 0,12.7 0,-12.7 m 0,-0.1 0,0.1 m 1.6,-1.7 68.3,0 m 12.2,0 91.6,0 m -174.5,59 0,-54.4 m 0,0 0.1,-1.1 0.3,-1.1 0.5,-0.9 0.8,-0.9 0.8,-0.7 1,-0.5 1.1,-0.4 1.1,-0.1 m 0,0 61.8,0 m 0,0 1.1,0.1 1,0.4 1,0.5 0.9,0.7 0.7,0.9 0.5,0.9 0.3,1.1 0.1,1.1 m 0,0 0,54.4 m 0,0 -0.1,1.1 -0.3,1.1 -0.5,1 -0.7,0.8 -0.9,0.7 -1,0.6 -1,0.3 -1.1,0.1 m 0,0 -61.8,0 m 0,0 -1.1,-0.1 -1.1,-0.3 -1,-0.6 -0.8,-0.7 -0.8,-0.8 -0.5,-1 -0.3,-1.1 -0.1,-1.1 m -14.6,-45.9 -0.3,2.5 -1,2.3 -1.4,2 -1.9,1.6 -2.3,1 -2.4,0.5 -2.5,-0.1 -2.4,-0.8 -2.1,-1.3 -1.7,-1.9 -1.2,-2.1 -0.6,-2.5 0,-2.4 0.6,-2.4 1.2,-2.2 1.7,-1.8 2.1,-1.4 2.4,-0.7 2.5,-0.2 2.4,0.5 2.3,1 1.9,1.6 1.4,2 1,2.3 0.3,2.5 m 233.6,-20.4 0,32.5 m 0,20.8 0,32.5 M 109.8,-30 l 3.8,0.3 3.8,1 3.4,1.6 3.2,2.3 2.7,2.7 2.2,3.1 1.7,3.5 1,3.8 0.3,3.8 m -305.7,0 0.3,-3.8 1,-3.8 1.6,-3.5 2.2,-3.1 2.8,-2.7 3.1,-2.3 3.5,-1.6 3.7,-1 3.9,-0.3 m 0,130 -3.9,-0.4 -3.7,-0.9 -3.5,-1.7 -3.1,-2.2 -2.8,-2.7 -2.2,-3.2 -1.6,-3.5 -1,-3.7 -0.3,-3.8 m 283.6,22.1 -261.5,0 m 283.6,-22.1 -0.3,3.8 -1,3.7 -1.7,3.5 -2.2,3.2 -2.7,2.7 -3.2,2.2 -3.4,1.7 -3.8,0.9 -3.8,0.4 M -0.9,-1.7 l 85,0 m 0,0 1.1,0.1 1.1,0.4 1,0.5 0.8,0.7 0.7,0.9 0.5,0.9 0.4,1.1 0.1,1.1 m 0,0 0,70.3 m 0,0 -0.1,1.1 -0.4,1.1 -0.5,1 -0.7,0.8 -0.8,0.7 -1,0.5 -1.1,0.4 -1.1,0.1 m 0,0 -85,0 m 0,0 -1.1,-0.1 -1.1,-0.4 -1,-0.5 -0.8,-0.7 -0.7,-0.8 -0.6,-1 -0.3,-1.1 -0.1,-1.1 m 0,0 0,-70.3 m 0,0 0.1,-1.1 0.3,-1.1 0.6,-0.9 0.7,-0.9 0.8,-0.7 1,-0.5 1.1,-0.4 1.1,-0.1 m -100.8,43 -0.3,2.5 -1,2.3 -1.4,2 -1.9,1.6 -2.3,1 -2.4,0.5 -2.5,-0.1 -2.4,-0.8 -2.1,-1.3 -1.7,-1.9 -1.2,-2.1 -0.6,-2.5 0,-2.4 0.6,-2.4 1.2,-2.2 1.7,-1.8 2.1,-1.4 2.4,-0.7 2.5,-0.2 2.4,0.5 2.3,1 1.9,1.6 1.4,2 1,2.3 0.3,2.5 m -50,-71.3 261.5,0 m -283.6,107.9 0,-32.5 m 0,-20.8 0,-32.5 m 106.4,7.3 -0.1,0.1 m -103,-19.6 -0.8,1.1 -1.6,3.5 -1,3.8 -0.3,3.8 m 0,9.8 0,4.5 m 0,12.9 0,4.5 m 0,22 0,4.4 m 0,13 0,4.5 m 0,10.2 0.3,3.8 1,3.7 1.6,3.5 2.2,3.2 2.8,2.7 3.1,2.2 3.5,1.7 3.7,0.9 3.9,0.4 m 136,-45.5 2.1,0 m 142.2,-74.6 -1.6,-2.2 -2.8,-2.8 -3.2,-2.3 -3.6,-1.6 -3.8,-1.1 -4,-0.3 m 0,0 -260.8,0 m 0,0 -3.9,0.3 -3.8,1.1 -3.6,1.6 -3.2,2.3 -2.8,2.8 -2.3,3.2 -1.7,3.6 -1,3.8 -0.3,4 m 0,0 0,9.6 m 0,0 0.4,0.6 m -0.4,3.9 0,12.9 m 0,30.9 0,13 m 0.4,3.9 -0.4,0.6 m 0,0 0,9.6 m 0,0 0.3,3.9 1,3.9 1.7,3.5 2.3,3.3 2.8,2.8 2.1,1.6 m -9.8,-90.5 -0.4,0.6 m 0.4,43.3 -0.4,0.5 m 0,-30.9 0.4,0.6 m -0.4,3.9 0,1.5 m 0,19.4 0,1.1 m 0,0 0.4,0.5 m -0.4,16.9 0.4,0.6 m 0,-40.6 -0.4,0.6 m 167.6,8.4 1,0 m 0,-31.5 0,16.5 m 0,10.9 0,4.1 m -28.8,-32.8 0,1.1 m -3.5,-1.1 0,1.1 m 17.9,-1.1 0,1.1 m -3.5,-1.1 0,1.1 m -40.3,-1.1 0,1.1 m 47.7,53 2.1,0 M 20.3,0 l 0,-0.6 m 64.5,12.8 0,4.8 m -87.2,0 0,-4.8 m 73.2,64.3 -4.8,0 m -11.4,0 -4.7,0 m -17.4,0 -4.7,0 m -11.4,0 -4.8,0 m -78.7,-53.6 1,0 m 31.5,0 1,0 m 0,3.9 -0.9,0 m -31.7,0 -0.9,0"
         style="fill:none;stroke:#000000;stroke-width:0.70899999;stroke-linecap:round;stroke-linejoin:round;stroke-miterlimit:10;stroke-opacity:1;stroke-dasharray:none"
         id="path3875" /></g></g><g
     inkscape:groupmode="layer"
     id="layer1"
     inkscape:label="anno"
     style="display:inline"
     transform="translate(-249.7346,-358.91648)"
     sodipodi:insensitive="true"><g
       id="g3138"
       transform="matrix(1.25,0,0,-1.25,825.85548,541.7375)"><path
         d="m 0,0 0,0 m 21.6,0 0,0 m -12,0 0,0 m 21.6,0 0,0 m -11.7,15.8 0,0 m -7.8,0 0,0 m -6.4,26.7 0,0"
         style="fill:none;stroke:#000000;stroke-width:0.70899999;stroke-linecap:round;stroke-linejoin:round;stroke-miterlimit:10;stroke-opacity:1;stroke-dasharray:none"
         id="path3140"
         inkscape:connector-curvature="0" /></g><text
       xml:space="preserve"
       style="font-size:18px;font-style:normal;font-variant:normal;font-weight:bold;font-stretch:normal;text-align:start;line-height:125%;letter-spacing:0px;word-spacing:0px;writing-mode:lr-tb;text-anchor:start;fill:#000000;fill-opacity:1;stroke:none;font-family:Liberation Sans;-inkscape-font-specification:Liberation Sans Bold"
       x="846.10663"
       y="389.87909"
       id="text3142"
       sodipodi:linespacing="125%"
       transform="translate(-146.94927,12.08037)"><tspan
         sodipodi:role="line"
         id="tspan3144"
         x="846.10663"
         y="389.87909">Health</tspan></text>
<text
       xml:space="preserve"
       style="font-size:18px;font-style:normal;font-variant:normal;font-weight:bold;font-stretch:normal;text-align:start;line-height:125%;letter-spacing:0px;word-spacing:0px;writing-mode:lr-tb;text-anchor:start;fill:#000000;fill-opacity:1;stroke:none;font-family:Liberation Sans;-inkscape-font-specification:Liberation Sans Bold"
       x="823.30371"
       y="625.1087"
       id="text3146"
       sodipodi:linespacing="125%"
       transform="translate(-129.72069,-9.29321)"><tspan
         sodipodi:role="line"
         id="tspan3148"
         x="823.30371"
         y="625.1087"
         style="font-size:18px;font-style:normal;font-variant:normal;font-weight:bold;font-stretch:normal;font-family:Liberation Sans;-inkscape-font-specification:Liberation Sans Bold">Pulse-per-second</tspan></text>
<text
       xml:space="preserve"
       style="font-size:18px;font-style:normal;font-variant:normal;font-weight:bold;font-stretch:normal;text-align:start;line-height:125%;letter-spacing:0px;word-spacing:0px;writing-mode:lr-tb;text-anchor:start;fill:#000000;fill-opacity:1;stroke:none;font-family:Liberation Sans;-inkscape-font-specification:Liberation Sans Bold"
       x="938.59039"
       y="392.12448"
       id="text3150"
       sodipodi:linespacing="125%"
       transform="translate(-147.92584,9.83497)"><tspan
         sodipodi:role="line"
         id="tspan3152"
         x="938.59039"
         y="392.12448">Power and USB</tspan></text>
<text
       xml:space="preserve"
       style="font-size:18px;font-style:normal;font-variant:normal;font-weight:bold;font-stretch:normal;text-align:start;line-height:125%;letter-spacing:0px;word-spacing:0px;writing-mode:lr-tb;text-anchor:start;fill:#000000;fill-opacity:1;stroke:none;font-family:Liberation Sans;-inkscape-font-specification:Liberation Sans Bold"
       x="1025.9998"
       y="615.31549"
       id="text3154"
       sodipodi:linespacing="125%"
       transform="translate(-119.92089,0.5)"><tspan
         sodipodi:role="line"
         id="tspan3156"
         x="1025.9998"
         y="615.31549">Ethernet LAN</tspan></text>
<text
       xml:space="preserve"
       style="font-size:18px;font-style:normal;font-variant:normal;font-weight:bold;font-stretch:normal;text-align:start;line-height:125%;letter-spacing:0px;word-spacing:0px;writing-mode:lr-tb;text-anchor:start;fill:#000000;fill-opacity:1;stroke:none;font-family:Liberation Sans;-inkscape-font-specification:Liberation Sans Bold"
       x="302.96271"
       y="609.37506"
       id="text3164"
       sodipodi:linespacing="125%"
       transform="translate(-17.821336,5.940425)"><tspan
         sodipodi:role="line"
         id="tspan3166"
         x="302.96271"
         y="609.37506">GPS Antenna</tspan></text>
<text
       xml:space="preserve"
       style="font-size:18px;font-style:normal;font-variant:normal;font-weight:bold;font-stretch:normal;text-align:start;line-height:125%;letter-spacing:0px;word-spacing:0px;writing-mode:lr-tb;text-anchor:start;fill:#000000;fill-opacity:1;stroke:none;font-family:Liberation Sans;-inkscape-font-specification:Liberation Sans Bold"
       x="404.79892"
       y="399.76218"
       id="text3168"
       sodipodi:linespacing="125%"
       transform="translate(22.064511,215.55331)"><tspan
         sodipodi:role="line"
         id="tspan3170"
         x="404.79892"
         y="399.76218">Data In/Out</tspan></text>
<text
       xml:space="preserve"
       style="font-size:18px;font-style:normal;font-variant:normal;font-weight:bold;font-stretch:normal;text-align:start;line-height:125%;letter-spacing:0px;word-spacing:0px;writing-mode:lr-tb;text-anchor:start;fill:#000000;fill-opacity:1;stroke:none;font-family:Liberation Sans;-inkscape-font-specification:Liberation Sans Bold"
       x="532.94281"
       y="609.37506"
       id="text3172"
       sodipodi:linespacing="125%"
       transform="translate(22.064511,5.940425)"><tspan
         sodipodi:role="line"
         id="tspan3174"
         x="532.94281"
         y="609.37506">MicroSD</tspan></text>
<text
       xml:space="preserve"
       style="font-size:14px;font-style:normal;font-variant:normal;font-weight:bold;font-stretch:normal;text-align:start;line-height:125%;letter-spacing:0px;word-spacing:0px;writing-mode:lr-tb;text-anchor:start;fill:#000000;fill-opacity:1;stroke:none;font-family:Liberation Sans;-inkscape-font-specification:Liberation Sans Bold"
       x="507.05945"
       y="466.80435"
       id="text3176"
       sodipodi:linespacing="125%"
       transform="translate(-5.5161278,1.2729625)"><tspan
         sodipodi:role="line"
         id="tspan3178"
         x="507.05945"
         y="466.80435">1</tspan></text>
<text
       xml:space="preserve"
       style="font-size:14px;font-style:normal;font-variant:normal;font-weight:bold;font-stretch:normal;text-align:start;line-height:125%;letter-spacing:0px;word-spacing:0px;writing-mode:lr-tb;text-anchor:start;fill:#000000;fill-opacity:1;stroke:none;font-family:Liberation Sans;-inkscape-font-specification:Liberation Sans Bold"
       x="507.05945"
       y="466.80435"
       id="text3176-9"
       sodipodi:linespacing="125%"
       transform="translate(-5.5161282,95.047137)"><tspan
         sodipodi:role="line"
         id="tspan3178-7"
         x="507.05945"
         y="466.80435">2</tspan></text>
<text
       xml:space="preserve"
       style="font-size:14px;font-style:normal;font-variant:normal;font-weight:bold;font-stretch:normal;text-align:start;line-height:125%;letter-spacing:0px;word-spacing:0px;writing-mode:lr-tb;text-anchor:start;fill:#000000;fill-opacity:1;stroke:none;font-family:Liberation Sans;-inkscape-font-specification:Liberation Sans Bold"
       x="507.05945"
       y="466.80435"
       id="text3176-0"
       sodipodi:linespacing="125%"
       transform="translate(-38.480294,1.2729625)"><tspan
         sodipodi:role="line"
         id="tspan3178-2"
         x="507.05945"
         y="466.80435">3</tspan></text>
<text
       xml:space="preserve"
       style="font-size:14px;font-style:normal;font-variant:normal;font-weight:bold;font-stretch:normal;text-align:start;line-height:125%;letter-spacing:0px;word-spacing:0px;writing-mode:lr-tb;text-anchor:start;fill:#000000;fill-opacity:1;stroke:none;font-family:Liberation Sans;-inkscape-font-specification:Liberation Sans Bold"
       x="507.05945"
       y="466.80435"
       id="text3176-7"
       sodipodi:linespacing="125%"
       transform="translate(-38.480294,95.047137)"><tspan
         sodipodi:role="line"
         id="tspan3178-3"
         x="507.05945"
         y="466.80435">4</tspan></text>
<text
       xml:space="preserve"
       style="font-size:14px;font-style:normal;font-variant:normal;font-weight:bold;font-stretch:normal;text-align:start;line-height:125%;letter-spacing:0px;word-spacing:0px;writing-mode:lr-tb;text-anchor:start;fill:#000000;fill-opacity:1;stroke:none;font-family:Liberation Sans;-inkscape-font-specification:Liberation Sans Bold"
       x="507.05945"
       y="466.80435"
       id="text3176-3"
       sodipodi:linespacing="125%"
       transform="translate(-73.831249,1.2729625)"><tspan
         sodipodi:role="line"
         id="tspan3178-5"
         x="507.05945"
         y="466.80435">5</tspan></text>
<text
       xml:space="preserve"
       style="font-size:14px;font-style:normal;font-variant:normal;font-weight:bold;font-stretch:normal;text-align:start;line-height:125%;letter-spacing:0px;word-spacing:0px;writing-mode:lr-tb;text-anchor:start;fill:#000000;fill-opacity:1;stroke:none;font-family:Liberation Sans;-inkscape-font-specification:Liberation Sans Bold"
       x="507.05945"
       y="466.80435"
       id="text3176-90"
       sodipodi:linespacing="125%"
       transform="translate(-73.831249,95.047137)"><tspan
         sodipodi:role="line"
         id="tspan3178-1"
         x="507.05945"
         y="466.80435">6</tspan></text>
<path
       style="fill:none;stroke:#000000;stroke-width:3;stroke-linecap:round;stroke-linejoin:miter;stroke-miterlimit:4;stroke-opacity:1;stroke-dasharray:none"
       d="M 348.78901,595.79689 362.36717,572.0351"
       id="path4017"
       inkscape:connector-curvature="0" /><path
       style="fill:none;stroke:#000000;stroke-width:3;stroke-linecap:round;stroke-linejoin:miter;stroke-miterlimit:4;stroke-opacity:1;stroke-dasharray:none"
       d="m 472.68973,596.64552 0,-27.15632"
       id="path4019"
       inkscape:connector-curvature="0" /><path
       style="fill:none;stroke:#000000;stroke-width:3;stroke-linecap:round;stroke-linejoin:miter;stroke-miterlimit:4;stroke-opacity:1;stroke-dasharray:none"
       d="M 587.25546,599.19143 572.82867,545.72742"
       id="path4021"
       inkscape:connector-curvature="0" /><path
       style="fill:none;stroke:#000000;stroke-width:3;stroke-linecap:round;stroke-linejoin:miter;stroke-miterlimit:4;stroke-opacity:1;stroke-dasharray:none"
       d="m 882.58046,598.34279 0,-51.76674"
       id="path4023"
       inkscape:connector-curvature="0"
       transform="translate(-120.76952,0.5)" /><path
       style="fill:none;stroke:#000000;stroke-width:3;stroke-linecap:round;stroke-linejoin:miter;stroke-miterlimit:4;stroke-opacity:1;stroke-dasharray:none"
       d="m 855.42414,409.09717 16.9727,64.49627"
       id="path4025"
       inkscape:connector-curvature="0"
       transform="translate(-120.76952,0.5)" /><path
       style="fill:none;stroke:#000000;stroke-width:3;stroke-linecap:round;stroke-linejoin:miter;stroke-miterlimit:4;stroke-opacity:1;stroke-dasharray:none"
       d="m 956.41171,456.62074 0,-49.22084"
       id="path4027"
       inkscape:connector-curvature="0"
       transform="translate(-120.76952,0.5)" /><path
       style="fill:none;stroke:#000000;stroke-width:3;stroke-linecap:round;stroke-linejoin:miter;stroke-miterlimit:4;stroke-opacity:1;stroke-dasharray:none"
       d="m 1068.4315,549.12196 0,48.3722"
       id="path4029"
       inkscape:connector-curvature="0"
       transform="translate(-120.76952,0.5)" /></g></svg>