<?xml version="1.0" encoding="UTF-8" standalone="no"?>
<!-- Created with Inkscape (http://www.inkscape.org/) -->

<svg
   xmlns:dc="http://purl.org/dc/elements/1.1/"
   xmlns:cc="http://creativecommons.org/ns#"
   xmlns:rdf="http://www.w3.org/1999/02/22-rdf-syntax-ns#"
   xmlns:svg="http://www.w3.org/2000/svg"
   xmlns="http://www.w3.org/2000/svg"
   xmlns:sodipodi="http://sodipodi.sourceforge.net/DTD/sodipodi-0.dtd"
   xmlns:inkscape="http://www.inkscape.org/namespaces/inkscape"
   width="810.02185"
   height="317.8905"
   id="svg3928"
   version="1.1"
   inkscape:version="0.48.4 r9939"
   sodipodi:docname="New document 14">
  <defs
     id="defs3930" />
  <sodipodi:namedview
     id="base"
     pagecolor="#ffffff"
     bordercolor="#666666"
     borderopacity="1.0"
     inkscape:pageopacity="0.0"
     inkscape:pageshadow="2"
     inkscape:zoom="1.4"
     inkscape:cx="396.61879"
     inkscape:cy="330.85666"
     inkscape:document-units="px"
     inkscape:current-layer="layer1"
     showgrid="false"
     fit-margin-left="30"
     fit-margin-right="30"
     fit-margin-bottom="30"
     fit-margin-top="30"
     inkscape:window-width="1920"
     inkscape:window-height="1153"
     inkscape:window-x="0"
     inkscape:window-y="0"
     inkscape:window-maximized="1" />
  <metadata
     id="metadata3933">
    <rdf:RDF>
      <cc:Work
         rdf:about="">
        <dc:format>image/svg+xml</dc:format>
        <dc:type
           rdf:resource="http://purl.org/dc/dcmitype/StillImage" />
        <dc:title></dc:title>
      </cc:Work>
    </rdf:RDF>
  </metadata>
  <g
     inkscape:label="Layer 1"
     inkscape:groupmode="layer"
     id="layer1"
     transform="translate(23.582355,-761.98837)">
    <g
       id="g3869"
       transform="matrix(1.25,0,0,-1.25,407.74637,936.18149)">
      <path
         d="m 0,0 -0.8,-0.5 -1,-1.1 -0.7,-1.3 -0.4,-1.4 -0.1,-1.7 0.2,-1.8 0.5,-1.9 0.8,-1.8 1.1,-1.7 1.3,-1.5 1.5,-1.3 1.7,-1 1.5,-0.4 1.5,-0.1 1.4,0.2 1.2,0.5 m 0,0 1.8,1 M 1.8,1.1 0,0 m 274.8,25 0.8,0.5 m 0,0 0.8,0.5 1,1.1 0.7,1.3 0.4,1.5 0.1,1.6 -0.2,1.8 -0.5,1.9 -0.8,1.8 -1.1,1.7 -1.2,1.5 m -178.4,-95.9 -0.7,-0.5 -1,-1.1 -0.7,-1.3 -0.4,-1.4 -0.1,-1.7 0.2,-1.8 0.5,-1.9 0.8,-1.8 1.1,-1.7 1.3,-1.5 1.5,-1.3 1.6,-0.9 1.6,-0.5 1.5,-0.1 1.4,0.2 1.1,0.5 m 0.1,0 1.8,1.1 m -9.7,16.8 -1.9,-1.1 m -75.5,8.9 9.2,5.3 m -9,15.6 -9.2,-5.3 m -0.2,-1.7 -1,-0.6 m 7.6,-13.2 1,0.6 m 12.7,8.7 0,1.1 m -5.5,9.4 -0.9,0.6 m 0.9,1.9 -2.3,-1.3 m 7.6,-13.2 2.3,1.3 m 236.5,43.5 1.9,1 M 169,114.5 166.1,112.9 M 106.6,-89 l 2.9,1.7 m -35,31.3 -2.8,-1.6 M 5.9,20.2 3.1,18.6 M 109.4,-87.4 269.7,5.2 M 166.2,112.8 5.9,20.2 M 7,-12.4 6.8,-10.9 6.4,-9.3 5.6,-7.7 4.6,-6.3 3.4,-5.2 2.2,-4.3 1,-3.9 -0.1,-4 -1,-4.4 -1.7,-5.3 -2,-6.4 l 0,-1.5 0.3,-1.5 0.7,-1.6 0.9,-1.5 1.1,-1.3 1.2,-1 1.2,-0.6 1.2,-0.2 1,0.2 0.8,0.7 0.4,1 0.2,1.3 m 6.5,1.1 -0.1,1.9 -0.6,1.9 -0.8,2 -1.1,1.9 L 9.6,-1.9 8.2,-0.5 6.7,0.6 5.1,1.3 3.7,1.5 2.4,1.3 1.8,1.1 m 9.7,-16.9 0.5,0.4 0.8,1 0.6,1.4 0.1,1.7 m -6.9,0 0,-1.6 M 4,-9.8 6.6,-11.3 M 4,-9.8 3.2,-8.4 m 0,2.9 0,-2.9 m -1.4,3.8 1.4,-0.9 m -1.4,-2.1 0,3 m 0,-3 L 1,-8 M -1.6,-6.6 1,-8 m -2.6,-0.2 0,1.6 M 1,-9.7 -1.6,-8.2 M 1,-9.7 1.8,-11.1 m 0,-2.9 0,2.9 m 1.4,-3.8 -1.4,0.9 m 1.4,2.1 0,-3 m 0,3 0.8,0.4 M 6.6,-12.9 4,-11.5 M 5.4,-10.6 4,-11.5 M 3.2,-6.7 1.8,-7.6 M 3.2,-6.7 1,-8 M 4,-9.8 1.8,-11.1 M 3.2,-8.4 1,-9.7 M 5.3,-10.5 4.8,-11 M 3.2,-12.6 1.8,-14 m 1.4,7.1 -0.6,-0.2 m -2.2,-0.6 -2,-0.5 m 276.4,41.9 0.3,-1 0.5,-1.9 0.2,-1.9 -0.2,-1.7 -0.5,-1.4 -0.3,-0.5 m -171.3,-93.4 -0.2,1.6 -0.5,1.5 -0.8,1.6 -1,1.4 -1.1,1.2 -1.3,0.8 -1.2,0.4 -1.1,-0.1 -0.9,-0.4 -0.6,-0.9 -0.3,-1.1 0,-1.5 0.3,-1.5 0.6,-1.6 0.9,-1.5 1.1,-1.3 1.2,-1 1.3,-0.6 1.1,-0.2 1,0.3 0.8,0.6 0.5,1 0.2,1.3 m 6.5,1.1 -0.2,1.9 -0.5,1.9 -0.8,2 -1.1,1.9 -1.3,1.7 -1.4,1.4 -1.6,1.1 -1.5,0.7 -1.5,0.2 -1.3,-0.1 -0.5,-0.3 m 9.7,-16.8 0.5,0.3 0.8,1.1 0.5,1.3 0.2,1.7 m -7,0 0,-1.6 m -2.5,3.1 2.5,-1.5 m -2.5,1.5 -0.8,1.4 m 0,3 0,-3 m -1.5,3.8 1.5,-0.8 m -1.5,-2.2 0,3 m 0,-3 -0.8,-0.4 m -2.5,1.4 2.5,-1.4 m -2.5,-0.2 0,1.6 m 2.5,-3.1 -2.5,1.5 m 2.5,-1.5 0.8,-1.4 m 0,-2.9 0,2.9 m 1.5,-3.8 -1.5,0.9 m 1.5,2.1 0,-3 m 0,3 0.8,0.5 m 2.5,-1.5 -2.5,1.5 m 1.4,0.8 -1.4,-0.8 m -0.8,4.7 -1.5,-0.9 m 1.5,0.9 -2.3,-1.3 m 3.1,-1.8 -2.3,-1.3 m 1.5,2.7 -2.3,-1.3 m 4.3,-0.8 -0.4,-0.5 m -1.6,-1.6 -1.5,-1.4 m 1.5,7.1 -0.6,-0.2 m -2.3,-0.6 -1.9,-0.5 m -76,22.8 -0.7,0.8 -1.1,1.5 -0.8,1.5 -0.4,1.5 m 6.9,-6.9 -0.2,-1.6 -0.5,-1.3 -0.8,-0.9 -1.1,-0.6 -1.3,-0.1 -1.2,0.2 m -7.5,13.1 0.2,0.9 0.7,1.1 0.9,0.8 1.2,0.3 1.4,-0.1 1.4,-0.6 1.5,-0.9 1.4,-1.3 1.3,-1.6 1.1,-1.8 0.8,-1.9 0.5,-1.9 0.2,-1.8 m -4.1,-3.8 0.3,0.1 0.9,0.6 0.7,1 0.3,1.4 0,1.5 -0.3,1.8 -0.7,1.7 -0.9,1.7 -1.2,1.5 -1.3,1.3 -1.3,0.9 -1.4,0.5 -1.2,0 -1.1,-0.4 -0.4,-0.4 m 20.9,-4.1 -0.2,-1.5 -0.5,-1.4 -0.8,-0.9 -0.4,-0.3 m -9,15.6 0.2,0.1 1.1,0.3 1.4,-0.1 1.5,-0.5 1.4,-1 1.4,-1.3 1.3,-1.6 1.1,-1.8 0.8,-1.9 0.5,-1.9 0.2,-1.8 m -22.9,0.4 0.2,-1.6 0.5,-1.8 0.8,-1.7 1,-1.6 1.2,-1.4 1.4,-1 1.3,-0.7 1.3,-0.3 1.1,0.2 1,0.6 0.6,1 0.3,1.3 0,1.6 -0.3,1.7 -0.6,1.7 -1,1.7 -1.1,1.5 -1.3,1.2 -1.3,0.9 -1.4,0.5 -1.2,0 -1,-0.4 -0.8,-0.8 -0.5,-1.1 -0.2,-1.5 m 0.8,-0.4 0.2,1.3 0.5,1 0.8,0.7 1,0.2 1.2,-0.1 1.2,-0.7 1.2,-1 1.2,-1.3 0.9,-1.5 0.6,-1.6 0.4,-1.6 0,-1.5 -0.4,-1.2 -0.6,-0.8 -0.9,-0.5 -1.2,0 -1.2,0.4 -1.2,0.8 -1.2,1.2 -1,1.4 -0.8,1.6 -0.5,1.6 -0.2,1.6 m 9.4,-8.7 0.6,0.4 0.6,1 0.4,1.3 0,1.6 -0.4,1.7 -0.6,1.7 -1,1.7 -1.1,1.5 -1.3,1.2 -1.3,0.9 -1.4,0.5 -1.2,0 -0.9,-0.3 m 22.4,-4.7 0.2,0.1 m -2.3,1.2 -0.2,1.7 -0.5,1.7 -0.8,1.8 -1,1.6 -1.3,1.4 -1.3,1 -0.4,0.2 m 48.2,-29.1 0,0.7 m 0,0 0.3,-0.2 m 0,0 0,-0.5 m 0.1,0 0,0.5 m 3.2,-1.9 0,-0.5 m -1.2,0.7 0,0.5 m 3.4,-2 0,-0.4 m -1.2,0.7 0,0.4 m 3.4,-1.9 0,-0.5 m -1.2,0.7 0,0.5 m 3.4,-2 0,-0.5 m -1.2,0.7 0,0.5 m 3.4,-2 0,-0.4 m -1.2,0.6 0,0.5 m 3.4,-2 0,-0.4 m -1.2,0.7 0,0.4 m 3.4,-1.9 0,-0.5 m -1.2,0.7 0,0.5 m 3.4,-2 0,-0.5 m -1.2,0.7 0,0.5 m 1.1,-1.1 0,0.1 0.1,0.3 m -1,0.6 -0.1,-0.3 0,-0.1 m -1.2,0.7 0,0.1 0,0.3 m -1,0.6 0,-0.4 0,-0.1 m -1.2,0.7 0,0.1 0,0.4 m -1,0.5 0,-0.3 0,-0.1 m -1.2,0.7 0,0.1 0,0.3 m -1,0.6 0,-0.3 0,-0.1 m -1.2,0.7 0,0.1 0,0.3 m -1,0.6 0,-0.3 0,-0.1 m -1.2,0.7 0,0.1 0,0.3 m -1,0.6 0,-0.4 0,-0.1 m -1.2,0.7 0,0.1 0,0.4 m -1,0.5 0,-0.3 0,-0.1 m -1.2,0.7 0,0.1 0,0.3 m -1,0.6 0,-0.3 0,-0.1 m -2.2,1.7 0,0 m -0.3,0.2 0,0 m -2,-1.5 0.2,-0.1 m 194,117.5 -2.8,-1.7 m 2.8,1.7 1.6,-1.1 1.4,-1.4 1.4,-1.6 1.2,-1.8 0.9,-1.9 0.8,-2 0.4,-1.9 0.2,-1.9 m -10.7,11.9 1.6,-1 1.4,-1.4 1.4,-1.6 m -96.8,57.4 92.4,-53.4 M 272,41 l 0,-1.4 m 0,-5.7 0,-1.4 m 0,-9.4 0,-1.4 m 0,-5.7 0,-1.4 m -106.6,97.7 0.7,0.6 1.2,0.4 1.4,0.1 1.5,-0.4 1.5,-0.7 M 274.8,47 l 0,-35 m -100.3,101.9 -2.8,-1.6 m 2.8,1.6 92.4,-53.3 M 274.8,12 274.6,10.3 274.2,8.9 273.4,7.7 272.5,6.9 M 169,114.5 l 1.1,0.4 1.4,0.1 1.5,-0.4 1.5,-0.7 m -65.6,-162.8 2.8,1.6 m -2.8,-1.6 -0.1,1.9 -0.5,1.9 -0.7,2 -1,1.9 -1.1,1.8 -1.4,1.7 -1.5,1.3 -1.5,1.1 m 0,0 2.8,1.6 m 7.8,-13.6 -0.1,1.9 -0.5,1.9 -0.7,2 -0.9,2 -1.2,1.8 -1.4,1.6 -1.4,1.3 -1.6,1.1 m -34.4,-24.9 0.9,-0.5 m 0,0 0.2,-0.1 0.2,0 0.1,0 0.2,0 0.1,0.1 0.1,0.2 0.1,0.2 0,0.2 m 0,0 0,0.2 m 0,0 0,0.2 0.1,0.2 0.1,0.2 0.1,0.1 0.1,0 0.2,0 0.2,0 0.2,-0.1 m 0,0 21.6,-12.5 m 0,0 0.2,-0.1 0.2,0 0.2,0 0.2,0 0.1,0.1 0.1,0.2 0,0.2 0,0.2 m 0,0 0,1.4 m 0,0 0,0.2 0,0.3 -0.1,0.2 -0.1,0.3 -0.2,0.2 -0.2,0.2 -0.2,0.2 -0.2,0.1 m 0,0 -21.6,12.5 m 0,0 -0.2,0.1 -0.2,0.2 -0.2,0.2 -0.1,0.2 -0.1,0.3 -0.1,0.2 -0.1,0.3 0,0.2 m 0,0 0,13.2 m 0,0 0,0.5 -0.2,0.5 -0.1,0.5 -0.3,0.5 -0.3,0.5 -0.3,0.4 -0.4,0.3 -0.4,0.3 m 0,0 -28.9,16.7 m 0,0 -0.4,0.1 -0.3,0.1 -0.4,0 -0.3,-0.1 -0.2,-0.2 -0.2,-0.3 -0.1,-0.4 -0.1,-0.4 m 70.4,-63.8 0,13.3 m 0,8.5 0,13.2 m -7.8,-39.5 1.5,-0.7 1.5,-0.3 1.4,0 1.1,0.4 1,0.9 0.7,1.1 0.5,1.4 0.1,1.7 M 8.7,-35 9.3,-35.4 m 15.7,-9 76.1,-44 M 0.8,-21.5 1,-23.3 l 0.4,-2 0.8,-2 0.9,-1.9 1.2,-1.8 1.4,-1.6 1.4,-1.4 1.6,-1 m -7.9,48.5 0,-13 m 0,-15.2 0,-6.8 M 8.7,18 7.1,18.8 5.7,19.1 4.3,19 3.1,18.6 2.2,17.8 1.4,16.6 1,15.2 0.8,13.5 M 101.1,-35.3 8.7,18 m 25.6,-54.9 -0.2,1.9 -0.4,1.9 -0.8,1.9 -1.1,1.9 -1.2,1.7 -1.4,1.5 -1.5,1.1 -1.5,0.8 -1.5,0.4 -1.3,-0.1 -1.2,-0.4 -0.9,-0.9 -0.5,-0.9 m 8.8,-15.7 1,-0.1 1.2,0.3 1.1,0.6 0.8,1.1 0.4,1.4 0.2,1.6 m 74.6,-47 2.8,1.6 m 0,0 0,35 M 8.7,18 l 2.8,1.7 m 92.4,-53.4 -92.4,53.4 m 98,-107 0,0 0.9,0.8 0.7,1.1 0.5,1.5 0.1,1.6 m -39.3,24.6 2.8,1.6 m 0,0 19.6,-11.3 m -20.3,11.4 0.1,0 0.2,0 0.2,0 0.2,-0.1 m -2.9,-0.9 0.3,-0.1 m -61.1,76.8 -1.6,0.7 -1.4,0.3 -1.4,0 -1.2,-0.5 m 18,-44 -0.4,-1 -0.2,-0.7 m 8.2,-14.4 0.5,-0.2 1.4,-0.2 0.1,0 m 78.2,-18.2 0,5.3 m 0,-16.1 0,8.9 m 0,-16 0,5.3 m 0,-7.2 0,-3.9 m -2.7,-5.4 0.4,0.2 1,0.8 0.7,1.2 0.5,1.5 0.1,1.7 M 11.5,19.6 10,20.4 8.5,20.7 7.1,20.6 5.9,20.2 5.5,20 m 98.2,-53.6 -92.2,53.2 m 100.2,-67.1 -0.1,1.9 -0.5,2 -0.7,2 -1,2 -1.2,1.9 -1.4,1.6 -1.5,1.4 -1.6,1.1 m 8,-13.9 0,-3.9 m 0,3.9 160.4,92.6 M 103.7,-33.6 264.1,59 m 8,-13.9 -0.2,1.9 -0.4,2 -0.8,2 -1,2 -1.2,1.8 -1.4,1.7 -1.5,1.4 -1.5,1.1 M 111.7,-51.4 272.1,41.1 m 0,0 0,4 M 11.5,19.6 171.9,112.2 M 264.1,59 171.9,112.2 M 271.5,40.6 111.7,-51.7 m 159.8,92.3 0.6,0.5 m 0,-1.8 -160.4,-92.5 m 160.4,92.5 -0.6,1.3 M 111.7,-58.5 272.1,34 m 0,0 0,5.3 M 111.7,-58.8 271.5,33.4 m 0,0 0.6,0.6 m 0,-1.8 -160.4,-92.6 m 160.4,92.6 -0.6,1.2 M 111.7,-69.3 272.1,23.2 m 0,0 0,9 M 111.7,-69.6 271.5,22.7 m 0,0 0.6,0.5 m 0,-1.8 -160.4,-92.5 m 160.4,92.5 -0.6,1.3 M 111.7,-76.4 272.1,16.1 m 0,0 0,5.3 M 111.7,-76.7 271.5,15.5 m 0,0 0.6,0.6 m 0,-1.8 -160.4,-92.6 m 160.4,92.6 -0.6,1.2 m 0.6,-5.1 -160.4,-92.6 m 160.4,92.6 0,3.9 m -2.4,-9.1 0,0 1,0.8 0.8,1.2 0.4,1.4 0.2,1.8 m -100.2,101.8 -1.6,0.7 -1.5,0.4 -1.4,-0.1 -1.2,-0.4 M 65.9,-60.7 l 8.8,5.1 m -8.8,-5.1 0,22.1 m 0,0 4.2,2.5 m -4.2,-2.5 -9.8,5.7 m -20,-10.6 29.8,-17.2 m -29.8,39.3 0,-22.1 m 9.8,16.4 -9.8,5.7 m 9.8,-10.9 0,5.2 m 0,-5.2 -7.8,4.5 m 0,0 0,-14.2 m 0,0 25.8,-14.9 m 0,0 0,14.2 m 0,0 -7.8,4.5 m 0,0 0,5.3 m -5.8,8.3 -4.4,-2.5 m -9.8,5.7 4.4,2.5 m 15.6,-14 4.3,2.5 m -4.5,-10.6 1.2,-0.7 m 0,0 -0.6,-0.4 m 0,0 -0.6,0.4 m 0,0.7 0,-0.7 m 0.6,-1.1 0,0.7 m 0.6,0.4 0,-1.5 m -0.6,0.4 0.6,-0.4 m 1.4,3.7 -2.6,-1.5 m 1.2,-0.7 2.6,1.4 m -2.6,-2.9 3.8,2.2 m -5,-0.7 0,-0.8 m 0,0 0.6,-0.3 m 0.6,-0.4 -1.2,0.7 m 0,0 0,0 m -17.8,0.5 8.5,4.9 m 4.6,2.2 2.6,-1.5 m 5.5,6.2 0,0.4 m -8.4,0.4 0,-2.8 m 3.9,5 -8.9,-5.1 m 5.5,-7.6 0,0.7 m 0.6,0.4 -0.6,-0.4 m 0.6,0.4 0,-1.4 m -0.6,0.3 0.6,-0.3 m -1.2,2.1 1.2,-0.7 m -0.6,-0.4 -0.6,0.4 m 0,0.7 0,-0.7 m 5.7,-9.2 -0.6,0.4 m 0,0.7 0,-0.7 m 0,0.7 1.2,-0.7 m -0.6,-0.4 0.6,0.4 m -0.6,-1.1 0,0.7 m 0.6,0.4 0,-1.5 m -0.6,0.4 0.6,-0.4 m -5.1,10.3 4.1,2.3 m -4.1,-3.7 4.1,2.3 m 0,2.9 -5.3,-3.1 m 6.3,-9.5 6.8,3.8 m -6.8,-5.3 6.8,3.9 m -0.3,2.7 -7.7,-4.4 m -5.1,8.1 0,-0.7 m 0,0 0.6,-0.4 m 4.5,-8.5 0.6,-0.3 m -0.6,1.1 0,-0.8 m -3.9,8.2 -1.2,0.7 m 0,0 0,0 m 6.3,-9.6 -1.2,0.7 m 0,0 0,0 m -9.5,11.4 0,0.8 m 0.6,0.3 -0.6,-0.3 m 0.6,0.3 0,-1.4 m -0.6,0.3 0.6,-0.3 m -1.3,2.2 1.3,-0.8 m -0.6,-0.3 -0.7,0.4 m 0,0.7 0,-0.7 m 5.7,-10 0,0.7 m 0,0 0.6,0.4 m 0,0 0,-1.4 m -0.6,0.3 0.6,-0.3 m -0.6,1 -0.6,0.4 m 0,0.7 0,-0.7 m 0,0.7 1.2,-0.7 m 5.2,16.2 -11.5,-6.6 m 1.3,-0.8 11.4,6.6 m -11.4,-8 12.3,7.1 m -7.3,-14.5 3.9,2.2 m -3.9,-3.6 9,5.1 m -5.1,0 -5.1,-3 m -5.1,8.2 0,-0.8 m 0,0 0.7,-0.4 m 4.4,-8.4 0.6,-0.4 m -0.6,1.1 0,-0.7 m -3.8,8.1 -1.3,0.7 m 0,0 0,0 m 6.3,-9.5 -1.2,0.7 m 0,0 0,0 m -4.4,2.5 0,0.8 m 0,0 0.6,0.3 m 0,0 0,-1.4 m -0.6,0.3 0.6,-0.3 m -0.6,1.1 -0.7,0.4 m 0,0.7 0,-0.7 m 0,0.7 1.3,-0.8 m 0,0 3.8,2.3 m 0,1.4 -5.1,-2.9 m 1.3,-2.2 9.1,5.3 m -10.4,-4.6 0.7,-0.4 m -0.7,1.2 0,-0.8 m 1.3,-0.7 -1.3,0.7 m 0,0 0,0 m -34,30.1 -0.2,1.9 -0.5,2 -0.8,2 L 9.1,-4.7 7.8,-3 6.3,-1.5 4.8,-0.5 3.3,0.2 1.8,0.5 0.5,0.3 0,0 m 9.7,-16.8 0.5,0.4 0.8,1 0.5,1.4 0.2,1.6 m 263.1,50.5 0.3,-0.4 1.1,-1.9 0.8,-2 0.5,-2 0.2,-1.8 -0.2,-1.7 -0.5,-1.4 -0.8,-1 -0.6,-0.4 m -167.4,-93.6 -0.2,1.9 -0.5,2 -0.8,2 -1.1,1.8 -1.3,1.7 -1.5,1.5 -1.5,1.1 -1.5,0.6 -1.5,0.3 -1.3,-0.2 -0.6,-0.3 m 9.8,-16.8 0.5,0.4 0.8,1 0.5,1.4 0.2,1.6 M 274.8,47 272.1,45.5 M 274.8,12 272.1,10.5 M 94,-70.2 l 1,0.6 m -24.6,10.5 1,0.6"
         style="fill:none;stroke:#000000;stroke-width:0.70899999;stroke-linecap:round;stroke-linejoin:round;stroke-miterlimit:10;stroke-opacity:1;stroke-dasharray:none"
         id="path3871"
         inkscape:connector-curvature="0" />
    </g>
    <g
       id="g3881"
       transform="matrix(1.25,0,0,-1.25,343.48577,958.68573)">
      <path
         d="m 0,0 0.9,-0.4 1.5,-0.3 1.4,0.1 1.5,0.4 1.5,0.8 1.5,1.1 1.3,1.5 1.1,1.6 0.9,1.8 0.7,1.9 0.3,1.9 0,0.7 m 0,0 -0.1,1 -0.3,1.6 -0.7,1.4 -0.9,1.1 -1,0.6 m 0,0.1 -1.8,1 M -1.9,1.1 -0.1,0 m -96.4,-55.7 1,-0.4 1.4,-0.3 1.5,0.1 1.5,0.4 1.4,0.8 1.5,1.1 1.3,1.5 1.2,1.6 0.9,1.8 0.6,1.9 0.3,1.9 0,0.7 m 0,0 0,1 -0.4,1.6 -0.7,1.4 -0.9,1.1 -1,0.6 m 0,0.1 -1.8,1 m -9.7,-16.8 1.8,-1.1 m -169.7,97.9 0.8,-0.5 m 0,15.1 -0.8,-0.9 -1.2,-1.7 -0.9,-1.8 -0.6,-1.8 -0.3,-2 0,-0.6 m 0,0 0,-1.1 0.4,-1.6 0.7,-1.3 0.9,-1.1 0.9,-0.6 m 250.1,-54.9 0,0 0.1,0.1 m 0,0 5.9,3.4 m 0.2,0.2 0,4.7 m -0.2,-4.9 0.1,0.1 0.1,0.1 m -27.3,-15.9 5.7,3.3 m 0.1,5.2 0,0 0,0.1 0,0.1 m 0,-5.2 0,5 m -0.1,-5.2 0,0.1 0.1,0 0,0.1 m 13.4,5.5 0,0 m -17.6,4.4 0,4.6 m -3.3,-21.7 9.7,5.6 m 21.5,39.1 0,4.4 m 0.3,-10.5 0,4.5 m -0.3,-11.7 0,4.7 m 0.3,-10.8 0,4.5 m -10.3,-17.6 9.7,5.6 m 0.3,0.6 0,4.4 m -70.8,-31.6 1.3,0.2 0.5,0.3 0.8,0.5 0.8,0.8 0.5,1.1 0.2,1.3 -0.3,1.3 -0.6,1.2 -0.8,0.8 m -4.5,-6.9 0.4,-0.2 0.8,-0.3 0.9,-0.1 m -2.2,0.6 0.1,0 m 2.1,-12.3 1.3,0.2 0.5,0.2 0.8,0.6 0.8,0.8 0.5,1.1 0.2,1.2 -0.3,1.3 -0.6,1.2 -0.8,0.8 m -4.5,-6.9 0.4,-0.2 0.8,-0.3 0.9,0 m -2.2,0.6 0.1,-0.1 m 15,13 0,7.4 m 20.6,-1.8 0,23.2 m -20.6,-23.2 2.2,-1.3 m 11,13.5 -3.9,2.3 m -43.4,-55.1 2.8,-1.6 M 6.4,35.4 3.6,37 m -266.8,-13.4 2.5,-1.4 m 103.6,107.5 -2.6,1.5 M -260.3,21.9 -100,-70.6 M 2.8,37.4 -156.8,129.5 M 11.6,9.7 11.5,11 11,12 10.2,12.7 9.2,12.9 8,12.7 6.8,12.1 5.6,11.1 4.5,9.9 3.6,8.4 2.9,6.8 2.6,5.2 2.6,3.8 2.9,2.6 3.6,1.8 4.5,1.3 l 1.1,0 1.2,0.4 1.2,0.8 1.2,1.2 1,1.4 0.8,1.5 0.5,1.6 0.1,1.5 M 7.8,17.9 7.2,18.2 5.9,18.4 4.5,18.1 2.9,17.4 1.4,16.4 -0.1,14.9 -1.4,13.2 -2.5,11.3 -3.3,9.4 -3.8,7.4 -4,5.5 l 0.2,-1.6 0.5,-1.4 0.8,-1 0.6,-0.4 m 13.1,9.2 0,-1.7 m -2.6,0.2 2.6,1.5 M 8.6,8.8 7.8,9.3 m 0,2.9 0,-2.9 m -1.4,2.1 1.4,0.8 m -1.4,-3.8 0,3 m 0,-3 L 5.6,7 M 3,5.6 5.6,7 M 3,3.9 3,5.6 M 5.6,5.4 3,3.9 M 5.6,5.4 6.4,4.9 m 0,-2.9 0,2.9 M 7.8,2.8 6.4,2 m 1.4,3.7 0,-2.9 m 0,2.9 0.8,1.5 M 11.2,8.6 8.6,7.2 M 4.1,6.2 5.6,5.4 M 6.4,10.1 7.8,9.3 M 6.4,10.1 8.6,8.8 M 6.4,8.4 8.6,7.2 M 5.6,7 7.8,5.7 M 4.3,6.3 4.7,5.9 M 6.4,4.2 7.8,2.8 M 6.4,9.9 7,9.8 m 2.2,-0.7 2,-0.5 m -96,-54.6 -0.2,1.3 -0.5,1.1 -0.8,0.6 -1,0.2 -1.2,-0.1 -1.2,-0.7 -1.2,-0.9 -1.1,-1.3 -0.9,-1.5 -0.6,-1.6 -0.4,-1.6 0,-1.4 0.4,-1.2 0.6,-0.8 0.9,-0.5 1.1,0 1.2,0.4 1.2,0.8 1.2,1.2 1,1.4 0.8,1.5 0.5,1.6 0.2,1.5 m -3.9,8.2 -0.6,0.3 -1.3,0.2 -1.4,-0.3 -1.5,-0.7 -1.6,-1 -1.4,-1.5 -1.3,-1.7 -1.1,-1.8 -0.8,-2 -0.5,-2 -0.2,-1.9 0.2,-1.6 0.5,-1.4 0.8,-1 0.5,-0.4 m 13.1,9.2 0,-1.7 m -2.5,0.2 2.5,1.5 m -2.5,-1.5 -0.9,0.5 m 0,2.9 0,-2.9 m -1.4,2.1 1.4,0.8 m -1.4,-3.7 0,2.9 m 0,-2.9 -0.8,-1.5 m -2.5,-1.4 2.5,1.4 m -2.5,-3.1 0,1.7 m 2.5,-0.2 -2.5,-1.5 m 2.5,1.5 0.8,-0.5 m 0,-2.9 0,2.9 m 1.4,-2.1 -1.4,-0.8 m 1.4,3.7 0,-2.9 m 0,2.9 0.9,1.5 m 2.5,1.4 -2.5,-1.4 m -4.5,-1 1.4,-0.8 m 0.8,4.7 1.4,-0.8 m -1.4,0.8 2.3,-1.3 m -2.3,-0.3 2.3,-1.3 m -3.1,-0.2 2.2,-1.3 m -3.5,0.6 0.5,-0.4 m 1.6,-1.7 1.4,-1.4 m -1.4,7.1 0.6,-0.1 m 2.3,-0.6 1.9,-0.6 m -181.2,92.7 0.1,1.8 0.6,2 0.3,1 m 0,-8.5 -0.3,0.6 -0.6,1.4 -0.1,1.7 m 250.4,-53 0,-5 m 5.9,3.4 -5.9,-3.4 m -15.6,-9 0,5 m 13.5,7.6 0,-6.9 m 0.8,7.3 -0.8,-0.4 m 0.8,1.8 0,-1.4 m 6.6,5.3 -6.6,-3.9 m 6.6,9.4 0,-5.5 m 0,12 0,5.7 m -19.6,-29.1 -6.2,-3.6 m 6.2,2.2 0,1.4 m 0.8,-0.9 -0.8,-0.5 m 0.8,-4.5 0,5 m -1.9,-6.1 -0.1,-0.1 m 0.1,5.6 0,-5.5 m -5.1,2.5 5.1,3 m -7.8,-0.9 0,0 m 29.2,7.7 0.1,0.1 m 0,5 0,-5 m -0.8,5 -5.5,-3.2 m 0,0 0,-5.4 m 0,0 0.1,0 m -23,-3.7 -1,0.5 m 0.9,-1 0,0 -0.1,-0.1 -0.1,0 0,0.1 m -0.7,0.4 0.7,-0.4 m 7.9,4.5 -5,-2.9 m 6.2,0.8 -1.2,2.1 m -4.2,2.4 4.2,-2.4 m -1.1,-9.7 0.1,0 m 0,0 -4.1,-2.4 m 0,0 -0.1,0.1 m 5.3,2.9 -0.1,0.1 m 0,-0.2 -0.1,0.1 m 2.1,7.5 -1.6,0.9 m 1.6,-0.9 0,-1.4 m 16.4,28.6 0,-4.3 m 0,0 -3.7,2.1 m 3.7,-2.1 2.4,0 m -9.9,-23.5 -8.9,-5.2 m 8.9,5.2 -15.9,9.2 m 15.9,-10.4 0,1.2 m -8.5,-6.1 8.5,4.9 m 0.4,24.3 -0.5,0.3 m 3.4,-17.2 -16.5,9.6 m 15.3,-6.1 -12.9,7.5 m 12.9,-7.5 1.2,-2.1 m 4.2,5.2 -5.4,-3.1 m 7.8,1.8 -2.4,1.3 M -35.9,0 -20.6,-8.8 m 2.4,0 -2.4,0 m 2.4,-6.9 -0.2,-0.2 m -2.2,7.1 0,-7.1 m 0,0 2.2,0 m 5.2,14.1 -12.9,7.5 m 5.4,-21.5 0.1,-0.1 m 7.4,18.3 0,-4.2 m 2.4,4.2 -2.4,0 m 0,0 -4.6,2.7 m -2.4,1.4 -2.3,1.3 m 7.3,-19.9 4.1,2.4 m -4.2,-2.3 0.1,-0.1 m -1,-0.6 -0.1,0.1 m 6.3,3.5 -0.2,0.1 m 0,-0.1 0.1,-0.1 m -1,-0.5 -0.1,0 m -28.1,12.4 0.4,-0.2 m 0,0 -0.1,-0.1 -0.1,0 -0.2,0 -0.1,0 -0.1,0 -0.2,0 -0.1,0 m 0.3,0.3 -0.1,0 m 0.1,0 0,0 0.1,0 0.1,0 m 0.4,-0.2 0,-4.4 m -0.1,0 0,0 0.1,0 m -1,0 0.1,0 0.1,-0.1 0.2,0 0.1,0 0.1,0 0.2,0.1 0.1,0 m 5,7.3 0,0.2 -0.1,0.1 -0.1,0.1 0,0.1 -0.1,0.1 -0.1,0.1 -0.1,0.1 m 0.5,-0.9 0,0.1 m -4.9,-2.9 4.9,2.8 m -5.2,-2.1 0,0 0.1,-0.1 0,-0.1 0.1,-0.1 0.1,-0.2 0,-0.1 0,-0.1 m -0.5,0.4 0,0 0,-0.1 0.1,0 0,-0.1 m -0.2,0.2 0.1,0 m -0.8,-4.6 0.3,-0.2 m 0,-8.6 -0.3,0.2 m 0.3,-0.2 0,-4.7 m -0.3,0.2 0.3,-0.2 m 0,-8.6 -0.3,0.2 m 0.3,-0.2 0,-4.4 m -0.3,0.2 0.3,-0.2 m 29.5,23.9 0,7.2 m -0.2,0.1 0.1,0 0.1,0 0,-0.1 M -10.6,3 -11,2.7 m 0,4.7 0,-4.7 m 0,4.7 0.4,0.2 m 0.2,0.4 0,-0.1 0,-0.1 -0.1,-0.1 0,-0.1 -0.1,0 m 0.2,0.4 0,6.8 m 0,0 -26.2,-15.2 m 0,0 0,-6.8 m 0.2,-0.1 -0.1,0 -0.1,0 0,0.1 m 0.2,-0.1 0.4,0.2 m 0,-4.6 0,4.6 m 0,-4.6 -0.4,-0.2 m -0.2,-0.4 0,0.1 0,0.1 0.1,0.1 0.1,0.1 m -0.2,-0.4 0,-7.2 m 0,0 -0.8,-0.4 m 0,0 0,-5.5 m 0,0 8.2,4.8 m 0,0 0,-2 m -9.7,-5.6 9.7,5.6 m -9.7,-1.2 0,-4.4 m 0.1,4.7 0,-0.1 0,-0.1 -0.1,0 0,-0.1 m 0.1,0.3 0,1.5 m 0,5.1 0,-5.1 m 0,5.1 0,1.6 m -0.1,0.1 0,0 0.1,0 0,-0.1 m -0.1,4.8 0,-4.7 m 0.1,5 0,-0.1 0,-0.1 -0.1,0 0,-0.1 m 0.1,0.3 0,1.5 m 0,5.1 0,-5.1 m 0,5.1 0,1.6 m -0.1,0.1 0,0 0.1,0 0,-0.1 m 5,7.3 0,0 -0.1,0 -0.1,0 m 0.2,0 1.3,0.8 m 4.4,2.5 -4.4,-2.5 m 4.4,2.5 1.4,0.8 m 0.2,0.2 -0.1,0 0,-0.1 -0.1,-0.1 m 0.2,0.2 6,3.5 m 0.2,0 0,0 -0.1,0 -0.1,0 m 0.2,0 1.4,0.8 m 4.4,2.5 -4.4,-2.5 m 4.4,2.5 1.3,0.8 m 0.2,0.2 0,0 0,-0.1 -0.1,0 0,-0.1 -0.1,0 m 0.2,0.2 4.9,2.9 m 0,-4.4 0,4.4 m -0.1,-4.6 0,0 0,0.1 0.1,0 0,0.1 m -0.1,-0.2 0,-1.6 m 0,-5.1 0,5.1 m 0,-5.1 0,-1.6 m 0.1,-0.1 0,0 -0.1,0 0,0.1 m 0.1,-4.8 0,4.7 m -0.1,-5 0,0.1 0,0.1 0.1,0 0,0.1 m -0.1,-0.3 0,-1.5 m 0,-5.1 0,5.1 m 0,-5.1 0,-1.6 m 0.1,-0.1 0,0 -0.1,0 0,0.1 m 0.1,-4.5 0,4.4 m -9.7,-10 9.7,5.6 m -9.7,-5.6 0,2 m 8.2,4.7 -8.2,-4.7 m 8.2,10.1 0,-5.4 m -0.8,5 0.8,0.4 m -3.9,22.2 4.9,2.8 m -5,-2.8 0.1,0 M -20.9,14 -21,14 m -6,-3.5 6.1,3.5 m -6.2,-3.5 0.1,0 m -7.5,-4.3 0,0 m 25.8,15 0.1,-0.1 m -30.6,-24.5 0.4,-0.2 m -0.4,1.6 0,-1.4 m 0.1,-5.2 0.1,0.1 0.1,0 0.1,-0.1 0,-0.1 m -0.3,0.1 -0.5,-0.1 -0.6,0 m 0,4.5 0.2,0 0.6,0.1 0.3,0.1 m 0.3,0.4 0,-0.1 -0.1,-0.1 -0.1,-0.1 -0.1,-0.1 m 0,0 -0.3,0.3 m 0,0 -0.4,-0.1 -0.4,-0.1 m 1,0.5 0,-0.1 -0.1,-0.1 -0.1,-0.1 m 6.9,9.8 -0.4,0.2 m 0,0 -1.2,-0.7 m 1.6,1.8 0.2,-0.6 0,-0.3 m 4,2.3 -0.1,0.5 -0.2,0.4 m 0.5,-1.1 0,0 -0.1,0 -0.1,0.1 0,0.1 m -4,-2.3 0,-0.1 0,-0.1 -0.1,-0.1 0,-0.1 -0.1,0 m -0.2,0.5 0.4,-0.1 m -0.5,0.7 0.1,-0.3 0,-0.3 m 0,0 0,0 0,-0.1 0,-0.1 -0.1,0 -0.1,-0.1 m -6.6,-16.5 0.5,-0.4 m 0,0 -0.1,0 -0.2,0 -0.1,0 -0.1,0 -0.2,0 -0.1,0.1 -0.1,0 m 0.4,0.3 -0.7,0.4 m 1,-0.2 0.4,-0.2 m -0.4,1.6 0,-1.4 m -0.7,-5.2 0.1,0 0.1,-0.1 0.2,0 0.1,0 0.1,0 0.2,0 0.1,0.1 m 0.1,4.7 -0.1,0 0,-0.1 m 0,-4.6 0,0 0.1,0 m 11.9,25.7 0.1,-0.1 0.1,-0.1 0.1,-0.1 0,-0.1 0.1,-0.1 0.1,-0.1 0,-0.1 m 0,0 -0.5,0.2 m -0.5,0.3 0.5,-0.3 m -12.3,-20.2 0,-0.1 -0.1,0 -0.1,0 0,0.1 m 0.3,0.2 0,0 0,-0.1 -0.1,0 0,-0.1 m 12.6,19.6 -0.4,0.2 m 0,0 -1.2,-0.7 m 7.8,4.3 0,0.2 -0.1,0.1 0,0.1 -0.1,0.1 -0.1,0.1 -0.1,0.1 0,0.1 m 0.4,-0.9 0,0.1 m -6,-3.4 0,-0.1 0,-0.1 m -0.5,0.4 0,0 0,-0.1 0,-0.1 m -0.1,-0.2 0,0.1 0.1,0 0,0.1 m -8.9,-16.3 -0.7,0.5 m 0.7,-0.5 0,-0.1 0.1,-0.1 0,-0.1 0,-0.1 -0.1,-0.1 -0.1,-0.1 m -0.4,0.4 0,0 0,-0.1 m -0.2,0.3 0.2,-0.2 m 0,-0.1 -0.2,-0.2 m 0.6,-4.7 0.1,0.1 0.1,0.1 0,0.1 m -3.4,-5.3 0.4,-0.2 m -0.4,1.6 0,-1.4 m 0.1,-5.2 0.1,0.1 0.1,-0.1 0.1,0 0,-0.1 m -0.3,0.1 -0.5,-0.1 -0.6,0 m 0,4.5 0.2,0 0.6,0.1 0.3,0.1 m 0.3,0.4 0,-0.1 -0.1,-0.1 -0.1,-0.1 -0.1,-0.1 m 0,0 -0.3,0.3 m 0,0 -0.4,-0.1 -0.4,-0.1 m 1,0.5 0,-0.1 -0.1,-0.1 -0.1,-0.1 m 20.5,30.9 -0.4,0.2 m 0,0 -1.2,-0.7 m 6,3 -0.1,0 -0.1,0 0,0.1 -0.1,0.1 m -3.9,-2.3 -0.1,-0.1 0,-0.1 0,-0.1 -0.1,-0.1 m -0.1,1.3 0.2,-0.5 0.1,-0.4 m 3.9,2.3 -0.1,0.5 -0.2,0.4 m -4.2,-2.5 0.1,-0.3 0.1,-0.3 m 0,0 0.4,-0.1 m -0.4,0.1 0,0 -0.1,-0.1 0,-0.1 -0.1,0 0,-0.1 m -20.2,-37.7 0.5,-0.3 m 0,0 -0.1,0 -0.2,0 -0.1,0 -0.1,0 -0.2,0 -0.1,0.1 -0.1,0 m 0.4,0.2 -0.7,0.5 m 1,-0.2 0.4,-0.2 m -0.4,1.6 0,-1.4 m 0.3,-0.5 -0.1,-0.1 m -0.9,-4.3 0.1,0 0.1,-0.1 0.2,0 0.1,0 0.1,0 0.2,0 0.1,0.1 0.1,0 m -0.4,4.7 0,-0.1 -0.1,0 -0.1,0 m 0.3,0.3 0,0 0,-0.1 -0.1,-0.1 m 25.8,41.8 0.1,-0.1 0.1,0 0.1,-0.1 0.1,-0.2 0,-0.1 0.1,-0.1 0,-0.1 m 0,0 -0.5,0.2 m -0.5,0.3 0.5,-0.3 m 0.3,-0.6 -0.4,0.2 m 0,0 -1.2,-0.7 m 6.7,3.6 0,0.1 0,0.1 -0.1,0.1 0,0.2 -0.1,0.1 -0.1,0.1 -0.1,0.1 -0.1,0 m -4.4,-3.5 0,-0.1 0,-0.1 m -0.5,0.4 0,0 0.1,0 0,-0.1 m 0,0 -0.1,-0.1 0,-0.1 -0.1,0 0,-0.1 m -15.6,-38 -0.4,0.2 m 0,0 -7.8,-4.5 m -1.5,-3.3 0,-0.1 0,-0.1 -0.1,0 -0.1,-0.1 -0.1,0 -0.1,0 -0.1,0 m 0,0 -0.5,0.3 m 10.5,5.3 0,0 0.1,0.1 0.1,0 0,0.1 0,0.1 m 10.4,6.7 -10.4,-6 m 21.1,42.8 0.1,-0.1 0.1,-0.1 0,-0.1 0,-0.1 0,-0.1 -0.1,-0.1 -0.1,0 m -0.5,0.8 0.5,-0.2 M -8,16 l 0.1,0.1 0,0.1 M -8.1,15.9 -8,16 M -10.8,8.2 -10.4,8 m -0.4,6.6 0,-6.4 m -0.8,-0.6 -6.6,2.7 m 6.8,-2.7 0,0 -0.1,0 -0.1,0 m 1,0 -0.4,0.2 m 0,-0.4 -0.1,-0.1 -0.1,0 -0.1,0 -0.1,0 -0.2,0 -0.1,0 -0.1,0 -0.1,0 m -6.7,2.7 6.7,-2.7 m 0.9,0.5 -0.4,-0.2 m 3.4,6.4 -0.1,0 -0.1,0 0,0.1 M -8,14 l 0.3,0.3 0.1,0.3 -0.1,0.2 M -7.6,10.1 -7.6,10 -7.8,9.6 -8,9.4 M -8.2,9 l 0,0.1 0.1,0.1 0.1,0.1 0,0.1 M -8.2,14.1 -8,14 m -3.9,-6.7 0,-4.6 m 0,0 -8,3.2 m 12.2,8.9 -0.5,0 m -10.3,-30.9 0,0.2 m -10.7,-6.4 10.7,6.2 m 6.6,18.8 0.1,0 0.1,-0.1 0.1,0 0.2,0 0.1,0 0.1,0.1 0.1,0 0.1,0 m 2.8,13 0.5,-0.9 m -3.1,-6.6 0,-0.1 0,-0.1 -0.1,0 0,-0.1 -0.1,-0.1 m 2.9,0.1 0.1,-0.1 0.1,-0.1 0,-0.1 0,-0.1 0,-0.1 L -8,7.3 M -8.2,8 -8.1,7.9 m 0.1,-0.6 0,0 -0.1,0 m 0.1,-4.6 0.1,0.1 0,0.1 M -8.1,2.6 -8,2.7 m -2.8,-6.8 0.4,-0.2 m -0.4,7.2 0,-7 m -9.3,10.2 0,0.1 m 0,-0.1 0,0 0,-0.1 0.1,0 0.1,-0.1 m -0.4,1.4 0,-0.1 0,-0.2 0,-0.1 0.1,-0.2 0,-0.1 0,-0.2 0,-0.1 0.1,-0.1 m -0.2,1.1 0,1.8 m 2.1,-24.8 0,-0.1 m 0.4,1.8 -0.4,0.2 m 0.4,-2.2 0,-0.1 0,-0.1 -0.1,0 0,-0.1 -0.1,0 -0.1,0 -0.1,0 -0.1,0 m 0,0 -0.2,0.2 m 0.3,2.3 0,-1.9 m 8.2,6.6 0.4,-0.2 m -0.4,0.2 -8.2,-4.7 M -8.2,0.8 -8,0.7 m 0,0 -0.1,0 -0.1,0 0,0.1 M -8,0.7 -7.7,1 -7.6,1.3 -7.7,1.5 m 0.1,-4.7 0,-0.1 -0.2,-0.4 -0.2,-0.2 m -0.2,-0.4 0,0.1 0.1,0.1 0.1,0.1 0,0.1 m -0.2,-6.8 0,0 0,0.1 0.1,0 0,0.1 0,0.1 m 0.4,11.9 -0.5,0 m 0,0.9 0.5,-0.9 m -2.3,-5.6 0,-5 m 1.9,3.7 0.1,-0.1 0.1,-0.1 0,-0.1 0,-0.1 0,-0.1 L -8,-6 m -0.2,0.7 0.1,-0.1 M -8,-6 l 0,0 -0.1,0 m 0,-4.4 0.1,0.1 0.1,0.1 0,0.1 m -60.8,-33.5 0.2,0.1 0.4,0.1 m 22.6,36.2 0,0.2 0,0.2 -0.1,0.2 m -2.1,-10.6 0.3,0.1 m -0.3,2.2 0,-2.3 m -3.9,4.6 3.9,-2.3 m -14.3,-3.7 10.4,6 m -14.3,-12.9 3.9,6.9 m -3.9,-9.2 0,2.3 m -0.3,-2.5 0.3,0.2 m -0.3,-0.8 -0.1,-0.1 -0.1,0 -0.1,0.1 0,0.1 0,0.2 0.1,0.1 0.1,0.2 0.1,0 m 0,-8.1 0,7.5 m 0,-8.1 -0.1,-0.1 -0.1,0 -0.1,0.1 0,0.1 0,0.2 0.1,0.1 0.1,0.2 0.1,0 m 0.3,-0.5 -0.3,-0.1 m 0.3,-2.4 0,2.5 m 1,-3.1 -0.2,-0.1 -0.2,0 -0.2,0 -0.1,0 -0.2,0.1 -0.1,0.2 0,0.2 0,0.2 m 17.2,8.8 -16.2,-9.4 m 17.2,11.1 0,-0.2 -0.1,-0.3 -0.1,-0.2 -0.1,-0.3 -0.1,-0.2 -0.2,-0.2 -0.2,-0.2 -0.2,-0.1 m 1,4.3 0,-2.6 m 0.3,2.7 -0.3,-0.1 m 0.3,0.8 0.1,0.1 0.1,-0.1 0.1,0 0,-0.2 0,-0.1 -0.1,-0.1 -0.1,-0.2 -0.1,-0.1 m 0,8.1 0,-7.4 m 0,8.1 0.1,0.1 0.1,-0.1 0.1,0 0,-0.1 0,-0.2 -0.1,-0.1 -0.1,-0.2 -0.1,-0.1 m 1.9,-12.5 0,23.1 m -22.6,-36.2 22.6,13.1 m -2.5,12.9 0.1,0.1 0.1,0.1 m -0.5,-8.5 0.3,0.2 m -0.3,-2.7 0,2.5 m -1,-4.3 0.4,0.3 0.3,0.5 0.2,0.5 0.1,0.5 m -17.2,-11.2 16.2,9.4 m -16.6,-9.5 0.4,0.1 m 17.2,24.8 -3.3,2 m 3.3,-4.3 0,2.3 m -0.6,-10.8 -3.7,1.6 m 0.1,6.1 3.6,-0.2 m 0,0 0,-7.5 m 0.3,7.9 -0.3,-0.4 m -17.3,-18.2 0.2,0.2 0.2,0.3 0,0.1 m -0.1,7.8 0.1,-0.3 0,-0.2 -0.2,-0.3 -0.2,-0.1 m -0.2,-7.7 0.5,-0.3 m 20.4,6.3 0.3,0.2 0,0.2 m -3.1,15.3 0.6,-0.3 m -17.8,-24.5 0.6,-0.3 m 15.6,9.7 0.6,-0.3 m 3.4,23.9 0.1,-0.1 0,-0.2 0,-0.3 -0.3,-0.2 m -2.8,-9.7 0.6,-0.3 m 0.3,-0.6 -0.3,-0.1 -0.4,-0.1 -0.4,0 -0.4,0.1 m 0,-7.5 0.4,0 0.4,0 0.4,0.1 0.3,0.1 m 0,7.4 -0.6,0.4 m 0,0 -0.1,-0.1 -0.2,0 -0.1,0 -0.2,0 m 0.6,-8 0.6,-0.4 m -0.9,0.2 0.6,-0.3 m -0.6,-2.2 0.6,-0.4 m -16.1,4.2 0,0.1 0,0.1 0.1,0.1 0.1,0.1 m 0,0 1.4,-0.8 m 0,0 0,-5.6 m 0,0 -1.4,-0.8 m 0,0 -0.1,0.1 -0.1,0.1 0,0.1 0,0.1 m 0,0 0,6.4 m 10.8,6.7 0.1,0.1 0.1,0 0.1,0 0.1,-0.1 m 0,-1.6 0,1.6 m 0,-1.6 -9.6,-5.5 m -1.4,0.8 0,0.1 0.1,0.1 0,0.1 0.1,0 m 0,0 10.4,6 m -6.9,-0.2 -0.1,-0.1 m 0,0 -0.5,0.3 m 7.9,-7.1 0,5.5 m -9.6,-11.1 9.6,5.6 m -10.8,-6.3 -0.1,0 -0.1,-0.1 m 11,6.4 0,0 m 0,0 -0.1,-0.1 -0.1,-0.1 -0.1,0 -0.1,-0.1 m 0,0 -10.4,-6 m 5.7,14.5 -2,-1.1 m 0,0 0,-0.1 m 0,0 2.6,-0.8 m 0,0 0.8,0.5 m 0,0 -1.4,1.5 m 0,0 0,0 m 0.6,-2.3 0,0.3 m -2.6,0.8 0,-0.3 m -0.4,0.6 0,0 0.1,0 0.1,-0.1 0,-0.1 0.1,0 0.1,0 m -0.6,-0.2 -0.2,0.2 m 4.2,-0.4 0,-0.3 m -1.8,2.1 0,0 0.1,-0.1 0.1,0 0,-0.1 0.1,0 0.1,-0.1 m -5.7,-4.5 1.3,-0.4 m 0,0 0.8,0.5 m 0,0 -1.3,1.4 m 0.5,-2.2 0,0.3 m 0.8,0.5 0,-0.3 m 12.6,-8.1 -1,0.6 m 0,0 -16.2,-9.4 m 11.3,12.2 4.9,-2.8 m 0,15.1 0,-3.2 m 0,0 1.4,0.8 m -6.1,1.9 4.7,-2.7 m 0,0 1.4,0.8 m 0,-0.8 0,-0.6 m 0,-9.5 -1.4,0.8 m 0,0 0,-2.6 m 1.4,3.4 -1.4,-0.8 m -41.8,7.7 -2.9,1.6 m 2.9,-1.6 -1.6,-1 -1.4,-1.4 -1.4,-1.6 -1.2,-1.8 -0.9,-2 -0.8,-1.9 -0.4,-2 -0.2,-1.8 m 0,0 -2.8,1.6 m 7.8,13.5 -1.5,-1 -1.4,-1.4 -1.4,-1.6 -1.2,-1.8 -1,-1.9 -0.7,-2 -0.4,-2 -0.2,-1.8 m 33.5,8.1 0,-22.2 m 0,0 0,-0.4 0.2,-0.4 0.1,-0.3 0.3,-0.2 0.3,-0.1 0.3,0 0.4,0.1 0.4,0.2 m 0,0 21.9,12.6 m 0,0 0.3,0.2 0.4,0.4 0.4,0.4 0.3,0.5 0.2,0.5 0.2,0.5 0.1,0.5 0.1,0.4 m 0,0 0,22.3 m 0,0 -0.1,0.4 -0.1,0.4 -0.2,0.2 -0.2,0.3 -0.3,0.1 -0.4,0 -0.4,-0.1 -0.3,-0.2 m 0,0 -21.9,-12.6 m 0,0 -0.4,-0.3 -0.4,-0.3 -0.3,-0.4 -0.3,-0.5 -0.3,-0.5 -0.1,-0.5 -0.2,-0.5 0,-0.5 m -5.2,-21.7 -0.1,1.1 -0.5,0.9 -0.8,0.4 -1,0 -1.1,-0.4 -1.1,-0.8 -0.9,-1.1 -0.8,-1.4 -0.5,-1.4 -0.2,-1.4 0.2,-1.1 0.5,-0.8 0.8,-0.5 0.9,0 1.1,0.4 1.1,0.8 1,1.2 0.8,1.3 0.5,1.4 0.1,1.4 m 82.6,39.3 0,6.9 m 0,15.2 0,13 m -7.8,-48.6 1.5,1.1 1.5,1.3 1.4,1.6 1.1,1.8 1,2 0.7,2 0.5,1.9 0.1,1.8 M -91.5,-71.6 0.9,-18.2 m -100.3,-48.9 0.2,-1.6 0.4,-1.5 0.8,-1.1 0.9,-0.8 1.2,-0.5 1.4,0 1.4,0.3 1.6,0.7 m -7.9,39.6 0,-13.3 m 0,-8.5 0,-13.3 M 0.9,34.9 -91.5,-18.5 M 8.7,30.4 8.6,32 l -0.5,1.5 -0.7,1.1 -1,0.8 -1.1,0.5 -1.4,0 -1.5,-0.3 -1.5,-0.7 m -39.1,-64.1 30,17.3 m 0,0 0.4,0.3 0.4,0.4 0.4,0.4 0.3,0.4 0.2,0.5 0.2,0.5 0.1,0.5 0,0.5 m 0,0 0,28.7 m 0,0 0,0.4 -0.1,0.4 -0.2,0.3 -0.2,0.2 -0.3,0.1 -0.4,0 -0.4,0 -0.4,-0.2 m 0,0 -30,-17.4 m 0,0 -0.4,-0.3 -0.4,-0.3 -0.3,-0.4 -0.3,-0.5 -0.3,-0.5 -0.2,-0.5 -0.1,-0.5 0,-0.5 m 0,0 0,-28.7 m 0,0 0,-0.4 0.1,-0.4 0.2,-0.3 0.3,-0.2 0.3,-0.1 0.3,0 0.4,0.1 0.4,0.2 m -35.7,-3 -0.1,1.1 -0.5,0.8 -0.8,0.5 -1,0 -1.1,-0.4 -1.1,-0.8 -0.9,-1.2 -0.8,-1.3 -0.5,-1.4 -0.2,-1.4 0.2,-1.1 0.5,-0.9 0.8,-0.4 0.9,0 1.1,0.4 1.1,0.8 1,1.1 0.8,1.4 0.5,1.4 0.1,1.4 m -25.5,-34.9 -2.8,1.7 m 0,35 0,-35 M 0.9,34.9 -1.9,36.5 m 0,0 -92.5,-53.4 m 13.6,-20.1 0.2,0.1 m -21.6,-28.5 0.2,-1.7 0.4,-1.4 0.7,-1.2 1,-0.8 m 19.1,21.7 0.2,0.1 M 3.6,37 l -1.1,0.5 -1.4,0 -1.5,-0.3 -1.5,-0.7 m -263.6,27.2 2.8,-1.6 m -2.8,1.6 0.2,1.8 0.4,2 0.8,2 0.9,1.9 1.2,1.8 1.4,1.6 1.4,1.4 1.6,1 m 0,0 2.8,-1.6 m -7.9,-13.5 0.2,1.8 0.4,2 0.8,1.9 0.9,2 1.2,1.8 1.4,1.6 1.4,1.4 1.6,1 m 0,0 92.4,53.4 m 0,0 1.5,0.7 1.5,0.3 1.4,0 1.1,-0.5 M -260.4,22 l 0,0 -0.9,0.8 -0.8,1.1 -0.4,1.5 -0.2,1.7 m 0,0 0,35 m -2.8,-33.4 2.8,-1.6 m -2.8,1.6 0,35 m 100.3,66.9 2.8,-1.6 m -95.2,-51.8 92.4,53.4 m -98,-107 0,0 -0.9,0.8 -0.8,1.2 -0.4,1.4 -0.2,1.7 m 100.3,101.9 1.5,0.7 1.5,0.4 1.4,-0.1 1.1,-0.4 m 60.8,-202.2 -1.1,0.4 -1,0.8 -0.7,1.2 -0.5,1.4 -0.1,1.8 m 0,0 0,3.9 m 0,0 0.1,0.3 m 0,1.4 -0.1,0.1 m 0,0 0,5.3 m 0,0 0.1,0.3 m 0,1.4 -0.1,0.1 m 0,0 0,9 m 0,0 0.1,0.3 m 0,1.4 -0.1,0.1 m 0,0 0,5.3 m 0,0 0.1,0.3 m 0,1.4 -0.1,0.1 m 0,0 0,4 m 0,0 0.1,1.9 0.5,2 0.7,2 1,2 1.3,1.8 1.3,1.7 1.5,1.4 1.6,1.1 m 0,0 92.2,53.2 m 0,0 1.6,0.7 1.5,0.4 1.4,-0.1 1.2,-0.5 m -266.3,24.9 160.4,-92.5 m -160.4,92.5 0.2,1.9 0.5,2 0.7,2.1 1,1.9 1.2,1.9 1.4,1.7 1.5,1.3 1.6,1.1 m 0,0 160.3,-92.5 m -168.4,74.7 160.4,-92.6 m -160.4,96.5 0,-3.9 m 8.1,17.8 92.2,53.3 m 0,0 L -2.1,36.4 M -102.2,-35 -262.1,57.3 m -0.6,0.6 0.6,-0.6 m 159.8,-93.8 -160.4,92.6 m 0.6,1.2 -0.6,-1.2 m 0,-5.3 160.4,-92.6 m -160.4,92.6 0,5.3 m 0.6,-5.9 159.9,-92.3 m -160.5,92.9 0.6,-0.6 M -102.3,-43.6 -262.7,49 m 0.6,1.2 -0.6,-1.2 m 0,-9 160.4,-92.6 m -160.4,92.6 0,9 m 0.6,-9.6 159.9,-92.3 m -160.5,92.9 0.6,-0.6 m 159.8,-93.8 -160.4,92.6 m 0.6,1.2 -0.6,-1.2 m 0,-5.3 160.4,-92.6 m -160.4,92.6 0,5.3 m 0.6,-5.9 159.9,-92.3 m -160.5,92.9 0.6,-0.6 m 159.8,-93.8 -160.4,92.6 m 0.6,1.2 -0.6,-1.2 m 160.4,-96.5 -160.4,92.5 m 0,4 0,-4 m 2.4,-5.2 0,0 -1,0.9 -0.7,1.1 -0.5,1.5 -0.2,1.7 m 100.3,101.9 1.5,0.7 1.5,0.3 1.4,0 1.2,-0.5 M 9.6,16.9 9,17.1 7.7,17.3 6.3,17.1 4.8,16.4 3.2,15.3 1.8,13.9 0.5,12.2 -0.6,10.3 -1.4,8.3 -1.9,6.3 -2.1,4.5 -1.9,2.8 -1.4,1.4 -0.6,0.4 -0.1,0 m -86.7,-38.8 -0.6,0.2 -1.3,0.2 -1.5,-0.2 -1.5,-0.7 -1.5,-1.1 -1.5,-1.4 -1.3,-1.7 -1.1,-1.9 -0.8,-2 -0.5,-1.9 -0.2,-1.9 0.2,-1.7 0.5,-1.4 0.8,-1 0.6,-0.4 m -171.9,102.3 0.2,1.9 0.5,2 0.8,1.9 1.1,1.9 0.3,0.5 m -0.8,-12.6 -0.6,0.3 -0.8,1.1 -0.5,1.4 -0.2,1.6 m 252.2,-53.8 0.1,0 0,-0.1 0,-0.1 m 0,0 -0.1,0 -0.1,0 m 0.2,-5 -0.1,0 -0.1,0 m 5.7,8.2 -5.5,-3.2 m 5.9,-1.6 0,4.8 m -5.9,-8.2 0,0 0,-0.1 -0.1,0 m 5.9,3.4 0.1,0 0,0.1 m 0.1,0.1 0,0 -0.1,0 0,-0.1 m -21.5,-7.4 -4.9,-2.8 m 4.9,2.8 0,0.1 0,0.1 m 0,-5.2 -5.7,-3.3 m 5.7,3.2 0,0 0,0.1 m 0.1,5.1 0,0 0,-0.1 -0.1,0 m 0.1,-4.9 0,0 0,-0.1 -0.1,0 m -7.6,4.5 0,0 m 0,-5 0,-1.6 m 25.9,41.2 -1.4,-0.9 m -4.3,-2.4 -1.5,-0.9 M -27,9.8 -28.4,9 m -4.3,-2.5 -1.4,-0.8 m 20.6,12.1 -1.4,-0.8 m -4.3,-2.4 -1.5,-0.9 M -27,10 -28.4,9.2 m -4.3,-2.4 -1.5,-0.9 m -5.3,-22.8 0,-0.1 m 0,-5 0,-1.6 m -0.4,25.7 0,-4 m 1.1,5.6 4.3,2.5 M -38.8,-2 -39,-1.9 m 5,7.3 0.2,-0.1 m -5,-14 -0.2,0.2 m 10.7,17.2 0.2,-0.1 m -8.5,-15.8 0.2,-0.1 m 0,0.5 0,0.1 m -2.4,-8.6 -0.2,0.1 m 18.5,28.5 0.2,-0.2 M -38.8,-22 -39,-21.9 m 24.3,38.5 0.2,-0.2 m -5.4,-7.1 0,-3.4 M -8,7.3 -8.2,7.5 M -10.4,2.9 -10.6,3 m -9.5,6.1 0,-2.9 M -8,-6 -8.2,-5.8 m -72.6,-30.9 -0.1,0 m 0.1,-11.8 -0.1,0.1 m 12.8,28.1 0,-23.1 m 0,23.2 22.6,13 m -21,-21.3 0.3,-0.1 m -0.3,-8 0.3,-0.1 m 1.3,13 1.1,-0.7 m -0.7,1.4 1.1,-0.7 m -2.4,-6 2,-1.1 m 10.8,13.1 -3.7,2.2 m -10,-30.1 -2,1.1 m 25.9,37.2 -2,1.1 m 0,-26.8 -2.7,1.5 m 4.7,1.9 -2.4,1.4 m 7,-1 -2,1.1 m 32,16.2 -1,0.6 m 3,31.6 -2,1.2 m 2,-29.9 -1.7,1"
         style="fill:none;stroke:#000000;stroke-width:0.70899999;stroke-linecap:round;stroke-linejoin:round;stroke-miterlimit:10;stroke-opacity:1;stroke-dasharray:none"
         id="path3883"
         inkscape:connector-curvature="0" />
    </g>
  </g>
</svg>
